<svg width="38" height="38" viewBox="0 0 38 38" fill="none" xmlns="http://www.w3.org/2000/svg">
<rect width="38" height="38" rx="19" fill="#012F48"/>
<path fill-rule="evenodd" clip-rule="evenodd" d="M18.7914 12.75C18.7156 12.75 18.5289 12.7708 18.4298 12.9692L16.9081 16.0117C16.6673 16.4925 16.2031 16.8267 15.6664 16.9033L12.2598 17.3942C12.0348 17.4267 11.9581 17.5933 11.9348 17.6633C11.9139 17.7308 11.8806 17.9025 12.0356 18.0508L14.4989 20.4175C14.8914 20.795 15.0698 21.3392 14.9764 21.8717L14.3964 25.2133C14.3606 25.4225 14.4914 25.5442 14.5498 25.5858C14.6114 25.6325 14.7764 25.725 14.9806 25.6183L18.0264 24.0392C18.5064 23.7917 19.0781 23.7917 19.5564 24.0392L22.6014 25.6175C22.8064 25.7233 22.9714 25.6308 23.0339 25.5858C23.0923 25.5442 23.2231 25.4225 23.1873 25.2133L22.6056 21.8717C22.5123 21.3392 22.6906 20.795 23.0831 20.4175L25.5464 18.0508C25.7023 17.9025 25.6689 17.73 25.6473 17.6633C25.6248 17.5933 25.5481 17.4267 25.3231 17.3942L21.9164 16.9033C21.3806 16.8267 20.9164 16.4925 20.6756 16.0108L19.1523 12.9692C19.0539 12.7708 18.8673 12.75 18.7914 12.75ZM14.7889 26.9167C14.4448 26.9167 14.1031 26.8083 13.8106 26.595C13.3056 26.225 13.0581 25.6142 13.1656 24.9992L13.7456 21.6575C13.7673 21.5333 13.7248 21.4075 13.6331 21.3192L11.1698 18.9525C10.7164 18.5183 10.5539 17.8767 10.7456 17.2808C10.9389 16.6783 11.4506 16.2475 12.0814 16.1575L15.4881 15.6667C15.6198 15.6483 15.7331 15.5675 15.7898 15.4525L17.3123 12.4092C17.5931 11.8483 18.1598 11.5 18.7914 11.5C19.4231 11.5 19.9898 11.8483 20.2706 12.4092L21.7939 15.4517C21.8514 15.5675 21.9639 15.6483 22.0948 15.6667L25.5014 16.1575C26.1323 16.2475 26.6439 16.6783 26.8373 17.2808C27.0289 17.8767 26.8656 18.5183 26.4123 18.9525L23.9489 21.3192C23.8573 21.4075 23.8156 21.5333 23.8373 21.6567L24.4181 24.9992C24.5248 25.615 24.2773 26.2258 23.7714 26.595C23.2589 26.9708 22.5914 27.0217 22.0256 26.7267L18.9814 25.1492C18.8623 25.0875 18.7198 25.0875 18.6006 25.1492L15.5564 26.7275C15.3131 26.8542 15.0506 26.9167 14.7889 26.9167Z" fill="white"/>
</svg>
