<svg width="50" height="49" viewBox="0 0 50 49" fill="none" xmlns="http://www.w3.org/2000/svg">
<ellipse cx="24.9153" cy="24.3199" rx="24.9153" ry="23.7847" fill="#012F48"/>
<path d="M15.7812 24.0156H13.8438V27.1094H15.7812V24.0156Z" fill="white"/>
<path d="M35.1562 24.0156H33.2188V27.1094H35.1562V24.0156Z" fill="white"/>
<path d="M19.1719 18.3438H14.8125V22.9844H16.2656C16.532 22.9844 16.75 23.2164 16.75 23.5V27.625C16.75 27.9086 16.532 28.1406 16.2656 28.1406H14.8125V31.2344H19.6562V26.0781H19.1719C18.9055 26.0781 18.6875 25.8461 18.6875 25.5625V23.5C18.6875 23.2164 18.9055 22.9844 19.1719 22.9844H29.8281C30.0945 22.9844 30.3125 23.2164 30.3125 23.5V25.5625C30.3125 25.8461 30.0945 26.0781 29.8281 26.0781H29.3438V31.2344H34.1875V28.1406H32.7344C32.468 28.1406 32.25 27.9086 32.25 27.625V23.5C32.25 23.2164 32.468 22.9844 32.7344 22.9844H34.1875V18.3438H29.8281V19.375C29.8281 20.2309 29.1791 20.9219 28.375 20.9219H20.625C19.8209 20.9219 19.1719 20.2309 19.1719 19.375V18.3438Z" fill="white"/>
<path d="M28.375 26.0781H24.9844V31.2344H28.375V26.0781Z" fill="white"/>
<path d="M24.0156 26.0781H20.625V31.2344H24.0156V26.0781Z" fill="white"/>
<path d="M19.1719 16.2812H12.3906V17.3125H19.1719V16.2812Z" fill="white"/>
<path d="M36.6094 16.2812H29.8281V17.3125H36.6094V16.2812Z" fill="white"/>
<path d="M29.3438 24.0156H19.6562V25.0469H29.3438V24.0156Z" fill="white"/>
<path d="M24.0156 16.2812V17.3125H24.9844V16.2812C24.9844 15.9977 25.2023 15.7656 25.4688 15.7656H26.4375V14.7344H25.4688C25.2023 14.7344 24.9844 14.5023 24.9844 14.2188V13.1875H24.0156V14.2188C24.0156 14.5023 23.7977 14.7344 23.5312 14.7344H22.5625V15.7656H23.5312C23.7977 15.7656 24.0156 15.9977 24.0156 16.2812Z" fill="white"/>
<path d="M31.7656 13.7031C31.7656 13.4195 31.5477 13.1875 31.2812 13.1875H29.8281V15.25H31.7656V13.7031Z" fill="white"/>
<path d="M36.125 34.3281H12.875C12.6075 34.3281 12.3906 34.559 12.3906 34.8438V35.875C12.3906 36.1598 12.6075 36.3906 12.875 36.3906H36.125C36.3925 36.3906 36.6094 36.1598 36.6094 35.875V34.8438C36.6094 34.559 36.3925 34.3281 36.125 34.3281Z" fill="white"/>
<path d="M19.1719 13.1875H17.7188C17.4523 13.1875 17.2344 13.4195 17.2344 13.7031V15.25H19.1719V13.1875Z" fill="white"/>
<path d="M20.625 19.8906H28.375C28.6414 19.8906 28.8594 19.6586 28.8594 19.375V11.125C28.8594 10.8414 28.6414 10.6094 28.375 10.6094H20.625C20.3586 10.6094 20.1406 10.8414 20.1406 11.125V19.375C20.1406 19.6586 20.3586 19.8906 20.625 19.8906ZM21.5938 14.2188C21.5938 13.9352 21.8117 13.7031 22.0781 13.7031H23.0469V12.6719C23.0469 12.3883 23.2648 12.1562 23.5312 12.1562H25.4688C25.7352 12.1562 25.9531 12.3883 25.9531 12.6719V13.7031H26.9219C27.1883 13.7031 27.4062 13.9352 27.4062 14.2188V16.2812C27.4062 16.5648 27.1883 16.7969 26.9219 16.7969H25.9531V17.8281C25.9531 18.1117 25.7352 18.3438 25.4688 18.3438H23.5312C23.2648 18.3438 23.0469 18.1117 23.0469 17.8281V16.7969H22.0781C21.8117 16.7969 21.5938 16.5648 21.5938 16.2812V14.2188Z" fill="white"/>
<path d="M35.1562 32.2656H13.8438V33.2969H35.1562V32.2656Z" fill="white"/>
</svg>
