<svg width="31" height="33" viewBox="0 0 31 33" fill="none" xmlns="http://www.w3.org/2000/svg">
<path d="M6.78125 17.0156H4.84375V20.1094H6.78125V17.0156Z" fill="#E76528"/>
<path d="M26.1562 17.0156H24.2188V20.1094H26.1562V17.0156Z" fill="#E76528"/>
<path d="M10.1719 11.3438H5.8125V15.9844H7.26562C7.53203 15.9844 7.75 16.2164 7.75 16.5V20.625C7.75 20.9086 7.53203 21.1406 7.26562 21.1406H5.8125V24.2344H10.6562V19.0781H10.1719C9.90547 19.0781 9.6875 18.8461 9.6875 18.5625V16.5C9.6875 16.2164 9.90547 15.9844 10.1719 15.9844H20.8281C21.0945 15.9844 21.3125 16.2164 21.3125 16.5V18.5625C21.3125 18.8461 21.0945 19.0781 20.8281 19.0781H20.3438V24.2344H25.1875V21.1406H23.7344C23.468 21.1406 23.25 20.9086 23.25 20.625V16.5C23.25 16.2164 23.468 15.9844 23.7344 15.9844H25.1875V11.3438H20.8281V12.375C20.8281 13.2309 20.1791 13.9219 19.375 13.9219H11.625C10.8209 13.9219 10.1719 13.2309 10.1719 12.375V11.3438Z" fill="#E76528"/>
<path d="M19.375 19.0781H15.9844V24.2344H19.375V19.0781Z" fill="#E76528"/>
<path d="M15.0156 19.0781H11.625V24.2344H15.0156V19.0781Z" fill="#E76528"/>
<path d="M10.1719 9.28125H3.39062V10.3125H10.1719V9.28125Z" fill="#E76528"/>
<path d="M27.6094 9.28125H20.8281V10.3125H27.6094V9.28125Z" fill="#E76528"/>
<path d="M20.3438 17.0156H10.6562V18.0469H20.3438V17.0156Z" fill="#E76528"/>
<path d="M15.0156 9.28125V10.3125H15.9844V9.28125C15.9844 8.99766 16.2023 8.76562 16.4688 8.76562H17.4375V7.73438H16.4688C16.2023 7.73438 15.9844 7.50234 15.9844 7.21875V6.1875H15.0156V7.21875C15.0156 7.50234 14.7977 7.73438 14.5312 7.73438H13.5625V8.76562H14.5312C14.7977 8.76562 15.0156 8.99766 15.0156 9.28125Z" fill="#E76528"/>
<path d="M22.7656 6.70312C22.7656 6.41953 22.5477 6.1875 22.2812 6.1875H20.8281V8.25H22.7656V6.70312Z" fill="#E76528"/>
<path d="M27.125 27.3281H3.875C3.60749 27.3281 3.39062 27.559 3.39062 27.8438V28.875C3.39062 29.1598 3.60749 29.3906 3.875 29.3906H27.125C27.3925 29.3906 27.6094 29.1598 27.6094 28.875V27.8438C27.6094 27.559 27.3925 27.3281 27.125 27.3281Z" fill="#E76528"/>
<path d="M10.1719 6.1875H8.71875C8.45234 6.1875 8.23438 6.41953 8.23438 6.70312V8.25H10.1719V6.1875Z" fill="#E76528"/>
<path d="M11.625 12.8906H19.375C19.6414 12.8906 19.8594 12.6586 19.8594 12.375V4.125C19.8594 3.84141 19.6414 3.60938 19.375 3.60938H11.625C11.3586 3.60938 11.1406 3.84141 11.1406 4.125V12.375C11.1406 12.6586 11.3586 12.8906 11.625 12.8906ZM12.5938 7.21875C12.5938 6.93516 12.8117 6.70312 13.0781 6.70312H14.0469V5.67188C14.0469 5.38828 14.2648 5.15625 14.5312 5.15625H16.4688C16.7352 5.15625 16.9531 5.38828 16.9531 5.67188V6.70312H17.9219C18.1883 6.70312 18.4062 6.93516 18.4062 7.21875V9.28125C18.4062 9.56484 18.1883 9.79688 17.9219 9.79688H16.9531V10.8281C16.9531 11.1117 16.7352 11.3438 16.4688 11.3438H14.5312C14.2648 11.3438 14.0469 11.1117 14.0469 10.8281V9.79688H13.0781C12.8117 9.79688 12.5938 9.56484 12.5938 9.28125V7.21875Z" fill="#E76528"/>
<path d="M26.1562 25.2656H4.84375V26.2969H26.1562V25.2656Z" fill="#E76528"/>
</svg>
