<svg width="65" height="80" viewBox="0 0 65 80" fill="none" xmlns="http://www.w3.org/2000/svg">
<g filter="url(#filter0_d_678_699)">
<path fill-rule="evenodd" clip-rule="evenodd" d="M60 27.5552C60 48.2093 32.5 71 32.5 71C32.5 71 5 48.2093 5 27.5552C5 12.8892 17.3122 1 32.5 1C47.6878 1 60 12.8892 60 27.5552Z" fill="url(#paint0_linear_678_699)" stroke="white" stroke-width="2" stroke-linecap="round" stroke-linejoin="round"/>
<path d="M23.7812 34.0156H21.8438V37.1094H23.7812V34.0156Z" fill="white"/>
<path d="M43.1562 34.0156H41.2188V37.1094H43.1562V34.0156Z" fill="white"/>
<path d="M27.1719 28.3438H22.8125V32.9844H24.2656C24.532 32.9844 24.75 33.2164 24.75 33.5V37.625C24.75 37.9086 24.532 38.1406 24.2656 38.1406H22.8125V41.2344H27.6562V36.0781H27.1719C26.9055 36.0781 26.6875 35.8461 26.6875 35.5625V33.5C26.6875 33.2164 26.9055 32.9844 27.1719 32.9844H37.8281C38.0945 32.9844 38.3125 33.2164 38.3125 33.5V35.5625C38.3125 35.8461 38.0945 36.0781 37.8281 36.0781H37.3438V41.2344H42.1875V38.1406H40.7344C40.468 38.1406 40.25 37.9086 40.25 37.625V33.5C40.25 33.2164 40.468 32.9844 40.7344 32.9844H42.1875V28.3438H37.8281V29.375C37.8281 30.2309 37.1791 30.9219 36.375 30.9219H28.625C27.8209 30.9219 27.1719 30.2309 27.1719 29.375V28.3438Z" fill="white"/>
<path d="M36.375 36.0781H32.9844V41.2344H36.375V36.0781Z" fill="white"/>
<path d="M32.0156 36.0781H28.625V41.2344H32.0156V36.0781Z" fill="white"/>
<path d="M27.1719 26.2812H20.3906V27.3125H27.1719V26.2812Z" fill="white"/>
<path d="M44.6094 26.2812H37.8281V27.3125H44.6094V26.2812Z" fill="white"/>
<path d="M37.3438 34.0156H27.6562V35.0469H37.3438V34.0156Z" fill="white"/>
<path d="M32.0156 26.2812V27.3125H32.9844V26.2812C32.9844 25.9977 33.2023 25.7656 33.4688 25.7656H34.4375V24.7344H33.4688C33.2023 24.7344 32.9844 24.5023 32.9844 24.2188V23.1875H32.0156V24.2188C32.0156 24.5023 31.7977 24.7344 31.5312 24.7344H30.5625V25.7656H31.5312C31.7977 25.7656 32.0156 25.9977 32.0156 26.2812Z" fill="white"/>
<path d="M39.7656 23.7031C39.7656 23.4195 39.5477 23.1875 39.2812 23.1875H37.8281V25.25H39.7656V23.7031Z" fill="white"/>
<path d="M44.125 44.3281H20.875C20.6075 44.3281 20.3906 44.559 20.3906 44.8438V45.875C20.3906 46.1598 20.6075 46.3906 20.875 46.3906H44.125C44.3925 46.3906 44.6094 46.1598 44.6094 45.875V44.8438C44.6094 44.559 44.3925 44.3281 44.125 44.3281Z" fill="white"/>
<path d="M27.1719 23.1875H25.7188C25.4523 23.1875 25.2344 23.4195 25.2344 23.7031V25.25H27.1719V23.1875Z" fill="white"/>
<path d="M28.625 29.8906H36.375C36.6414 29.8906 36.8594 29.6586 36.8594 29.375V21.125C36.8594 20.8414 36.6414 20.6094 36.375 20.6094H28.625C28.3586 20.6094 28.1406 20.8414 28.1406 21.125V29.375C28.1406 29.6586 28.3586 29.8906 28.625 29.8906ZM29.5938 24.2188C29.5938 23.9352 29.8117 23.7031 30.0781 23.7031H31.0469V22.6719C31.0469 22.3883 31.2648 22.1562 31.5312 22.1562H33.4688C33.7352 22.1562 33.9531 22.3883 33.9531 22.6719V23.7031H34.9219C35.1883 23.7031 35.4062 23.9352 35.4062 24.2188V26.2812C35.4062 26.5648 35.1883 26.7969 34.9219 26.7969H33.9531V27.8281C33.9531 28.1117 33.7352 28.3438 33.4688 28.3438H31.5312C31.2648 28.3438 31.0469 28.1117 31.0469 27.8281V26.7969H30.0781C29.8117 26.7969 29.5938 26.5648 29.5938 26.2812V24.2188Z" fill="white"/>
<path d="M43.1562 42.2656H21.8438V43.2969H43.1562V42.2656Z" fill="white"/>
</g>
<defs>
<filter id="filter0_d_678_699" x="0" y="0" width="65" height="80" filterUnits="userSpaceOnUse" color-interpolation-filters="sRGB">
<feFlood flood-opacity="0" result="BackgroundImageFix"/>
<feColorMatrix in="SourceAlpha" type="matrix" values="0 0 0 0 0 0 0 0 0 0 0 0 0 0 0 0 0 0 127 0" result="hardAlpha"/>
<feOffset dy="4"/>
<feGaussianBlur stdDeviation="2"/>
<feComposite in2="hardAlpha" operator="out"/>
<feColorMatrix type="matrix" values="0 0 0 0 0 0 0 0 0 0 0 0 0 0 0 0 0 0 0.25 0"/>
<feBlend mode="normal" in2="BackgroundImageFix" result="effect1_dropShadow_678_699"/>
<feBlend mode="normal" in="SourceGraphic" in2="effect1_dropShadow_678_699" result="shape"/>
</filter>
<linearGradient id="paint0_linear_678_699" x1="32.5" y1="1" x2="32.5" y2="71" gradientUnits="userSpaceOnUse">
<stop stop-color="#B32400"/>
<stop offset="1" stop-color="#FF823A"/>
</linearGradient>
</defs>
</svg>
