<svg width="50" height="50" viewBox="0 0 50 50" fill="none" xmlns="http://www.w3.org/2000/svg">
<path d="M38.8542 31.2202L36.6948 30.802C36.153 29.7149 35.3597 28.7725 34.3809 28.0532C33.402 27.3339 32.2658 26.8584 31.0664 26.666C31.4759 26.3189 31.8551 25.9376 32.1999 25.5261C33.2982 26.2724 34.6116 26.6366 35.9375 26.5625C38.1887 26.4575 40.3265 25.544 41.9586 23.9898C42.0518 23.8956 42.1197 23.7793 42.1558 23.6518C42.1919 23.5243 42.1951 23.3896 42.165 23.2605C42.1349 23.1314 42.0726 23.0121 41.9839 22.9136C41.8952 22.8151 41.7829 22.7407 41.6576 22.6974C41.1525 22.5251 40.7102 22.2062 40.3872 21.7814C40.0641 21.3567 39.8749 20.8453 39.8437 20.3125C39.8437 16.4581 39.2696 7.17008 33.9508 4.18164C32.468 3.47926 30.7804 3.34017 29.2026 3.79031C28.6418 3.19445 27.4177 2.34375 25 2.34375C22.0482 2.34375 18.0038 2.67867 15.5 4.27625C10.8505 7.24219 10.1562 15.596 10.1562 20.3125C10.1251 20.8446 9.93636 21.3554 9.61412 21.7799C9.29187 22.2045 8.85064 22.5236 8.34654 22.6967C8.2203 22.7389 8.10694 22.8126 8.0172 22.9109C7.92745 23.0092 7.8643 23.1287 7.83373 23.2583C7.80316 23.3878 7.80619 23.523 7.84253 23.651C7.87888 23.7791 7.94732 23.8957 8.04138 23.9898C9.67342 25.544 11.8112 26.4575 14.0625 26.5625C15.3883 26.6366 16.7017 26.2724 17.8001 25.5261C18.1448 25.9376 18.5241 26.3189 18.9336 26.666C17.7342 26.8584 16.5979 27.3339 15.6191 28.0532C14.6402 28.7725 13.847 29.7149 13.3051 30.802L11.1454 31.2202C9.73923 31.497 8.45057 32.195 7.45059 33.2215C6.4506 34.2481 5.78662 35.5546 5.54685 36.9675L3.91693 46.7468C3.89823 46.8587 3.90414 46.9733 3.93426 47.0827C3.96438 47.1921 4.01798 47.2936 4.09132 47.3802C4.16466 47.4668 4.25599 47.5363 4.35895 47.584C4.4619 47.6317 4.57401 47.6563 4.68747 47.6562H45.3125C45.4259 47.6563 45.538 47.6317 45.641 47.584C45.744 47.5363 45.8353 47.4668 45.9086 47.3802C45.982 47.2936 46.0356 47.1921 46.0657 47.0827C46.0958 46.9733 46.1017 46.8587 46.083 46.7468L44.4531 36.9675C44.2133 35.5545 43.5493 34.248 42.5492 33.2214C41.5491 32.1949 40.2604 31.4969 38.8542 31.2202ZM34.5947 30.3954L28.9062 29.2938V28.125H29.8686C30.7762 28.1253 31.672 28.3294 32.49 28.7224C33.3081 29.1154 34.0273 29.6871 34.5947 30.3954ZM14.0625 16.4062C14.063 16.0298 14.1543 15.659 14.3288 15.3253C14.5032 14.9917 14.7556 14.7051 15.0645 14.4898L15.0654 14.4928L15.625 14.3273V18.606C15.1693 18.4455 14.7745 18.1479 14.4947 17.754C14.2149 17.3602 14.064 16.8894 14.0625 16.4062ZM17.1875 19.5312V15.61C19.3547 15.559 21.5117 15.2945 23.6271 14.8203C25.2433 14.4094 26.7192 13.5711 27.8999 12.3934C29.1134 14.3852 31.6526 15.3466 32.8125 15.696V19.5312C32.8125 21.6033 31.9894 23.5904 30.5242 25.0555C29.0591 26.5206 27.072 27.3438 25 27.3438C22.928 27.3438 20.9408 26.5206 19.4757 25.0555C18.0106 23.5904 17.1875 21.6033 17.1875 19.5312ZM34.3604 14.2464L34.5989 14.2978C35.0177 14.4947 35.3685 14.8119 35.6063 15.209C35.8442 15.606 35.9584 16.0649 35.9343 16.5271C35.9103 16.9894 35.7492 17.4339 35.4714 17.8042C35.1937 18.1744 34.812 18.4536 34.375 18.606V15.0948H34.3608L34.3604 14.2464ZM22.6562 29.9385V28.5977C24.1916 29.0091 25.8083 29.0091 27.3437 28.5977V29.9385C27.3438 30.1199 27.407 30.2956 27.5224 30.4355C27.6379 30.5754 27.7985 30.6708 27.9765 30.7052L29.2203 30.9461L24.8609 34.0248L20.7217 30.9573L22.0235 30.7052C22.2016 30.6708 22.3621 30.5754 22.4775 30.4355C22.593 30.2956 22.6562 30.1199 22.6562 29.9385ZM24.3847 35.6172C24.5168 35.7151 24.6764 35.7687 24.8408 35.7705C25.0052 35.7723 25.166 35.7221 25.3002 35.6271L30.187 32.1757L27.912 46.0938H22.0879L19.8229 32.2364L24.3847 35.6172ZM14.0625 25C12.5924 24.9439 11.1735 24.4447 9.99216 23.568C10.5264 23.2101 10.9637 22.7255 11.265 22.1574C11.5662 21.5894 11.7221 20.9555 11.7187 20.3125C11.7187 16.7734 12.1693 8.25352 16.3402 5.59313C18.5265 4.19922 22.2561 3.90625 25 3.90625C27.5307 3.90625 28.1902 5.00781 28.2074 5.03695C28.2931 5.20687 28.4375 5.33986 28.614 5.41116C28.7904 5.48246 28.9867 5.48721 29.1664 5.42453C29.1898 5.41609 31.5498 4.6257 33.1855 5.5443C37.914 8.20086 38.2812 17.5194 38.2812 20.3125C38.2777 20.9561 38.4339 21.5905 38.7357 22.1589C39.0376 22.7273 39.4757 23.2119 40.0108 23.5695C38.8294 24.4481 37.4089 24.947 35.9375 25C34.9309 25.0739 33.9288 24.8068 33.0926 24.2418C33.8077 23.0193 34.2341 21.6495 34.3392 20.2371C35.2924 20.0522 36.1425 19.5187 36.7235 18.7408C37.3046 17.9629 37.5749 16.9963 37.4818 16.0299C37.3887 15.0634 36.9388 14.1662 36.2199 13.5136C35.501 12.8609 34.5647 12.4996 33.5937 12.5V12.5188C33.4212 12.5123 33.2516 12.5643 33.1123 12.6663C33.0219 12.7369 32.9482 12.8266 32.8965 12.9289C32.8447 13.0312 32.8162 13.1437 32.8129 13.2584L32.7983 14.0469C31.5158 13.5952 29.34 12.5759 28.8829 10.7487C28.8463 10.6018 28.7677 10.4688 28.6569 10.3657C28.546 10.2627 28.4076 10.1941 28.2584 10.1682C28.1093 10.1423 27.9559 10.1604 27.8168 10.2201C27.6777 10.2798 27.5589 10.3786 27.475 10.5045C26.4245 11.8907 24.9339 12.8784 23.2479 13.3053C21.2562 13.7463 19.2267 13.9942 17.1875 14.0457V13.2812C17.1874 13.1598 17.1591 13.04 17.1046 12.9314C17.0502 12.8228 16.9712 12.7283 16.8739 12.6556C16.737 12.5605 16.5728 12.5127 16.4062 12.5196V12.5C15.4353 12.4996 14.499 12.8609 13.7801 13.5136C13.0612 14.1662 12.6113 15.0634 12.5181 16.0299C12.425 16.9963 12.6954 17.9629 13.2764 18.7408C13.8575 19.5187 14.7076 20.0522 15.6608 20.2371C15.7658 21.6495 16.1922 23.0193 16.9074 24.2418C16.0711 24.8068 15.069 25.0739 14.0625 25ZM20.1313 28.125H21.0937V29.2938L15.4053 30.3954C15.9727 29.6871 16.6919 29.1154 17.5099 28.7224C18.3279 28.3294 19.2238 28.1253 20.1313 28.125ZM7.0881 37.2238C7.27476 36.125 7.79126 35.1089 8.56901 34.3105C9.34675 33.5121 10.349 32.9691 11.4426 32.7537L12.6926 32.5116C12.566 33.0633 12.5014 33.6274 12.5 34.1934V34.4555C11.6998 34.6116 10.9654 35.0053 10.3925 35.5854C9.81971 36.1654 9.43512 36.9047 9.28904 37.7067L8.55052 41.7687C8.48918 42.1064 8.50277 42.4535 8.59034 42.7854C8.67791 43.1173 8.83732 43.4259 9.05729 43.6894C9.27726 43.953 9.55243 44.1649 9.86335 44.3104C10.1743 44.4559 10.5133 44.5313 10.8566 44.5312H11.7187V42.9688H10.8566C10.7422 42.9688 10.6292 42.9436 10.5255 42.8951C10.4219 42.8466 10.3302 42.776 10.2569 42.6881C10.1835 42.6003 10.1304 42.4974 10.1012 42.3868C10.072 42.2762 10.0675 42.1605 10.0879 42.0479L10.8265 37.986C10.9311 37.4112 11.2341 36.8913 11.6827 36.517C12.1312 36.1427 12.697 35.9376 13.2812 35.9376C13.8655 35.9376 14.4312 36.1427 14.8798 36.517C15.3284 36.8913 15.6314 37.4112 15.736 37.986L16.4745 42.0479C16.495 42.1605 16.4904 42.2762 16.4612 42.3868C16.432 42.4974 16.3789 42.6003 16.3056 42.6881C16.2323 42.776 16.1405 42.8466 16.0369 42.8951C15.9333 42.9436 15.8203 42.9688 15.7058 42.9688H14.8437V44.5312H15.7058C16.0491 44.5312 16.3882 44.4559 16.6991 44.3104C17.01 44.1649 17.2851 43.9529 17.5051 43.6894C17.7251 43.4259 17.8845 43.1173 17.972 42.7854C18.0596 42.4535 18.0732 42.1064 18.0118 41.7687L17.2734 37.7067C17.1273 36.9047 16.7427 36.1654 16.1699 35.5854C15.5971 35.0053 14.8626 34.6116 14.0625 34.4555V34.1934C14.064 33.5067 14.1829 32.8252 14.414 32.1785L18.1137 31.4623L20.5049 46.0938H5.60989L7.0881 37.2238ZM29.4951 46.0938L31.8866 31.4623L35.5863 32.1786C35.8174 32.8253 35.9363 33.5067 35.9379 34.1934V36.8297C35.2014 37.0198 34.5596 37.4721 34.1327 38.1016C33.7058 38.7311 33.5232 39.4947 33.619 40.2492C33.7149 41.0038 34.0826 41.6974 34.6533 42.2003C35.224 42.7031 35.9585 42.9805 36.7191 42.9805C37.4797 42.9805 38.2142 42.7031 38.7849 42.2003C39.3556 41.6974 39.7234 41.0038 39.8192 40.2492C39.915 39.4947 39.7324 38.7311 39.3055 38.1016C38.8786 37.4721 38.2368 37.0198 37.5004 36.8297V34.1934C37.4988 33.6275 37.4341 33.0634 37.3075 32.5118L38.5575 32.754C39.6511 32.9693 40.6534 33.5122 41.4312 34.3106C42.2091 35.109 42.7256 36.1252 42.9123 37.2241L44.3901 46.0938H29.4951ZM36.7187 38.2812C37.0278 38.2812 37.3298 38.3729 37.5868 38.5446C37.8438 38.7163 38.044 38.9603 38.1623 39.2458C38.2805 39.5313 38.3115 39.8455 38.2512 40.1486C38.1909 40.4517 38.0421 40.7301 37.8236 40.9486C37.6051 41.1671 37.3266 41.3159 37.0236 41.3762C36.7205 41.4365 36.4063 41.4056 36.1208 41.2873C35.8353 41.169 35.5912 40.9688 35.4195 40.7118C35.2479 40.4549 35.1562 40.1528 35.1562 39.8438C35.1567 39.4295 35.3215 39.0323 35.6144 38.7394C35.9073 38.4465 36.3045 38.2817 36.7187 38.2812Z" fill="black"/>
</svg>
