<svg width="38" height="38" viewBox="0 0 38 38" fill="none" xmlns="http://www.w3.org/2000/svg">
<rect width="38" height="38" rx="19" fill="#012F48"/>
<path fill-rule="evenodd" clip-rule="evenodd" d="M19.0002 14.208C17.2743 14.208 15.8752 15.6071 15.8752 17.333C15.8752 19.0589 17.2743 20.458 19.0002 20.458C20.7261 20.458 22.1252 19.0589 22.1252 17.333C22.1252 15.6071 20.7261 14.208 19.0002 14.208ZM17.1252 17.333C17.1252 16.2975 17.9646 15.458 19.0002 15.458C20.0357 15.458 20.8752 16.2975 20.8752 17.333C20.8752 18.3685 20.0357 19.208 19.0002 19.208C17.9646 19.208 17.1252 18.3685 17.1252 17.333Z" fill="white"/>
<path fill-rule="evenodd" clip-rule="evenodd" d="M19.0002 9.20801C14.9307 9.20801 11.7085 12.7437 11.7085 17.0069C11.7085 18.3742 12.3878 19.9842 13.2424 21.4951C14.1108 23.0305 15.2192 24.5632 16.191 25.8024L16.2234 25.8438C16.6978 26.4487 17.1019 26.9641 17.4937 27.32C17.9212 27.7083 18.3926 27.9626 19.0002 27.9626C19.6077 27.9626 20.0791 27.7083 20.5066 27.32C20.8985 26.964 21.3026 26.4487 21.7769 25.8437L21.8093 25.8024C22.7811 24.5632 23.8895 23.0305 24.758 21.4951C25.6126 19.9842 26.2918 18.3742 26.2918 17.0069C26.2918 12.7437 23.0696 9.20801 19.0002 9.20801ZM12.9585 17.0069C12.9585 13.3461 15.7058 10.458 19.0002 10.458C22.2945 10.458 25.0418 13.3461 25.0418 17.0069C25.0418 18.029 24.5088 19.3966 23.67 20.8797C22.8449 22.3383 21.7787 23.8158 20.8257 25.0311C20.3099 25.6888 19.9703 26.1185 19.6661 26.3947C19.3888 26.6467 19.2036 26.7126 19.0002 26.7126C18.7967 26.7126 18.6115 26.6467 18.3342 26.3947C18.0301 26.1185 17.6904 25.6888 17.1746 25.0311C16.2216 23.8158 15.1554 22.3383 14.3304 20.8797C13.4915 19.3966 12.9585 18.029 12.9585 17.0069Z" fill="white"/>
</svg>
