<svg width="53" height="52" viewBox="0 0 53 52" fill="none" xmlns="http://www.w3.org/2000/svg">
<path d="M41.1854 32.469L38.8965 32.0341C38.3222 30.9034 37.4813 29.9234 36.4437 29.1754C35.4061 28.4273 34.2017 27.9327 32.9304 27.7327C33.931 26.899 34.7529 25.8787 35.3484 24.731C35.9439 23.5832 36.3012 22.3309 36.3995 21.0466C37.1834 20.8977 37.9066 20.5294 38.4819 19.9862C39.0571 19.443 39.4598 18.748 39.6414 17.9851C39.823 17.2223 39.7757 16.4242 39.5051 15.6872C39.2346 14.9502 38.7525 14.3057 38.1169 13.8316C38.3985 12.758 39.5752 7.61686 37.023 5.11347C35.0974 3.22424 32.1937 3.64715 30.9564 3.94388C30.3624 3.32378 29.0644 2.4375 26.5 2.4375C22.9016 2.4375 16.8786 2.4375 14.9936 6.13657C13.5149 9.03809 14.135 12.9166 14.4139 14.2506C13.8957 14.775 13.5316 15.4271 13.3603 16.138C13.1891 16.8488 13.217 17.5918 13.441 18.2884C13.6651 18.9849 14.077 19.609 14.6332 20.0946C15.1893 20.5802 15.869 20.9091 16.6002 21.0466C16.6985 22.3309 17.0558 23.5832 17.6513 24.731C18.2468 25.8787 19.0687 26.899 20.0693 27.7327C18.798 27.9327 17.5936 28.4273 16.556 29.1754C15.5184 29.9234 14.6775 30.9034 14.1032 32.0341L11.8138 32.469C10.3234 32.7569 8.95746 33.4828 7.89752 34.5504C6.83758 35.6181 6.1338 36.9768 5.87966 38.4462L4.15194 48.6167C4.13212 48.7331 4.13839 48.8523 4.17032 48.966C4.20224 49.0798 4.25905 49.1854 4.3368 49.2754C4.41454 49.3654 4.51135 49.4378 4.62049 49.4873C4.72962 49.5369 4.84845 49.5626 4.96872 49.5625H48.0312C48.1515 49.5626 48.2703 49.5369 48.3795 49.4873C48.4886 49.4378 48.5854 49.3654 48.6631 49.2754C48.7409 49.1854 48.7977 49.0798 48.8296 48.966C48.8616 48.8523 48.8678 48.7331 48.848 48.6167L47.1203 38.4462C46.8661 36.9767 46.1622 35.6179 45.1022 34.5503C44.0421 33.4826 42.676 32.7568 41.1854 32.469ZM36.6704 31.6112L30.6406 30.4656V29.25H31.6608C32.6227 29.2503 33.5723 29.4626 34.4394 29.8713C35.3066 30.28 36.069 30.8746 36.6704 31.6112ZM24.0156 31.1361V29.7416C25.6431 30.1695 27.3568 30.1695 28.9843 29.7416V31.1361C28.9844 31.3247 29.0514 31.5074 29.1738 31.6529C29.2962 31.7984 29.4664 31.8976 29.6551 31.9334L30.9735 32.1839L26.3526 35.3858L21.965 32.1956L23.3449 31.9334C23.5337 31.8976 23.7038 31.7984 23.8262 31.6529C23.9486 31.5074 24.0155 31.3247 24.0156 31.1361ZM25.8477 37.0419C25.9878 37.1437 26.157 37.1995 26.3313 37.2013C26.5055 37.2032 26.676 37.151 26.8182 37.0522L31.9982 33.4627L29.5867 47.9375H23.4132L21.0123 33.5259L25.8477 37.0419ZM36.4375 19.3503V15.6986H36.4225V14.9099L36.6316 14.8482C37.0833 15.0464 37.4639 15.3731 37.7242 15.786C37.9844 16.1988 38.1124 16.6788 38.0915 17.1638C38.0706 17.6489 37.9018 18.1166 37.6069 18.5064C37.312 18.8962 36.9046 19.1902 36.4375 19.3503ZM16.4751 6.86343C17.9025 4.0625 23.4952 4.0625 26.5 4.0625C29.1825 4.0625 29.8816 5.20812 29.8998 5.23843C29.9905 5.41408 30.1427 5.55173 30.3285 5.62607C30.5143 5.70041 30.7212 5.70644 30.9111 5.64306C30.943 5.63193 34.1399 4.58144 35.852 6.26194C37.454 7.8338 36.9935 11.4496 36.5807 13.1666L35.3559 13.5276C35.1854 13.5781 35.0361 13.681 34.9299 13.8212C34.8237 13.9614 34.7664 14.1314 34.7663 14.306V14.6087C33.4069 14.139 31.1 13.079 30.616 11.1786C30.5772 11.0259 30.4939 10.8875 30.3764 10.7803C30.2589 10.6731 30.1122 10.6017 29.9541 10.5748C29.9073 10.5668 29.8599 10.5627 29.8125 10.5625C29.6761 10.5625 29.5419 10.5955 29.4217 10.6586C29.3015 10.7218 29.1991 10.813 29.1235 10.9243C28.01 12.3659 26.4299 13.3931 24.6427 13.8371C22.5316 14.2959 20.3803 14.5539 18.2187 14.6075V13.8125C18.2193 13.7059 18.1982 13.6002 18.1567 13.5016C18.1153 13.4031 18.0542 13.3136 17.9771 13.2385C17.9 13.1633 17.8085 13.1039 17.7078 13.0638C17.6071 13.0237 17.4993 13.0037 17.3906 13.0049V13C17.3767 13 17.3638 13.0039 17.3498 13.0041C17.3231 13.0054 17.2969 13.008 17.2703 13.0122C16.8088 13.0254 16.3529 13.1149 15.9218 13.2769C15.6756 11.7695 15.418 8.93693 16.4751 6.86343ZM14.9062 17.0625C14.9074 16.7149 14.9848 16.3717 15.1331 16.056C15.2815 15.7404 15.4974 15.4598 15.7661 15.2333L16.5625 14.959V19.3503C16.0795 19.1833 15.6609 18.8738 15.3644 18.4642C15.0678 18.0546 14.9078 17.5649 14.9062 17.0625ZM18.2187 20.3125V16.2344C20.516 16.1814 22.8024 15.9063 25.0447 15.4131C26.7579 14.9857 28.3223 14.1139 29.5739 12.8892C30.8602 14.9606 33.5517 15.9604 34.7812 16.3239V20.3125C34.7812 22.4674 33.9087 24.534 32.3557 26.0577C30.8027 27.5815 28.6963 28.4375 26.5 28.4375C24.3036 28.4375 22.1973 27.5815 20.6442 26.0577C19.0912 24.534 18.2187 22.4674 18.2187 20.3125ZM21.3392 29.25H22.3593V30.4656L16.3296 31.6112C16.931 30.8746 17.6934 30.28 18.5605 29.8713C19.4276 29.4626 20.3772 29.2503 21.3392 29.25ZM7.51338 38.7128C7.71125 37.57 8.25873 36.5132 9.08315 35.6829C9.90756 34.8526 10.9699 34.2879 12.1291 34.0639L13.4541 33.812C13.3199 34.3858 13.2515 34.9725 13.25 35.5612V35.8337C12.4018 35.996 11.6233 36.4055 11.0161 37.0088C10.4089 37.612 10.0012 38.3809 9.84638 39.215L9.06355 43.4394C8.99853 43.7907 9.01294 44.1516 9.10576 44.4968C9.19858 44.842 9.36755 45.163 9.60073 45.437C9.8339 45.7111 10.1256 45.9315 10.4552 46.0828C10.7847 46.2341 11.1442 46.3125 11.508 46.3125H12.4218V44.6875H11.508C11.3867 44.6875 11.2669 44.6614 11.1571 44.6109C11.0472 44.5605 10.95 44.487 10.8723 44.3957C10.7945 44.3043 10.7382 44.1973 10.7073 44.0823C10.6763 43.9672 10.6715 43.8469 10.6932 43.7298L11.476 39.5055C11.5869 38.9076 11.9081 38.367 12.3836 37.9777C12.8591 37.5884 13.4588 37.3751 14.0781 37.3751C14.6974 37.3751 15.2971 37.5884 15.7726 37.9777C16.2481 38.367 16.5693 38.9076 16.6801 39.5055L17.463 43.7298C17.4846 43.8469 17.4798 43.9672 17.4489 44.0823C17.418 44.1973 17.3616 44.3043 17.2839 44.3957C17.2062 44.487 17.109 44.5605 16.9991 44.6109C16.8893 44.6614 16.7695 44.6875 16.6482 44.6875H15.7343V46.3125H16.6482C17.012 46.3125 17.3714 46.2341 17.701 46.0828C18.0306 45.9315 18.3222 45.7111 18.5554 45.437C18.7886 45.1629 18.9575 44.842 19.0504 44.4968C19.1432 44.1516 19.1576 43.7907 19.0926 43.4394L18.3098 39.215C18.155 38.3809 17.7473 37.612 17.1401 37.0088C16.5329 36.4055 15.7544 35.996 14.9062 35.8337V35.5612C14.9078 34.8469 15.0339 34.1382 15.2789 33.4657L19.2005 32.7208L21.7352 47.9375H5.94649L7.51338 38.7128ZM31.2648 47.9375L33.7998 32.7208L37.7215 33.4657C37.9665 34.1383 38.0925 34.847 38.0941 35.5612V38.3029C37.3135 38.5006 36.6332 38.9709 36.1807 39.6256C35.7282 40.2803 35.5346 41.0745 35.6362 41.8592C35.7378 42.6439 36.1276 43.3653 36.7325 43.8883C37.3375 44.4112 38.116 44.6997 38.9223 44.6997C39.7285 44.6997 40.5071 44.4112 41.112 43.8883C41.717 43.3653 42.1068 42.6439 42.2084 41.8592C42.31 41.0745 42.1163 40.2803 41.6639 39.6256C41.2114 38.9709 40.531 38.5006 39.7504 38.3029V35.5612C39.7487 34.9726 39.6801 34.386 39.5459 33.8123L40.8709 34.0641C42.0302 34.2881 43.0926 34.8527 43.9171 35.683C44.7416 36.5134 45.2892 37.5702 45.4871 38.713L47.0535 47.9375H31.2648ZM38.9218 39.8125C39.2494 39.8125 39.5696 39.9078 39.842 40.0864C40.1144 40.2649 40.3267 40.5187 40.452 40.8156C40.5774 41.1126 40.6102 41.4393 40.5463 41.7545C40.4824 42.0697 40.3246 42.3593 40.093 42.5865C39.8614 42.8138 39.5662 42.9686 39.245 43.0313C38.9237 43.094 38.5907 43.0618 38.288 42.9388C37.9854 42.8158 37.7267 42.6075 37.5447 42.3403C37.3627 42.0731 37.2656 41.7589 37.2656 41.4375C37.2661 41.0067 37.4408 40.5936 37.7513 40.289C38.0618 39.9844 38.4827 39.813 38.9218 39.8125Z" fill="black"/>
</svg>
