<svg width="36" height="34" viewBox="0 0 36 34" fill="none" xmlns="http://www.w3.org/2000/svg">
<path fill-rule="evenodd" clip-rule="evenodd" d="M18.4225 0.276431C17.9916 -0.0921436 17.387 -0.0921436 16.9561 0.276431L0 14.7574L1.46639 16.7886L3.54 15.018V31.0154C3.54266 32.4416 4.59771 33.5971 5.9 33.6H29.5C30.8024 33.5974 31.8576 32.4417 31.86 31.0154V15.0295L33.9336 16.8L35.4 14.7688L18.4225 0.276431ZM5.9 13.0026L16.52 3.9416V13.4579L20.6004 17.9267L12.6538 24.1433L15.7905 31.0154H5.9V13.0026ZM18.4295 31.0155H29.5V13.0159L18.88 3.94395V12.388L24.2396 18.2577L15.6661 24.9641L18.4295 31.0155Z" fill="white"/>
</svg>
