<svg width="56" height="56" viewBox="0 0 56 56" fill="none" xmlns="http://www.w3.org/2000/svg">
<circle cx="28" cy="28" r="26" fill="#012F48" stroke="#F9FBFC" stroke-width="4"/>
<path fill-rule="evenodd" clip-rule="evenodd" d="M32.4364 17C31.794 17 31.2633 17.2738 30.7611 17.6641C30.2852 18.0339 29.7569 18.5722 29.1233 19.2176L23.657 24.7856C23.2372 25.2125 22.9053 25.55 22.7017 25.9814C22.4982 26.4128 22.4468 26.8877 22.3818 27.4882L22.3641 27.6505C22.2425 28.7651 22.1422 29.6839 22.1652 30.4076C22.1892 31.1645 22.3498 31.8578 22.8817 32.3997C23.4137 32.9415 24.0943 33.1051 24.8374 33.1295C25.5479 33.1529 26.4498 33.0508 27.5441 32.9269L27.7035 32.9089C28.293 32.8427 28.7592 32.7903 29.1827 32.583C29.6062 32.3757 29.9376 32.0376 30.3567 31.61L35.8229 26.042C36.4566 25.3965 36.9849 24.8584 37.348 24.3736C37.7312 23.862 38 23.3215 38 22.6671C38 22.0128 37.7312 21.4722 37.348 20.9606C36.9849 20.4759 36.4566 19.9377 35.8229 19.2923L35.7496 19.2176C35.116 18.5722 34.5876 18.034 34.1118 17.6641C33.6095 17.2738 33.0788 17 32.4364 17ZM35.256 24.4617L30.6746 19.795C31.0792 19.389 31.3921 19.0904 31.6685 18.8756C32.0377 18.5887 32.2526 18.5239 32.4364 18.5239C32.6202 18.5239 32.8351 18.5887 33.2043 18.8756C33.5908 19.176 34.0486 19.64 34.7284 20.3325C35.4082 21.025 35.8638 21.4913 36.1586 21.8849C36.4403 22.261 36.504 22.4799 36.504 22.6671C36.504 22.8544 36.4403 23.0732 36.1586 23.4493C35.9478 23.7309 35.6546 24.0496 35.256 24.4617ZM29.6155 20.8713L34.1995 25.5405L29.3709 30.459C28.8449 30.9948 28.6995 31.1289 28.5347 31.2096C28.3698 31.2903 28.1763 31.3221 27.4369 31.4058C26.27 31.5379 25.4758 31.6259 24.8857 31.6065C24.3156 31.5877 24.0855 31.4708 23.9396 31.3221C23.7937 31.1735 23.6788 30.9391 23.6604 30.3584C23.6414 29.7573 23.7278 28.9483 23.8574 27.7597C23.9396 27.0066 23.9709 26.8094 24.0501 26.6415C24.1293 26.4736 24.2609 26.3255 24.7869 25.7897L29.6155 20.8713Z" fill="white"/>
<path d="M24.7383 19.7211C25.1514 19.716 25.4823 19.3708 25.4773 18.95C25.4724 18.5293 25.1335 18.1923 24.7204 18.1973C22.3003 18.2269 20.6392 18.3617 19.3639 19.3055C18.8771 19.6658 18.4489 20.102 18.0952 20.5979C17.511 21.417 17.2493 22.3764 17.1234 23.5605C17 24.7208 17 26.1833 17 28.049V28.1409C17 30.0067 17 31.4692 17.1234 32.6295C17.2493 33.8135 17.511 34.7729 18.0952 35.5921C18.4489 36.088 18.8771 36.5241 19.3639 36.8844C20.1681 37.4795 21.11 37.746 22.2724 37.8743C23.4115 38 24.8472 38 26.6788 38H26.7692C28.6008 38 30.0366 38 31.1757 37.8743C32.3381 37.746 33.28 37.4795 34.0842 36.8844C34.571 36.5241 34.9991 36.088 35.3529 35.5921C36.2794 34.293 36.4118 32.601 36.4408 30.1359C36.4458 29.7151 36.1149 29.3699 35.7019 29.3649C35.2888 29.3599 34.9499 29.6969 34.9449 30.1176C34.915 32.6582 34.7471 33.8488 34.1426 34.6964C33.8811 35.0629 33.5647 35.3853 33.2048 35.6516C32.6982 36.0265 32.0497 36.2451 31.0145 36.3593C29.9654 36.4751 28.6106 36.4761 26.724 36.4761C24.8375 36.4761 23.4827 36.4751 22.4335 36.3593C21.3984 36.2451 20.7499 36.0265 20.2433 35.6516C19.8834 35.3853 19.567 35.0629 19.3055 34.6964C18.9374 34.1803 18.7229 33.5197 18.6107 32.4653C18.497 31.3967 18.496 30.0166 18.496 28.095C18.496 26.1733 18.497 24.7933 18.6107 23.7246C18.7229 22.6702 18.9374 22.0096 19.3055 21.4936C19.567 21.127 19.8834 20.8047 20.2433 20.5384C21.0754 19.9225 22.2442 19.7515 24.7383 19.7211Z" fill="white"/>
</svg>
