<svg width="62" height="63" viewBox="0 0 62 63" fill="none" xmlns="http://www.w3.org/2000/svg">
<path d="M47.0812 40.3005L35.8438 37.6131V35.3097L37.7812 34.4238C38.6432 34.0415 39.3769 33.4126 39.893 32.6138C40.4091 31.815 40.6851 30.8808 40.6875 29.9252V29.5314H41.6562C42.427 29.5314 43.1662 29.2203 43.7113 28.6665C44.2563 28.1127 44.5625 27.3615 44.5625 26.5783V24.6096C44.5582 23.8811 44.2891 23.1799 43.8069 22.6408C44.2891 22.1017 44.5582 21.4005 44.5625 20.6721C44.5608 20.0628 44.3737 19.4689 44.0268 18.972C43.68 18.475 43.1903 18.0992 42.625 17.8961V17.7189C42.6225 15.2321 41.8476 12.8094 40.4108 10.7962C38.9741 8.78304 36.9486 7.28197 34.6231 6.5069C34.3443 5.75983 33.8483 5.11664 33.2012 4.66277C32.554 4.2089 31.7863 3.96582 31 3.96582C30.2137 3.96582 29.446 4.2089 28.7988 4.66277C28.1517 5.11664 27.6557 5.75983 27.3769 6.5069C25.0514 7.28197 23.0259 8.78304 21.5892 10.7962C20.1524 12.8094 19.3775 15.2321 19.375 17.7189V17.8961C18.8097 18.0992 18.32 18.475 17.9732 18.972C17.6263 19.4689 17.4392 20.0628 17.4375 20.6721C17.4418 21.4005 17.7109 22.1017 18.1931 22.6408C17.7109 23.1799 17.4418 23.8811 17.4375 24.6096V26.5783C17.4375 27.3615 17.7437 28.1127 18.2887 28.6665C18.8337 29.2203 19.573 29.5314 20.3438 29.5314H21.3125V29.9252C21.3092 30.8858 21.5826 31.8264 22.099 32.631C22.6155 33.4356 23.3523 34.0691 24.2188 34.4533L26.1562 35.3392V37.6427L14.9187 40.3005C13.431 40.6554 12.1048 41.5106 11.1553 42.7274C10.2057 43.9442 9.68852 45.4512 9.6875 47.0041V56.1096C9.6875 56.8928 9.99369 57.6439 10.5387 58.1977C11.0837 58.7515 11.823 59.0627 12.5938 59.0627H49.4062C50.177 59.0627 50.9162 58.7515 51.4613 58.1977C52.0063 57.6439 52.3125 56.8928 52.3125 56.1096V47.0041C52.3115 45.4512 51.7943 43.9442 50.8447 42.7274C49.8952 41.5106 48.569 40.6554 47.0812 40.3005ZM26.7375 39.4933L29.6922 43.2438L27.8031 45.2125C27.7131 45.3048 27.6059 45.378 27.4879 45.428C27.3698 45.478 27.2432 45.5037 27.1153 45.5037C26.9874 45.5037 26.8608 45.478 26.7428 45.428C26.6247 45.378 26.5176 45.3048 26.4275 45.2125L21.9713 40.6844L26.7375 39.4933ZM35.2431 39.4933L40.0094 40.6352L35.5531 45.1633C35.4631 45.2556 35.3559 45.3288 35.2379 45.3788C35.1198 45.4287 34.9932 45.4545 34.8653 45.4545C34.7374 45.4545 34.6108 45.4287 34.4928 45.3788C34.3747 45.3288 34.2676 45.2556 34.1775 45.1633L32.2884 43.1946L35.2431 39.4933ZM42.625 26.5783C42.625 26.8394 42.5229 27.0898 42.3413 27.2744C42.1596 27.459 41.9132 27.5627 41.6562 27.5627H40.6875V23.6252H41.6562C41.9132 23.6252 42.1596 23.7289 42.3413 23.9135C42.5229 24.0981 42.625 24.3485 42.625 24.6096V26.5783ZM40.6875 17.7189H34.7491L35.6112 16.3999C35.9033 15.9552 36.071 15.4383 36.0966 14.9044C36.1222 14.3704 36.0047 13.8394 35.7566 13.368C35.5403 12.976 35.2387 12.6393 34.875 12.3836V8.70205C36.6018 9.46785 38.0714 10.7287 39.1038 12.3302C40.1362 13.9318 40.6865 15.8044 40.6875 17.7189ZM27.9969 15.3072C27.9118 15.1576 27.8671 14.9878 27.8671 14.815C27.8671 14.6422 27.9118 14.4725 27.9969 14.3228C28.0792 14.1656 28.202 14.0341 28.3522 13.9422C28.5023 13.8504 28.6741 13.8016 28.8494 13.8011H33.2281C33.4034 13.8016 33.5752 13.8504 33.7253 13.9422C33.8755 14.0341 33.9983 14.1656 34.0806 14.3228C34.1657 14.4725 34.2104 14.6422 34.2104 14.815C34.2104 14.9878 34.1657 15.1576 34.0806 15.3072L32.4144 17.7189H29.5856L27.9969 15.3072ZM31 5.90643C31.5139 5.90643 32.0067 6.11385 32.37 6.48306C32.7334 6.85227 32.9375 7.35303 32.9375 7.87518V11.8127H29.0625V7.87518C29.0625 7.35303 29.2666 6.85227 29.63 6.48306C29.9933 6.11385 30.4861 5.90643 31 5.90643ZM27.125 8.70205V12.3639C26.7613 12.6196 26.4597 12.9563 26.2434 13.3483C25.9953 13.8197 25.8778 14.3507 25.9034 14.8847C25.929 15.4186 26.0967 15.9355 26.3888 16.3802L27.2509 17.7189H21.3125C21.3135 15.8044 21.8638 13.9318 22.8962 12.3302C23.9286 10.7287 25.3982 9.46785 27.125 8.70205ZM20.3438 19.6877H41.6562C41.9132 19.6877 42.1596 19.7914 42.3413 19.976C42.5229 20.1606 42.625 20.411 42.625 20.6721C42.625 20.9331 42.5229 21.1835 42.3413 21.3681C42.1596 21.5527 41.9132 21.6564 41.6562 21.6564H20.3438C20.0868 21.6564 19.8404 21.5527 19.6587 21.3681C19.4771 21.1835 19.375 20.9331 19.375 20.6721C19.375 20.411 19.4771 20.1606 19.6587 19.976C19.8404 19.7914 20.0868 19.6877 20.3438 19.6877ZM20.3438 27.5627C20.0868 27.5627 19.8404 27.459 19.6587 27.2744C19.4771 27.0898 19.375 26.8394 19.375 26.5783V24.6096C19.375 24.3485 19.4771 24.0981 19.6587 23.9135C19.8404 23.7289 20.0868 23.6252 20.3438 23.6252H21.3125V27.5627H20.3438ZM23.25 29.9252V23.6252H38.75V29.9252C38.7499 30.496 38.5869 31.0546 38.2809 31.5332C37.9748 32.0119 37.5388 32.3902 37.0256 32.6224L34.5069 33.7642L32.2013 34.7486C31.8292 34.9169 31.4266 35.0038 31.0194 35.0038C30.6122 35.0038 30.2095 34.9169 29.8375 34.7486L27.5319 33.7642L25.0131 32.6224C24.4927 32.3961 24.0486 32.0203 23.7353 31.5412C23.4221 31.0621 23.2534 30.5004 23.25 29.9252ZM29.0625 36.6091C29.6816 36.8886 30.3516 37.033 31.0291 37.033C31.7065 37.033 32.3765 36.8886 32.9956 36.6091L33.9644 36.1858V38.0463L31 41.7377L28.0938 38.0463V36.1858L29.0625 36.6091ZM11.625 56.1096V47.0041C11.6246 45.8935 11.9939 44.8155 12.6728 43.9452C13.3516 43.0748 14.3002 42.4634 15.3644 42.2102L19.7625 41.1667L25.0712 46.5513C25.6162 47.1043 26.3548 47.4149 27.125 47.4149C27.8952 47.4149 28.6338 47.1043 29.1788 46.5513L30.0312 45.685V57.0939H19.375V50.2033C19.375 49.9422 19.2729 49.6918 19.0913 49.5072C18.9096 49.3226 18.6632 49.2189 18.4062 49.2189C18.1493 49.2189 17.9029 49.3226 17.7212 49.5072C17.5396 49.6918 17.4375 49.9422 17.4375 50.2033V57.0939H12.5938C12.3368 57.0939 12.0904 56.9902 11.9087 56.8056C11.7271 56.621 11.625 56.3706 11.625 56.1096ZM50.375 56.1096C50.375 56.3706 50.2729 56.621 50.0913 56.8056C49.9096 56.9902 49.6632 57.0939 49.4062 57.0939H44.5625V50.2033C44.5625 49.9422 44.4604 49.6918 44.2788 49.5072C44.0971 49.3226 43.8507 49.2189 43.5938 49.2189C43.3368 49.2189 43.0904 49.3226 42.9087 49.5072C42.7271 49.6918 42.625 49.9422 42.625 50.2033V57.0939H31.9688V45.685L32.8213 46.5513C33.3662 47.1043 34.1048 47.4149 34.875 47.4149C35.6452 47.4149 36.3838 47.1043 36.9287 46.5513L42.2375 41.1667L46.6356 42.2102C47.6998 42.4634 48.6484 43.0748 49.3272 43.9452C50.0061 44.8155 50.3754 45.8935 50.375 47.0041V56.1096Z" fill="black"/>
</svg>
