<svg width="37" height="38" viewBox="0 0 37 38" fill="none" xmlns="http://www.w3.org/2000/svg">
<path d="M13.8466 15.5426C14.8043 15.5426 15.589 14.7566 15.589 13.7903C15.589 13.6913 15.5601 13.5166 15.4274 13.2372C15.2659 13.3711 15.0812 13.4701 14.8792 13.54C14.5586 13.6501 14.2197 13.7613 13.968 13.4302C13.758 13.1538 13.9068 12.8559 13.9305 12.552C13.9649 12.1101 13.8881 11.6695 13.6966 11.2695C12.8543 12.1835 12.1042 13.2489 12.1042 13.7903C12.1042 14.7566 12.8889 15.5426 13.8466 15.5426Z" fill="#DF091A"/>
<path d="M13.8465 18.4534C16.7081 18.4534 19.0389 16.1015 19.0389 13.214C19.0389 10.3265 16.7081 7.97461 13.8465 7.97461C10.9849 7.97461 8.65405 10.3265 8.65405 13.214C8.65405 16.1015 10.9849 18.4534 13.8465 18.4534ZM13.4253 9.88407C13.5522 9.75601 13.7311 9.7036 13.9099 9.72691C14.083 9.75601 14.2388 9.86079 14.3253 10.018L14.6369 10.5768C14.8445 10.9552 14.983 11.3628 15.0523 11.7819C15.1388 11.6888 15.2542 11.6247 15.3869 11.6014C15.6061 11.5665 15.8253 11.6655 15.9465 11.8459C16.4831 12.6202 16.7427 13.2548 16.7427 13.7904C16.7427 15.3971 15.4446 16.707 13.8465 16.707C12.2483 16.707 10.9502 15.3971 10.9502 13.7904C10.9502 12.3932 12.8426 10.4488 13.4253 9.88407Z" fill="#DF091A"/>
<path d="M31.7313 5.64551H20.1927C19.874 5.64551 19.6157 5.90589 19.6157 6.22767V7.97414H32.3083V6.22767C32.3083 5.90589 32.0499 5.64551 31.7313 5.64551Z" fill="#DF091A"/>
<path d="M27.6929 11.4668H26.5391V12.6311H27.6929V11.4668Z" fill="#DF091A"/>
<path d="M20.7698 14.9602H24.8083C25.7603 14.9602 26.5391 15.7461 26.5391 16.7067V17.871C26.5391 18.8316 25.7603 19.6175 24.8083 19.6175V31.8428C24.8083 32.0465 24.7737 32.2445 24.7045 32.425H30.5777C30.895 32.425 31.1546 32.163 31.1546 31.8428V9.13867H20.7698V14.9602ZM23.0775 10.8851C23.0775 10.565 23.3371 10.303 23.6544 10.303H28.2699C28.5872 10.303 28.8469 10.565 28.8469 10.8851V13.2138C28.8469 13.534 28.5872 13.7959 28.2699 13.7959H23.6544C23.3371 13.7959 23.0775 13.534 23.0775 13.2138V10.8851Z" fill="#DF091A"/>
<path d="M25.3851 11.4668H24.2312V12.6311H25.3851V11.4668Z" fill="#DF091A"/>
<path d="M20.1927 26.6035H8.65405V27.7678H20.1927V26.6035Z" fill="#DF091A"/>
<path d="M20.1927 24.2744H8.65405V25.4387H20.1927V24.2744Z" fill="#DF091A"/>
<path d="M8.19253 16.124H4.0386C3.7213 16.124 3.46167 16.386 3.46167 16.7062V17.8705C3.46167 18.192 3.71996 18.4527 4.0386 18.4527H10.2003C9.35792 17.853 8.66563 17.0555 8.19253 16.124Z" fill="#DF091A"/>
<path d="M17.4927 18.4527H24.8082C25.1268 18.4527 25.3851 18.192 25.3851 17.8705V16.7062C25.3851 16.386 25.1255 16.124 24.8082 16.124H19.5004C19.0273 17.0555 18.335 17.853 17.4927 18.4527Z" fill="#DF091A"/>
<path d="M5.19238 31.8425C5.19238 32.1643 5.4507 32.4246 5.76932 32.4246H7.50012V21.3637C7.50012 21.0419 7.75844 20.7815 8.07705 20.7815H20.7696C21.0882 20.7815 21.3465 21.0419 21.3465 21.3637V32.4246H23.0773C23.3959 32.4246 23.6543 32.1643 23.6543 31.8425V19.6172H5.19238V31.8425Z" fill="#DF091A"/>
<path d="M20.1927 28.9316H8.65405V32.4246H20.1927V28.9316Z" fill="#DF091A"/>
<path d="M20.1927 21.9463H8.65405V23.1106H20.1927V21.9463Z" fill="#DF091A"/>
</svg>
