<svg width="65" height="80" viewBox="0 0 65 80" fill="none" xmlns="http://www.w3.org/2000/svg">
<g filter="url(#filter0_d_687_336)">
<path fill-rule="evenodd" clip-rule="evenodd" d="M60 27.5552C60 48.2093 32.5 71 32.5 71C32.5 71 5 48.2093 5 27.5552C5 12.8892 17.3122 1 32.5 1C47.6878 1 60 12.8892 60 27.5552Z" fill="url(#paint0_linear_687_336)" stroke="white" stroke-width="2" stroke-linecap="round" stroke-linejoin="round"/>
<path d="M26.9237 26.7037C27.8814 26.7037 28.6661 25.9178 28.6661 24.9514C28.6661 24.8525 28.6372 24.6778 28.5045 24.3984C28.343 24.5322 28.1584 24.6312 27.9563 24.7011C27.6358 24.8112 27.2969 24.9224 27.0452 24.5913C26.8351 24.315 26.9839 24.0171 27.0076 23.7131C27.042 23.2712 26.9652 22.8306 26.7737 22.4307C25.9314 23.3447 25.1814 24.41 25.1814 24.9514C25.1814 25.9178 25.9661 26.7037 26.9237 26.7037Z" fill="white"/>
<path d="M26.9236 29.6146C29.7852 29.6146 32.116 27.2626 32.116 24.3752C32.116 21.4877 29.7852 19.1357 26.9236 19.1357C24.062 19.1357 21.7312 21.4876 21.7312 24.3752C21.7312 27.2627 24.062 29.6146 26.9236 29.6146ZM26.5025 21.0452C26.6294 20.9171 26.8082 20.8647 26.9871 20.888C27.1601 20.9171 27.3159 21.0219 27.4025 21.1791L27.714 21.738C27.9217 22.1164 28.0602 22.5239 28.1294 22.943C28.2159 22.8499 28.3313 22.7858 28.464 22.7626C28.6832 22.7276 28.9025 22.8266 29.0237 23.0071C29.5602 23.7813 29.8198 24.4159 29.8198 24.9515C29.8198 26.5582 28.5217 27.8681 26.9236 27.8681C25.3255 27.8681 24.0274 26.5582 24.0274 24.9515C24.0274 23.5543 25.9197 21.6099 26.5025 21.0452Z" fill="white"/>
<path d="M44.8085 16.8066H33.2698C32.9512 16.8066 32.6929 17.067 32.6929 17.3888V19.1353H45.3854V17.3888C45.3854 17.067 45.1271 16.8066 44.8085 16.8066Z" fill="white"/>
<path d="M40.7701 22.6279H39.6162V23.7922H40.7701V22.6279Z" fill="white"/>
<path d="M33.8469 26.1214H37.8855C38.8374 26.1214 39.6163 26.9073 39.6163 27.8678V29.0322C39.6163 29.9927 38.8374 30.7786 37.8855 30.7786V43.0039C37.8855 43.2077 37.8508 43.4056 37.7816 43.5861H43.6548C43.9721 43.5861 44.2317 43.3241 44.2317 43.0039V20.2998H33.8469V26.1214ZM36.1547 22.0463C36.1547 21.7261 36.4143 21.4641 36.7316 21.4641H41.3471C41.6644 21.4641 41.924 21.7261 41.924 22.0463V24.3749C41.924 24.6951 41.6644 24.9571 41.3471 24.9571H36.7316C36.4143 24.9571 36.1547 24.6951 36.1547 24.3749V22.0463Z" fill="white"/>
<path d="M38.4622 22.6279H37.3083V23.7922H38.4622V22.6279Z" fill="white"/>
<path d="M33.2699 37.7646H21.7312V38.929H33.2699V37.7646Z" fill="white"/>
<path d="M33.2699 35.4355H21.7312V36.5999H33.2699V35.4355Z" fill="white"/>
<path d="M21.2697 27.2852H17.1158C16.7984 27.2852 16.5388 27.5471 16.5388 27.8673V29.0316C16.5388 29.3531 16.7971 29.6138 17.1158 29.6138H23.2774C22.4351 29.0141 21.7428 28.2166 21.2697 27.2852Z" fill="white"/>
<path d="M30.5698 29.6138H37.8853C38.204 29.6138 38.4623 29.3531 38.4623 29.0316V27.8673C38.4623 27.5471 38.2026 27.2852 37.8853 27.2852H32.5775C32.1045 28.2166 31.4122 29.0141 30.5698 29.6138Z" fill="white"/>
<path d="M18.2695 43.0036C18.2695 43.3254 18.5279 43.5858 18.8465 43.5858H20.5773V32.5248C20.5773 32.203 20.8356 31.9426 21.1542 31.9426H33.8467C34.1654 31.9426 34.4237 32.203 34.4237 32.5248V43.5858H36.1545C36.4731 43.5858 36.7314 43.3254 36.7314 43.0036V30.7783H18.2695V43.0036Z" fill="white"/>
<path d="M33.2699 40.0928H21.7312V43.5857H33.2699V40.0928Z" fill="white"/>
<path d="M33.2699 33.1074H21.7312V34.2717H33.2699V33.1074Z" fill="white"/>
</g>
<defs>
<filter id="filter0_d_687_336" x="0" y="0" width="65" height="80" filterUnits="userSpaceOnUse" color-interpolation-filters="sRGB">
<feFlood flood-opacity="0" result="BackgroundImageFix"/>
<feColorMatrix in="SourceAlpha" type="matrix" values="0 0 0 0 0 0 0 0 0 0 0 0 0 0 0 0 0 0 127 0" result="hardAlpha"/>
<feOffset dy="4"/>
<feGaussianBlur stdDeviation="2"/>
<feComposite in2="hardAlpha" operator="out"/>
<feColorMatrix type="matrix" values="0 0 0 0 0 0 0 0 0 0 0 0 0 0 0 0 0 0 0.25 0"/>
<feBlend mode="normal" in2="BackgroundImageFix" result="effect1_dropShadow_687_336"/>
<feBlend mode="normal" in="SourceGraphic" in2="effect1_dropShadow_687_336" result="shape"/>
</filter>
<linearGradient id="paint0_linear_687_336" x1="32.5" y1="1" x2="32.5" y2="71" gradientUnits="userSpaceOnUse">
<stop stop-color="#500202"/>
<stop offset="0.596154" stop-color="#AE0202"/>
</linearGradient>
</defs>
</svg>
