<svg width="50" height="48" viewBox="0 0 50 48" fill="none" xmlns="http://www.w3.org/2000/svg">
<ellipse cx="24.9153" cy="23.8787" rx="24.9153" ry="23.785" fill="#012F48"/>
<path d="M20.3849 20.9263C21.3426 20.9263 22.1273 20.2385 22.1273 19.3927C22.1273 19.3061 22.0984 19.1532 21.9657 18.9087C21.8042 19.0258 21.6196 19.1125 21.4175 19.1737C21.0969 19.27 20.7581 19.3673 20.5064 19.0775C20.2963 18.8357 20.4451 18.575 20.4688 18.3089C20.5032 17.9222 20.4264 17.5366 20.2349 17.1865C19.3926 17.9865 18.6426 18.9189 18.6426 19.3927C18.6426 20.2385 19.4272 20.9263 20.3849 20.9263Z" fill="white"/>
<path d="M20.3848 23.4739C23.2464 23.4739 25.5772 21.4154 25.5772 18.8883C25.5772 16.3612 23.2464 14.3027 20.3848 14.3027C17.5232 14.3027 15.1924 16.3611 15.1924 18.8883C15.1924 21.4155 17.5232 23.4739 20.3848 23.4739ZM19.9636 15.9739C20.0905 15.8618 20.2694 15.816 20.4482 15.8364C20.6213 15.8618 20.7771 15.9535 20.8637 16.0911L21.1752 16.5802C21.3829 16.9114 21.5213 17.2681 21.5906 17.6349C21.6771 17.5534 21.7925 17.4973 21.9252 17.477C22.1444 17.4464 22.3637 17.533 22.4848 17.6909C23.0214 18.3686 23.281 18.924 23.281 19.3927C23.281 20.799 21.9829 21.9454 20.3848 21.9454C18.7867 21.9454 17.4886 20.799 17.4886 19.3927C17.4886 18.1699 19.3809 16.4681 19.9636 15.9739Z" fill="white"/>
<path d="M38.2697 12.2646H26.731C26.4124 12.2646 26.1541 12.4925 26.1541 12.7742V14.3027H38.8466V12.7742C38.8466 12.4925 38.5883 12.2646 38.2697 12.2646Z" fill="white"/>
<path d="M34.2313 17.3594H33.0774V18.3784H34.2313V17.3594Z" fill="white"/>
<path d="M27.3081 20.4164H31.3466C32.2986 20.4164 33.0774 21.1042 33.0774 21.9449V22.9639C33.0774 23.8046 32.2986 24.4924 31.3466 24.4924V35.1921C31.3466 35.3704 31.312 35.5437 31.2428 35.7016H37.116C37.4333 35.7016 37.6929 35.4723 37.6929 35.1921V15.3213H27.3081V20.4164ZM29.6158 16.8498C29.6158 16.5696 29.8755 16.3403 30.1928 16.3403H34.8082C35.1256 16.3403 35.3852 16.5696 35.3852 16.8498V18.8878C35.3852 19.1681 35.1256 19.3974 34.8082 19.3974H30.1928C29.8755 19.3974 29.6158 19.1681 29.6158 18.8878V16.8498Z" fill="white"/>
<path d="M31.9234 17.3594H30.7695V18.3784H31.9234V17.3594Z" fill="white"/>
<path d="M26.7311 30.6074H15.1924V31.6264H26.7311V30.6074Z" fill="white"/>
<path d="M26.7311 28.5693H15.1924V29.5884H26.7311V28.5693Z" fill="white"/>
<path d="M14.7309 21.4355H10.5769C10.2596 21.4355 10 21.6648 10 21.9451V22.9641C10 23.2454 10.2583 23.4736 10.5769 23.4736H16.7386C15.8962 22.9488 15.204 22.2507 14.7309 21.4355Z" fill="white"/>
<path d="M24.031 23.4736H31.3465C31.6652 23.4736 31.9235 23.2454 31.9235 22.9641V21.9451C31.9235 21.6648 31.6638 21.4355 31.3465 21.4355H26.0387C25.5656 22.2507 24.8733 22.9488 24.031 23.4736Z" fill="white"/>
<path d="M11.7307 35.1928C11.7307 35.4745 11.989 35.7023 12.3076 35.7023H14.0384V26.0217C14.0384 25.7401 14.2968 25.5122 14.6154 25.5122H27.3079C27.6265 25.5122 27.8849 25.7401 27.8849 26.0217V35.7023H29.6157C29.9343 35.7023 30.1926 35.4745 30.1926 35.1928V24.4932H11.7307V35.1928Z" fill="white"/>
<path d="M26.7311 32.6445H15.1924V35.7016H26.7311V32.6445Z" fill="white"/>
<path d="M26.7311 26.5312H15.1924V27.5503H26.7311V26.5312Z" fill="white"/>
</svg>
