<svg width="30" height="44" viewBox="0 0 30 44" fill="none" xmlns="http://www.w3.org/2000/svg">
<path d="M7.36971 1C7.36971 1 10.9055 7.67191 4.22808 17.1493C-2.44932 26.6267 1.67769 40.3949 12.3082 43C12.3082 43 8.13483 40.8782 8.27394 33.6051C8.41306 26.332 12.7951 27.499 11.0098 21.6758C11.0098 21.6758 19.3218 24.5874 15.9831 31.0943C15.9831 31.0943 20.1797 28.9371 21.0723 25.8016C21.0723 25.8016 26.5325 32.391 17.3742 42.9882C17.3742 42.9882 35.0647 37.6248 26.7875 17.6798C26.7875 17.6798 24.4922 12.611 20.6086 10.7485C20.6086 10.7485 21.1766 15.7112 16.9801 18.5521C16.9801 18.5521 19.8435 5.56189 7.3813 1.01179L7.36971 1Z" stroke="white" stroke-width="2" stroke-linecap="round" stroke-linejoin="round"/>
</svg>
