<svg width="38" height="38" viewBox="0 0 38 38" fill="none" xmlns="http://www.w3.org/2000/svg">
<path d="M3.95817 30.0837C5.40476 30.0988 6.82882 29.7247 8.08117 29.0005C8.5063 28.7208 8.99328 28.5491 9.49984 28.5003C10.1044 28.5003 10.7925 28.8444 11.5208 29.2085C12.3812 29.6382 13.2711 30.0837 14.2498 30.0837C15.0638 30.0412 15.8495 29.7715 16.518 29.3051C17.2397 28.782 18.1083 28.5003 18.9996 28.5003C19.891 28.5003 20.7596 28.782 21.4813 29.3051C22.1499 29.7715 22.9358 30.0413 23.7498 30.0837C24.7286 30.0837 25.6184 29.6383 26.4789 29.2085C27.2072 28.8442 27.8953 28.5003 28.4998 28.5003C29.0064 28.5491 29.4934 28.7208 29.9185 29.0005C31.1709 29.7247 32.5949 30.0988 34.0415 30.0837C34.2515 30.0837 34.4528 30.0003 34.6013 29.8518C34.7498 29.7033 34.8332 29.502 34.8332 29.292C34.8332 29.082 34.7498 28.8807 34.6013 28.7322C34.4528 28.5837 34.2515 28.5003 34.0415 28.5003C32.85 28.5153 31.6773 28.2027 30.6514 27.5966C30.0033 27.1915 29.263 26.9576 28.4998 26.917C27.5211 26.917 26.6312 27.3623 25.7708 27.7921C25.0425 28.156 24.3544 28.5003 23.7498 28.5003C23.2172 28.4459 22.7087 28.2508 22.2763 27.9352C21.3123 27.272 20.1699 26.917 18.9998 26.917C17.8298 26.917 16.6873 27.272 15.7234 27.9352C15.291 28.2508 14.7824 28.4459 14.2498 28.5003C13.6453 28.5003 12.9572 28.1563 12.2289 27.7921C11.3684 27.3621 10.4786 26.917 9.49984 26.917C8.73667 26.9576 7.99634 27.1915 7.34829 27.5966C6.32238 28.2027 5.14966 28.5153 3.95817 28.5003C3.74821 28.5003 3.54684 28.5837 3.39838 28.7322C3.24991 28.8807 3.1665 29.082 3.1665 29.292C3.1665 29.502 3.24991 29.7033 3.39838 29.8518C3.54684 30.0003 3.74821 30.0837 3.95817 30.0837Z" fill="white"/>
<path d="M34.0415 32.4583C32.85 32.4733 31.6773 32.1607 30.6514 31.5546C30.0033 31.1495 29.263 30.9156 28.4998 30.875C27.5211 30.875 26.6312 31.3203 25.7708 31.7502C25.0425 32.114 24.3544 32.4583 23.7498 32.4583C23.2172 32.4039 22.7087 32.2088 22.2763 31.8932C21.3123 31.23 20.1699 30.875 18.9998 30.875C17.8298 30.875 16.6873 31.23 15.7234 31.8932C15.291 32.2088 14.7824 32.4039 14.2498 32.4583C13.6453 32.4583 12.9572 32.1143 12.2289 31.7502C11.3684 31.3201 10.4786 30.875 9.49984 30.875C8.73667 30.9156 7.99634 31.1495 7.34829 31.5546C6.32238 32.1607 5.14966 32.4733 3.95817 32.4583C3.74821 32.4583 3.54684 32.5417 3.39838 32.6902C3.24991 32.8387 3.1665 33.04 3.1665 33.25C3.1665 33.46 3.24991 33.6613 3.39838 33.8098C3.54684 33.9583 3.74821 34.0417 3.95817 34.0417C5.40476 34.0568 6.82882 33.6827 8.08117 32.9586C8.5063 32.6788 8.99328 32.5071 9.49984 32.4583C10.1044 32.4583 10.7925 32.8024 11.5208 33.1665C12.3812 33.5962 13.2711 34.0417 14.2498 34.0417C15.0638 33.9992 15.8495 33.7295 16.518 33.2631C17.2397 32.74 18.1083 32.4583 18.9996 32.4583C19.891 32.4583 20.7596 32.74 21.4813 33.2631C22.1499 33.7296 22.9358 33.9993 23.7498 34.0417C24.7286 34.0417 25.6184 33.5964 26.4789 33.1665C27.2072 32.8022 27.8953 32.4583 28.4998 32.4583C29.0064 32.5071 29.4934 32.6788 29.9185 32.9586C31.1709 33.6827 32.5949 34.0568 34.0415 34.0417C34.2515 34.0417 34.4528 33.9583 34.6013 33.8098C34.7498 33.6613 34.8332 33.46 34.8332 33.25C34.8332 33.04 34.7498 32.8387 34.6013 32.6902C34.4528 32.5417 34.2515 32.4583 34.0415 32.4583Z" fill="white"/>
<path d="M18.9997 24.5417C20.0915 24.5397 21.1712 24.7711 22.1663 25.2204V16.625H15.833V25.2202C16.8282 24.771 17.9078 24.5396 18.9997 24.5417Z" fill="white"/>
<path d="M9.49984 24.5419C11.0376 24.5419 12.2846 25.165 13.2865 25.6653C13.5618 25.8029 13.9445 25.9946 14.1833 26.0843C14.2043 26.0733 14.2286 26.0575 14.2498 26.0455V15.8336C14.2498 15.7296 14.2702 15.6266 14.31 15.5306C14.3497 15.4345 14.408 15.3472 14.4816 15.2737C14.5551 15.2001 14.6424 15.1418 14.7385 15.1021C14.8346 15.0623 14.9375 15.0419 15.0415 15.0419H22.9582C23.0622 15.0419 23.1651 15.0623 23.2612 15.1021C23.3573 15.1418 23.4446 15.2001 23.5181 15.2737C23.5916 15.3472 23.6499 15.4345 23.6897 15.5306C23.7295 15.6266 23.7499 15.7296 23.7498 15.8336V26.0445C23.7763 26.0595 23.8067 26.0791 23.8326 26.0926C24.0196 26.0122 24.4248 25.8096 24.7085 25.6674C25.7151 25.1648 26.9621 24.5419 28.4998 24.5419C29.0205 24.5459 29.5378 24.6246 30.036 24.7758C30.0637 24.7007 30.0796 24.6218 30.0832 24.5419V12.6669C30.0831 12.5456 30.0552 12.4259 30.0016 12.3171C29.948 12.2082 29.8701 12.1132 29.7739 12.0392L19.4823 4.1225C19.3438 4.01645 19.1743 3.95898 18.9999 3.95898C18.8254 3.95898 18.6559 4.01645 18.5174 4.1225L8.22577 12.0392C8.12961 12.1131 8.05171 12.2082 7.99809 12.3171C7.94447 12.4259 7.91656 12.5456 7.9165 12.6669V24.5419C7.91999 24.6219 7.9359 24.7008 7.96365 24.7759C8.46184 24.6246 8.9792 24.5458 9.49984 24.5419Z" fill="white"/>
</svg>
