<svg width="50" height="50" viewBox="0 0 50 50" fill="none" xmlns="http://www.w3.org/2000/svg">
<ellipse cx="24.9153" cy="25" rx="24.9153" ry="25" fill="#012F48"/>
<path d="M23.5952 30.6892C23.71 30.8829 23.8759 31.0439 24.076 31.1559C24.2761 31.2679 24.5033 31.3269 24.7346 31.3269C24.9659 31.3269 25.193 31.2679 25.3931 31.1559C25.5932 31.0439 25.7591 30.8829 25.874 30.6892L30.4233 22.9515C31.0355 21.9206 31.3542 20.7516 31.3469 19.5634C31.3397 18.3751 31.0068 17.2099 30.382 16.186C29.818 15.2193 28.9977 14.4148 28.0053 13.8549C27.0129 13.2951 25.8841 13 24.7346 13C23.5851 13 22.4562 13.2951 21.4638 13.8549C20.4714 14.4148 19.6512 15.2193 19.0871 16.186C18.4624 17.2099 18.1294 18.3751 18.1222 19.5634C18.1149 20.7516 18.4336 21.9206 19.0458 22.9515L23.5952 30.6892ZM20.5155 16.9829C20.9343 16.2576 21.5462 15.6535 22.2879 15.2329C23.0296 14.8123 23.8743 14.5906 24.7346 14.5906C25.5948 14.5906 26.4395 14.8123 27.1812 15.2329C27.923 15.6535 28.5348 16.2576 28.9536 16.9829C29.4263 17.7698 29.6752 18.6632 29.6752 19.5727C29.6752 20.4823 29.4263 21.3757 28.9536 22.1626L24.7346 29.3982L20.4825 22.1626C20.0148 21.3729 19.7716 20.478 19.7774 19.5684C19.7832 18.6589 20.0378 17.767 20.5155 16.9829Z" fill="white"/>
<path d="M23.0832 20.1709C23.3022 20.1709 23.5122 20.0869 23.667 19.9375C23.8219 19.7881 23.9089 19.5854 23.9089 19.374C23.9089 19.2164 23.9573 19.0624 24.048 18.9313C24.1387 18.8003 24.2677 18.6981 24.4186 18.6378C24.5694 18.5775 24.7354 18.5617 24.8956 18.5925C25.0558 18.6232 25.2029 18.6991 25.3183 18.8106C25.4338 18.922 25.5124 19.064 25.5443 19.2186C25.5762 19.3731 25.5598 19.5334 25.4973 19.679C25.4348 19.8246 25.329 19.949 25.1932 20.0366C25.0574 20.1242 24.8978 20.1709 24.7345 20.1709C24.5155 20.1709 24.3055 20.2549 24.1507 20.4043C23.9959 20.5537 23.9089 20.7564 23.9089 20.9678C23.9089 21.1791 23.9959 21.3818 24.1507 21.5313C24.3055 21.6807 24.5155 21.7647 24.7345 21.7647C25.2244 21.7647 25.7033 21.6244 26.1106 21.3618C26.518 21.0991 26.8354 20.7257 27.0229 20.2889C27.2104 19.8521 27.2594 19.3714 27.1639 18.9076C27.0683 18.4439 26.8324 18.0179 26.486 17.6836C26.1396 17.3493 25.6982 17.1216 25.2177 17.0293C24.7373 16.9371 24.2392 16.9844 23.7866 17.1654C23.334 17.3463 22.9472 17.6527 22.675 18.0459C22.4028 18.439 22.2576 18.9012 22.2576 19.374C22.2576 19.5854 22.3446 19.7881 22.4994 19.9375C22.6542 20.0869 22.8642 20.1709 23.0832 20.1709Z" fill="white"/>
<path d="M35.4019 33.3911L33.2965 26.801C33.2 26.4941 33.003 26.2256 32.735 26.036C32.4671 25.8463 32.1426 25.7456 31.8103 25.7491H30.514C30.295 25.7491 30.085 25.8331 29.9302 25.9825C29.7754 26.132 29.6884 26.3346 29.6884 26.546C29.6884 26.7573 29.7754 26.96 29.9302 27.1095C30.085 27.2589 30.295 27.3429 30.514 27.3429H31.7442L33.8166 33.7179L15.6523 33.7577L17.6917 27.3827H18.9549C19.1739 27.3827 19.3839 27.2987 19.5387 27.1493C19.6936 26.9999 19.7806 26.7972 19.7806 26.5858C19.7806 26.3745 19.6936 26.1718 19.5387 26.0224C19.3839 25.8729 19.1739 25.789 18.9549 25.789H17.6587C17.3264 25.7855 17.0019 25.8861 16.7339 26.0758C16.4659 26.2655 16.2689 26.5339 16.1725 26.8408L14.0671 33.3911C13.9971 33.6126 13.9816 33.8467 14.0218 34.0749C14.0619 34.3032 14.1566 34.5192 14.2983 34.706C14.447 34.8933 14.6381 35.0453 14.8571 35.1502C15.0761 35.2552 15.317 35.3104 15.5615 35.3116H33.9074C34.1528 35.3107 34.3947 35.2548 34.6139 35.1483C34.8331 35.0418 35.0237 34.8877 35.1707 34.698C35.3129 34.513 35.4079 34.2983 35.4481 34.0712C35.4882 33.8442 35.4724 33.6112 35.4019 33.3911Z" fill="white"/>
</svg>
