<svg width="38" height="38" viewBox="0 0 38 38" fill="none" xmlns="http://www.w3.org/2000/svg">
<rect width="38" height="38" rx="19" fill="#012F48"/>
<path d="M17.3722 15.8597C17.7991 14.579 19.4886 14.3048 20.2986 15.3848C20.7731 16.0174 20.74 16.8958 20.2193 17.4909L19.4532 18.3664C18.758 19.1609 18.3748 20.1807 18.3748 21.2365V21.5003C18.3748 21.8455 18.6547 22.1253 18.9998 22.1253C19.345 22.1253 19.6248 21.8455 19.6248 21.5003V21.2365C19.6248 20.4835 19.8981 19.7562 20.394 19.1895L21.16 18.3141C22.0697 17.2744 22.1275 15.7399 21.2986 14.6348C19.8836 12.7482 16.9321 13.2272 16.1863 15.4644L15.9069 16.3027C15.7978 16.6301 15.9747 16.9841 16.3022 17.0933C16.6297 17.2024 16.9836 17.0254 17.0928 16.698L17.3722 15.8597Z" fill="white"/>
<path fill-rule="evenodd" clip-rule="evenodd" d="M18.9998 10.042C14.0523 10.042 10.0415 14.0528 10.0415 19.0003C10.0415 23.9479 14.0523 27.9587 18.9998 27.9587C23.9474 27.9587 27.9582 23.9479 27.9582 19.0003C27.9582 14.0528 23.9474 10.042 18.9998 10.042ZM11.2915 19.0003C11.2915 14.7431 14.7426 11.292 18.9998 11.292C23.257 11.292 26.7082 14.7431 26.7082 19.0003C26.7082 23.2575 23.257 26.7087 18.9998 26.7087C14.7426 26.7087 11.2915 23.2575 11.2915 19.0003Z" fill="white"/>
<path d="M19.8332 24.0003C19.8332 24.4606 19.4601 24.8337 18.9998 24.8337C18.5396 24.8337 18.1665 24.4606 18.1665 24.0003C18.1665 23.5401 18.5396 23.167 18.9998 23.167C19.4601 23.167 19.8332 23.5401 19.8332 24.0003Z" fill="white"/>
</svg>
