<svg width="65" height="80" viewBox="0 0 65 80" fill="none" xmlns="http://www.w3.org/2000/svg">
<g filter="url(#filter0_d_687_439)">
<path fill-rule="evenodd" clip-rule="evenodd" d="M60 27.5552C60 48.2093 32.5 71 32.5 71C32.5 71 5 48.2093 5 27.5552C5 12.8892 17.3122 1 32.5 1C47.6878 1 60 12.8892 60 27.5552Z" fill="url(#paint0_linear_687_439)" stroke="white" stroke-width="2" stroke-linecap="round" stroke-linejoin="round"/>
<g clip-path="url(#clip0_687_439)">
<path d="M17.8723 31.4839V32.7541C17.8723 32.987 18.0862 33.1775 18.3477 33.1775H25.0033V31.0605H18.3477C18.0862 31.0605 17.8723 31.2511 17.8723 31.4839Z" fill="white"/>
<path d="M47.8223 31.0605H41.1667V33.1775H47.8223C48.0838 33.1775 48.2977 32.987 48.2977 32.7541V31.4839C48.2977 31.2511 48.0838 31.0605 47.8223 31.0605Z" fill="white"/>
<path d="M38.3145 33.1777H27.8557V34.0245H38.3145V33.1777Z" fill="white"/>
<path d="M29.2819 28.5205H27.8557V30.2141H29.2819V28.5205Z" fill="white"/>
<path d="M38.3144 28.5205H36.8882V30.2141H38.3144V28.5205Z" fill="white"/>
<path d="M22.6262 40.7988H20.7246V42.4924H22.6262V40.7988Z" fill="white"/>
<path d="M39.7407 22.5928H38.3145V25.1331C38.3145 25.8317 37.6727 26.4033 36.8883 26.4033H29.2819C28.4975 26.4033 27.8557 25.8317 27.8557 25.1331V22.5928H26.4295C26.1669 22.5928 25.9541 22.7823 25.9541 23.0162V45.0323H27.8557V38.6815H27.3803C27.1188 38.6815 26.9049 38.491 26.9049 38.2581V36.5645C26.9049 36.3317 27.1188 36.1412 27.3803 36.1412H38.7899C39.0513 36.1412 39.2653 36.3317 39.2653 36.5645V38.2581C39.2653 38.491 39.0513 38.6815 38.7899 38.6815H38.3145V45.0323H40.2161V23.0162C40.2161 22.7823 40.0032 22.5928 39.7407 22.5928ZM31.1835 28.0968C31.1835 27.8639 31.3974 27.6734 31.6589 27.6734H34.5113C34.7727 27.6734 34.9867 27.8639 34.9867 28.0968V30.6371C34.9867 30.87 34.7727 31.0605 34.5113 31.0605H31.6589C31.3974 31.0605 31.1835 30.87 31.1835 30.6371V28.0968ZM26.9049 28.0968C26.9049 27.8639 27.1188 27.6734 27.3803 27.6734H29.7573C30.0188 27.6734 30.2327 27.8639 30.2327 28.0968V30.6371C30.2327 30.87 30.0188 31.0605 29.7573 31.0605H27.3803C27.1188 31.0605 26.9049 30.87 26.9049 30.6371V28.0968ZM39.2653 34.4476C39.2653 34.6805 39.0513 34.871 38.7899 34.871H27.3803C27.1188 34.871 26.9049 34.6805 26.9049 34.4476V32.7541C26.9049 32.5212 27.1188 32.3307 27.3803 32.3307H38.7899C39.0513 32.3307 39.2653 32.5212 39.2653 32.7541V34.4476ZM39.2653 30.6371C39.2653 30.87 39.0513 31.0605 38.7899 31.0605H36.4129C36.1514 31.0605 35.9375 30.87 35.9375 30.6371V28.0968C35.9375 27.8639 36.1514 27.6734 36.4129 27.6734H38.7899C39.0513 27.6734 39.2653 27.8639 39.2653 28.0968V30.6371Z" fill="white"/>
<path d="M32.6098 22.5931V23.4398H33.5606V22.5931C33.5606 22.3592 33.7735 22.1697 34.036 22.1697H34.9868V21.3229H34.036C33.7735 21.3229 33.5606 21.1333 33.5606 20.8995V20.0527H32.6098V20.8995C32.6098 21.1333 32.3969 21.3229 32.1344 21.3229H31.1836V22.1697H32.1344C32.3969 22.1697 32.6098 22.3592 32.6098 22.5931Z" fill="white"/>
<path d="M29.2818 25.5565H36.8882C37.1496 25.5565 37.3636 25.366 37.3636 25.1331V18.3589C37.3636 18.1261 37.1496 17.9355 36.8882 17.9355H29.2818C29.0203 17.9355 28.8064 18.1261 28.8064 18.3589V25.1331C28.8064 25.366 29.0203 25.5565 29.2818 25.5565ZM30.2326 20.8993C30.2326 20.6654 30.4455 20.4759 30.708 20.4759H31.6588V19.6291C31.6588 19.3953 31.8717 19.2057 32.1342 19.2057H34.0358C34.2983 19.2057 34.5112 19.3953 34.5112 19.6291V20.4759H35.462C35.7245 20.4759 35.9374 20.6654 35.9374 20.8993V22.5928C35.9374 22.8266 35.7245 23.0162 35.462 23.0162H34.5112V23.863C34.5112 24.0968 34.2983 24.2864 34.0358 24.2864H32.1342C31.8717 24.2864 31.6588 24.0968 31.6588 23.863V23.0162H30.708C30.4455 23.0162 30.2326 22.8266 30.2326 22.5928V20.8993Z" fill="white"/>
<path d="M34.0359 28.5205H32.1343V30.2141H34.0359V28.5205Z" fill="white"/>
<path d="M28.8064 45.0324H32.6096V38.6816H28.8064V45.0324ZM30.708 41.222C30.708 40.9891 30.9219 40.7986 31.1834 40.7986C31.4449 40.7986 31.6588 40.9891 31.6588 41.222V42.0687C31.6588 42.3016 31.4449 42.4921 31.1834 42.4921C30.9219 42.4921 30.708 42.3016 30.708 42.0687V41.222Z" fill="white"/>
<path d="M38.3145 36.9883H27.8557V37.8351H28.3311H37.8391H38.3145V36.9883Z" fill="white"/>
<path d="M33.5605 45.0324H37.3637V38.6816H33.5605V45.0324ZM34.5113 41.222C34.5113 40.9891 34.7253 40.7986 34.9867 40.7986C35.2482 40.7986 35.4621 40.9891 35.4621 41.222V42.0687C35.4621 42.3016 35.2482 42.4921 34.9867 42.4921C34.7253 42.4921 34.5113 42.3016 34.5113 42.0687V41.222Z" fill="white"/>
<path d="M45.4455 36.5645H43.5439V38.258H45.4455V36.5645Z" fill="white"/>
<path d="M18.3477 44.6091C18.3477 44.8419 18.5616 45.0325 18.8231 45.0325H25.0032V34.0244H18.3477V44.6091ZM19.7739 36.1413C19.7739 35.9085 19.9878 35.718 20.2493 35.718H23.1016C23.3631 35.718 23.577 35.9085 23.577 36.1413V38.6817C23.577 38.9145 23.3631 39.1051 23.1016 39.1051H20.2493C19.9878 39.1051 19.7739 38.9145 19.7739 38.6817V36.1413ZM19.7739 40.3752C19.7739 40.1424 19.9878 39.9518 20.2493 39.9518H23.1016C23.3631 39.9518 23.577 40.1424 23.577 40.3752V42.9155C23.577 43.1484 23.3631 43.3389 23.1016 43.3389H20.2493C19.9878 43.3389 19.7739 43.1484 19.7739 42.9155V40.3752Z" fill="white"/>
<path d="M22.6262 36.5645H20.7246V38.258H22.6262V36.5645Z" fill="white"/>
<path d="M41.1667 45.0325H47.3469C47.6084 45.0325 47.8223 44.8419 47.8223 44.6091V34.0244H41.1667V45.0325ZM42.5929 36.1413C42.5929 35.9085 42.8069 35.718 43.0683 35.718H45.9207C46.1822 35.718 46.3961 35.9085 46.3961 36.1413V38.6817C46.3961 38.9145 46.1822 39.1051 45.9207 39.1051H43.0683C42.8069 39.1051 42.5929 38.9145 42.5929 38.6817V36.1413ZM42.5929 40.3752C42.5929 40.1424 42.8069 39.9518 43.0683 39.9518H45.9207C46.1822 39.9518 46.3961 40.1424 46.3961 40.3752V42.9155C46.3961 43.1484 46.1822 43.3389 45.9207 43.3389H43.0683C42.8069 43.3389 42.5929 43.1484 42.5929 42.9155V40.3752Z" fill="white"/>
<path d="M45.4455 40.7988H43.5439V42.4924H45.4455V40.7988Z" fill="white"/>
</g>
</g>
<defs>
<filter id="filter0_d_687_439" x="0" y="0" width="65" height="80" filterUnits="userSpaceOnUse" color-interpolation-filters="sRGB">
<feFlood flood-opacity="0" result="BackgroundImageFix"/>
<feColorMatrix in="SourceAlpha" type="matrix" values="0 0 0 0 0 0 0 0 0 0 0 0 0 0 0 0 0 0 127 0" result="hardAlpha"/>
<feOffset dy="4"/>
<feGaussianBlur stdDeviation="2"/>
<feComposite in2="hardAlpha" operator="out"/>
<feColorMatrix type="matrix" values="0 0 0 0 0 0 0 0 0 0 0 0 0 0 0 0 0 0 0.25 0"/>
<feBlend mode="normal" in2="BackgroundImageFix" result="effect1_dropShadow_687_439"/>
<feBlend mode="normal" in="SourceGraphic" in2="effect1_dropShadow_687_439" result="shape"/>
</filter>
<linearGradient id="paint0_linear_687_439" x1="32.5" y1="1" x2="32.5" y2="71" gradientUnits="userSpaceOnUse">
<stop offset="0.307692" stop-color="#024801"/>
<stop offset="1" stop-color="#04FF00"/>
</linearGradient>
<clipPath id="clip0_687_439">
<rect width="30.4255" height="27.0968" fill="white" transform="translate(17.8723 17.9355)"/>
</clipPath>
</defs>
</svg>
