<svg width="31" height="28" viewBox="0 0 31 28" fill="none" xmlns="http://www.w3.org/2000/svg">
<g clip-path="url(#clip0_687_1014)">
<path d="M0 13.5484V14.8185C0 15.0514 0.213935 15.2419 0.475399 15.2419H7.13098V13.125H0.475399C0.213935 13.125 0 13.3155 0 13.5484Z" fill="#038C01"/>
<path d="M29.95 13.125H23.2944V15.2419H29.95C30.2115 15.2419 30.4254 15.0514 30.4254 14.8185V13.5484C30.4254 13.3155 30.2115 13.125 29.95 13.125Z" fill="#038C01"/>
<path d="M20.4422 15.2422H9.9834V16.089H20.4422V15.2422Z" fill="#038C01"/>
<path d="M11.4096 10.585H9.9834V12.2785H11.4096V10.585Z" fill="#038C01"/>
<path d="M20.4421 10.585H19.0159V12.2785H20.4421V10.585Z" fill="#038C01"/>
<path d="M4.75389 22.8633H2.85229V24.5568H4.75389V22.8633Z" fill="#038C01"/>
<path d="M21.8684 4.65723H20.4422V7.19755C20.4422 7.89615 19.8004 8.46771 19.016 8.46771H11.4096C10.6252 8.46771 9.98338 7.89615 9.98338 7.19755V4.65723H8.55719C8.29462 4.65723 8.08179 4.84677 8.08179 5.08061V27.0967H9.98338V20.7459H9.50798C9.24652 20.7459 9.03258 20.5554 9.03258 20.3225V18.629C9.03258 18.3961 9.24652 18.2056 9.50798 18.2056H20.9176C21.179 18.2056 21.393 18.3961 21.393 18.629V20.3225C21.393 20.5554 21.179 20.7459 20.9176 20.7459H20.4422V27.0967H22.3438V5.08061C22.3438 4.84677 22.1309 4.65723 21.8684 4.65723ZM13.3112 10.1613C13.3112 9.9284 13.5251 9.73787 13.7866 9.73787H16.639C16.9004 9.73787 17.1144 9.9284 17.1144 10.1613V12.7016C17.1144 12.9344 16.9004 13.125 16.639 13.125H13.7866C13.5251 13.125 13.3112 12.9344 13.3112 12.7016V10.1613ZM9.03258 10.1613C9.03258 9.9284 9.24652 9.73787 9.50798 9.73787H11.885C12.1464 9.73787 12.3604 9.9284 12.3604 10.1613V12.7016C12.3604 12.9344 12.1464 13.125 11.885 13.125H9.50798C9.24652 13.125 9.03258 12.9344 9.03258 12.7016V10.1613ZM21.393 16.5121C21.393 16.7449 21.179 16.9355 20.9176 16.9355H9.50798C9.24652 16.9355 9.03258 16.7449 9.03258 16.5121V14.8185C9.03258 14.5857 9.24652 14.3951 9.50798 14.3951H20.9176C21.179 14.3951 21.393 14.5857 21.393 14.8185V16.5121ZM21.393 12.7016C21.393 12.9344 21.179 13.125 20.9176 13.125H18.5406C18.2791 13.125 18.0652 12.9344 18.0652 12.7016V10.1613C18.0652 9.9284 18.2791 9.73787 18.5406 9.73787H20.9176C21.179 9.73787 21.393 9.9284 21.393 10.1613V12.7016Z" fill="#038C01"/>
<path d="M14.7375 4.65751V5.50428H15.6883V4.65751C15.6883 4.4237 15.9011 4.23412 16.1637 4.23412H17.1145V3.38735H16.1637C15.9011 3.38735 15.6883 3.19778 15.6883 2.96396V2.11719H14.7375V2.96396C14.7375 3.19778 14.5246 3.38735 14.2621 3.38735H13.3113V4.23412H14.2621C14.5246 4.23412 14.7375 4.4237 14.7375 4.65751Z" fill="#038C01"/>
<path d="M11.4095 7.62097H19.0159C19.2773 7.62097 19.4913 7.43044 19.4913 7.19758V0.423387C19.4913 0.190529 19.2773 0 19.0159 0H11.4095C11.148 0 10.9341 0.190529 10.9341 0.423387V7.19758C10.9341 7.43044 11.148 7.62097 11.4095 7.62097ZM12.3603 2.96371C12.3603 2.7299 12.5731 2.54032 12.8357 2.54032H13.7865V1.69355C13.7865 1.45973 13.9993 1.27016 14.2619 1.27016H16.1635C16.426 1.27016 16.6389 1.45973 16.6389 1.69355V2.54032H17.5897C17.8522 2.54032 18.0651 2.7299 18.0651 2.96371V4.65726C18.0651 4.89107 17.8522 5.08065 17.5897 5.08065H16.6389V5.92742C16.6389 6.16123 16.426 6.35081 16.1635 6.35081H14.2619C13.9993 6.35081 13.7865 6.16123 13.7865 5.92742V5.08065H12.8357C12.5731 5.08065 12.3603 4.89107 12.3603 4.65726V2.96371Z" fill="#038C01"/>
<path d="M16.1636 10.585H14.262V12.2785H16.1636V10.585Z" fill="#038C01"/>
<path d="M10.9341 27.0969H14.7373V20.7461H10.9341V27.0969ZM12.8357 23.2864C12.8357 23.0536 13.0496 22.863 13.3111 22.863C13.5725 22.863 13.7865 23.0536 13.7865 23.2864V24.1332C13.7865 24.366 13.5725 24.5566 13.3111 24.5566C13.0496 24.5566 12.8357 24.366 12.8357 24.1332V23.2864Z" fill="#038C01"/>
<path d="M20.4422 19.0527H9.9834V19.8995H10.4588H19.9668H20.4422V19.0527Z" fill="#038C01"/>
<path d="M15.6882 27.0969H19.4914V20.7461H15.6882V27.0969ZM16.639 23.2864C16.639 23.0536 16.853 22.863 17.1144 22.863C17.3759 22.863 17.5898 23.0536 17.5898 23.2864V24.1332C17.5898 24.366 17.3759 24.5566 17.1144 24.5566C16.853 24.5566 16.639 24.366 16.639 24.1332V23.2864Z" fill="#038C01"/>
<path d="M27.5732 18.6289H25.6716V20.3225H27.5732V18.6289Z" fill="#038C01"/>
<path d="M0.475342 26.6735C0.475342 26.9064 0.689277 27.0969 0.950741 27.0969H7.13093V16.0889H0.475342V26.6735ZM1.90154 18.2058C1.90154 17.9729 2.11547 17.7824 2.37694 17.7824H5.22933C5.49079 17.7824 5.70473 17.9729 5.70473 18.2058V20.7461C5.70473 20.979 5.49079 21.1695 5.22933 21.1695H2.37694C2.11547 21.1695 1.90154 20.979 1.90154 20.7461V18.2058ZM1.90154 22.4397C1.90154 22.2068 2.11547 22.0163 2.37694 22.0163H5.22933C5.49079 22.0163 5.70473 22.2068 5.70473 22.4397V24.98C5.70473 25.2129 5.49079 25.4034 5.22933 25.4034H2.37694C2.11547 25.4034 1.90154 25.2129 1.90154 24.98V22.4397Z" fill="#038C01"/>
<path d="M4.75389 18.6289H2.85229V20.3225H4.75389V18.6289Z" fill="#038C01"/>
<path d="M23.2944 27.0969H29.4746C29.7361 27.0969 29.95 26.9064 29.95 26.6735V16.0889H23.2944V27.0969ZM24.7206 18.2058C24.7206 17.9729 24.9346 17.7824 25.196 17.7824H28.0484C28.3099 17.7824 28.5238 17.9729 28.5238 18.2058V20.7461C28.5238 20.979 28.3099 21.1695 28.0484 21.1695H25.196C24.9346 21.1695 24.7206 20.979 24.7206 20.7461V18.2058ZM24.7206 22.4397C24.7206 22.2068 24.9346 22.0163 25.196 22.0163H28.0484C28.3099 22.0163 28.5238 22.2068 28.5238 22.4397V24.98C28.5238 25.2129 28.3099 25.4034 28.0484 25.4034H25.196C24.9346 25.4034 24.7206 25.2129 24.7206 24.98V22.4397Z" fill="#038C01"/>
<path d="M27.5732 22.8633H25.6716V24.5568H27.5732V22.8633Z" fill="#038C01"/>
</g>
<defs>
<clipPath id="clip0_687_1014">
<rect width="30.4255" height="27.0968" fill="white"/>
</clipPath>
</defs>
</svg>
