<svg width="50" height="48" viewBox="0 0 50 48" fill="none" xmlns="http://www.w3.org/2000/svg">
<ellipse cx="24.9153" cy="23.7847" rx="24.9153" ry="23.7847" fill="#012F48"/>
<g clip-path="url(#clip0_631_101)">
<path d="M10 23.5484V24.8185C10 25.0514 10.2139 25.2419 10.4754 25.2419H17.131V23.125H10.4754C10.2139 23.125 10 23.3155 10 23.5484Z" fill="white"/>
<path d="M39.95 23.125H33.2944V25.2419H39.95C40.2115 25.2419 40.4254 25.0514 40.4254 24.8185V23.5484C40.4254 23.3155 40.2115 23.125 39.95 23.125Z" fill="white"/>
<path d="M30.4422 25.2422H19.9834V26.089H30.4422V25.2422Z" fill="white"/>
<path d="M21.4096 20.585H19.9834V22.2785H21.4096V20.585Z" fill="white"/>
<path d="M30.4421 20.585H29.0159V22.2785H30.4421V20.585Z" fill="white"/>
<path d="M14.7539 32.8633H12.8523V34.5568H14.7539V32.8633Z" fill="white"/>
<path d="M31.8684 14.6572H30.4422V17.1975C30.4422 17.8961 29.8004 18.4677 29.016 18.4677H21.4096C20.6252 18.4677 19.9834 17.8961 19.9834 17.1975V14.6572H18.5572C18.2946 14.6572 18.0818 14.8468 18.0818 15.0806V37.0967H19.9834V30.7459H19.508C19.2465 30.7459 19.0326 30.5554 19.0326 30.3225V28.629C19.0326 28.3961 19.2465 28.2056 19.508 28.2056H30.9176C31.179 28.2056 31.393 28.3961 31.393 28.629V30.3225C31.393 30.5554 31.179 30.7459 30.9176 30.7459H30.4422V37.0967H32.3438V15.0806C32.3438 14.8468 32.1309 14.6572 31.8684 14.6572ZM23.3112 20.1613C23.3112 19.9284 23.5251 19.7379 23.7866 19.7379H26.639C26.9004 19.7379 27.1144 19.9284 27.1144 20.1613V22.7016C27.1144 22.9344 26.9004 23.125 26.639 23.125H23.7866C23.5251 23.125 23.3112 22.9344 23.3112 22.7016V20.1613ZM19.0326 20.1613C19.0326 19.9284 19.2465 19.7379 19.508 19.7379H21.885C22.1464 19.7379 22.3604 19.9284 22.3604 20.1613V22.7016C22.3604 22.9344 22.1464 23.125 21.885 23.125H19.508C19.2465 23.125 19.0326 22.9344 19.0326 22.7016V20.1613ZM31.393 26.5121C31.393 26.7449 31.179 26.9355 30.9176 26.9355H19.508C19.2465 26.9355 19.0326 26.7449 19.0326 26.5121V24.8185C19.0326 24.5857 19.2465 24.3951 19.508 24.3951H30.9176C31.179 24.3951 31.393 24.5857 31.393 24.8185V26.5121ZM31.393 22.7016C31.393 22.9344 31.179 23.125 30.9176 23.125H28.5406C28.2791 23.125 28.0652 22.9344 28.0652 22.7016V20.1613C28.0652 19.9284 28.2791 19.7379 28.5406 19.7379H30.9176C31.179 19.7379 31.393 19.9284 31.393 20.1613V22.7016Z" fill="white"/>
<path d="M24.7375 14.6575V15.5043H25.6883V14.6575C25.6883 14.4237 25.9011 14.2341 26.1637 14.2341H27.1145V13.3873H26.1637C25.9011 13.3873 25.6883 13.1978 25.6883 12.964V12.1172H24.7375V12.964C24.7375 13.1978 24.5246 13.3873 24.2621 13.3873H23.3113V14.2341H24.2621C24.5246 14.2341 24.7375 14.4237 24.7375 14.6575Z" fill="white"/>
<path d="M21.4095 17.621H29.0159C29.2773 17.621 29.4913 17.4304 29.4913 17.1976V10.4234C29.4913 10.1905 29.2773 10 29.0159 10H21.4095C21.148 10 20.9341 10.1905 20.9341 10.4234V17.1976C20.9341 17.4304 21.148 17.621 21.4095 17.621ZM22.3603 12.9637C22.3603 12.7299 22.5731 12.5403 22.8357 12.5403H23.7865V11.6935C23.7865 11.4597 23.9993 11.2702 24.2619 11.2702H26.1635C26.426 11.2702 26.6389 11.4597 26.6389 11.6935V12.5403H27.5897C27.8522 12.5403 28.0651 12.7299 28.0651 12.9637V14.6573C28.0651 14.8911 27.8522 15.0806 27.5897 15.0806H26.6389V15.9274C26.6389 16.1612 26.426 16.3508 26.1635 16.3508H24.2619C23.9993 16.3508 23.7865 16.1612 23.7865 15.9274V15.0806H22.8357C22.5731 15.0806 22.3603 14.8911 22.3603 14.6573V12.9637Z" fill="white"/>
<path d="M26.1636 20.585H24.262V22.2785H26.1636V20.585Z" fill="white"/>
<path d="M20.9341 37.0969H24.7373V30.7461H20.9341V37.0969ZM22.8357 33.2864C22.8357 33.0536 23.0496 32.863 23.3111 32.863C23.5725 32.863 23.7865 33.0536 23.7865 33.2864V34.1332C23.7865 34.366 23.5725 34.5566 23.3111 34.5566C23.0496 34.5566 22.8357 34.366 22.8357 34.1332V33.2864Z" fill="white"/>
<path d="M30.4422 29.0527H19.9834V29.8995H20.4588H29.9668H30.4422V29.0527Z" fill="white"/>
<path d="M25.6882 37.0969H29.4914V30.7461H25.6882V37.0969ZM26.639 33.2864C26.639 33.0536 26.853 32.863 27.1144 32.863C27.3759 32.863 27.5898 33.0536 27.5898 33.2864V34.1332C27.5898 34.366 27.3759 34.5566 27.1144 34.5566C26.853 34.5566 26.639 34.366 26.639 34.1332V33.2864Z" fill="white"/>
<path d="M37.5732 28.6289H35.6716V30.3225H37.5732V28.6289Z" fill="white"/>
<path d="M10.4753 36.6735C10.4753 36.9064 10.6893 37.0969 10.9507 37.0969H17.1309V26.0889H10.4753V36.6735ZM11.9015 28.2058C11.9015 27.9729 12.1155 27.7824 12.3769 27.7824H15.2293C15.4908 27.7824 15.7047 27.9729 15.7047 28.2058V30.7461C15.7047 30.979 15.4908 31.1695 15.2293 31.1695H12.3769C12.1155 31.1695 11.9015 30.979 11.9015 30.7461V28.2058ZM11.9015 32.4397C11.9015 32.2068 12.1155 32.0163 12.3769 32.0163H15.2293C15.4908 32.0163 15.7047 32.2068 15.7047 32.4397V34.98C15.7047 35.2129 15.4908 35.4034 15.2293 35.4034H12.3769C12.1155 35.4034 11.9015 35.2129 11.9015 34.98V32.4397Z" fill="white"/>
<path d="M14.7539 28.6289H12.8523V30.3225H14.7539V28.6289Z" fill="white"/>
<path d="M33.2944 37.0969H39.4746C39.7361 37.0969 39.95 36.9064 39.95 36.6735V26.0889H33.2944V37.0969ZM34.7206 28.2058C34.7206 27.9729 34.9346 27.7824 35.196 27.7824H38.0484C38.3099 27.7824 38.5238 27.9729 38.5238 28.2058V30.7461C38.5238 30.979 38.3099 31.1695 38.0484 31.1695H35.196C34.9346 31.1695 34.7206 30.979 34.7206 30.7461V28.2058ZM34.7206 32.4397C34.7206 32.2068 34.9346 32.0163 35.196 32.0163H38.0484C38.3099 32.0163 38.5238 32.2068 38.5238 32.4397V34.98C38.5238 35.2129 38.3099 35.4034 38.0484 35.4034H35.196C34.9346 35.4034 34.7206 35.2129 34.7206 34.98V32.4397Z" fill="white"/>
<path d="M37.5732 32.8633H35.6716V34.5568H37.5732V32.8633Z" fill="white"/>
</g>
<defs>
<clipPath id="clip0_631_101">
<rect width="30.4255" height="27.0968" fill="white" transform="translate(10 10)"/>
</clipPath>
</defs>
</svg>
