<svg width="50" height="50" viewBox="0 0 50 50" fill="none" xmlns="http://www.w3.org/2000/svg">
<circle cx="25" cy="25" r="25" fill="#DF091A"/>
<path fill-rule="evenodd" clip-rule="evenodd" d="M34.9991 29.9738V32.9846C35.0014 33.5498 34.7649 34.0898 34.3476 34.4718C33.9303 34.8539 33.3709 35.0427 32.8069 34.9918C29.7126 34.6563 26.7402 33.601 24.1287 31.9108C21.699 30.3699 19.639 28.3141 18.0951 25.8892C16.3956 23.271 15.338 20.2901 15.0079 17.188C14.9571 16.6268 15.145 16.0702 15.5256 15.6541C15.9062 15.2379 16.4445 15.0006 17.0091 15.0001H20.0258C21.0353 14.9902 21.8957 15.7287 22.037 16.7263C22.1644 17.6898 22.4005 18.6359 22.7409 19.5464C23.0172 20.2799 22.8405 21.1068 22.2884 21.664L21.0113 22.9386C22.4428 25.4512 24.5273 27.5315 27.0449 28.9602L28.322 27.6856C28.8803 27.1346 29.7088 26.9583 30.4438 27.234C31.3561 27.5738 32.3041 27.8094 33.2695 27.9365C34.2807 28.0789 35.0245 28.955 34.9991 29.9738Z" fill="white"/>
</svg>
