<svg width="38" height="38" viewBox="0 0 38 38" fill="none" xmlns="http://www.w3.org/2000/svg">
<rect width="38" height="38" rx="19" fill="#012F48"/>
<g clip-path="url(#clip0_794_1026)">
<path d="M19 9.91699C19.6432 9.91701 20.2722 9.9837 20.8789 10.1113C23.8532 10.7373 26.2893 12.8167 27.4131 15.5703C27.8453 16.6294 28.0839 17.788 28.084 19C28.084 19.6432 28.0163 20.2722 27.8887 20.8789C27.1502 24.3881 24.3881 27.1502 20.8789 27.8887C20.2722 28.0163 19.6432 28.084 19 28.084C18.3568 28.084 17.7278 28.0163 17.1211 27.8887C13.612 27.1501 10.8499 24.388 10.1113 20.8789C9.9837 20.2722 9.91701 19.6432 9.91699 19C9.91703 17.787 10.155 16.6273 10.5879 15.5674C11.7121 12.815 14.1477 10.7371 17.1211 10.1113C17.7278 9.98368 18.3568 9.91701 19 9.91699ZM21.0732 22.9248C20.3613 23.0211 19.6546 23.084 19 23.084C18.5091 23.084 17.9887 23.0492 17.459 22.9912L16.9268 22.9258C17.2432 24.4055 17.6314 25.7529 17.8584 26.4971C18.2303 26.5532 18.6116 26.584 19 26.584C19.3883 26.584 19.7697 26.5532 20.1416 26.4971C20.3403 25.8459 20.6618 24.7324 20.9512 23.4727L21.0732 22.9248ZM26.0322 21.8428C25.1312 22.098 23.9225 22.4103 22.6582 22.6582C22.4103 23.9225 22.098 25.1312 21.8428 26.0322C23.7441 25.2628 25.2628 23.7441 26.0322 21.8428ZM11.9688 21.8438C12.7382 23.744 14.256 25.2617 16.1562 26.0312C15.9011 25.1304 15.5896 23.9219 15.3418 22.6582C14.0781 22.4104 12.8695 22.0989 11.9688 21.8438ZM21.5234 17.8604C20.6606 17.9939 19.7919 18.084 19 18.084C18.208 18.084 17.3395 17.9939 16.4766 17.8604C16.4389 18.26 16.417 18.6431 16.417 19C16.417 19.7136 16.5025 20.5271 16.6348 21.3652C17.473 21.4976 18.2863 21.584 19 21.584C19.7137 21.584 20.5271 21.4976 21.3652 21.3652C21.4976 20.5271 21.584 19.7137 21.584 19C21.584 18.6431 21.5611 18.26 21.5234 17.8604ZM11.748 16.7783C11.5333 17.4803 11.417 18.2261 11.417 19C11.417 19.3882 11.4459 19.7698 11.502 20.1416C12.2458 20.3685 13.5938 20.7566 15.0742 21.0732C14.978 20.3613 14.917 19.6545 14.917 19C14.917 18.5489 14.9471 18.0743 14.9961 17.5918C13.7525 17.3345 12.5879 17.0205 11.748 16.7783ZM26.252 16.7793C25.4121 17.0215 24.2475 17.3346 23.0039 17.5918C23.0529 18.0743 23.084 18.5489 23.084 19C23.084 19.6546 23.0211 20.3613 22.9248 21.0732C24.405 20.7568 25.7528 20.3686 26.4971 20.1416C26.5532 19.7697 26.584 19.3883 26.584 19C26.584 18.2264 26.4665 17.481 26.252 16.7793ZM19 11.417C18.6117 11.417 18.2303 11.4459 17.8584 11.502C17.5656 12.4618 17.005 14.4216 16.6758 16.373C17.4988 16.5015 18.2975 16.584 19 16.584C19.7025 16.584 20.5013 16.5015 21.3242 16.373C20.995 14.4216 20.4344 12.4618 20.1416 11.502C19.7698 11.4459 19.3882 11.417 19 11.417ZM16.1562 11.9697C14.5207 12.6321 13.1687 13.8488 12.333 15.3877C13.1075 15.6079 14.123 15.8754 15.2002 16.1016C15.4599 14.5702 15.8506 13.049 16.1562 11.9697ZM21.8438 11.9697C22.1493 13.0487 22.5391 14.5696 22.7988 16.1006C23.8759 15.8745 24.8914 15.6079 25.666 15.3877C24.8302 13.8491 23.4792 12.632 21.8438 11.9697Z" fill="white"/>
</g>
<defs>
<clipPath id="clip0_794_1026">
<rect width="20" height="20" fill="white" transform="translate(9 9)"/>
</clipPath>
</defs>
</svg>
