<svg width="132" height="132" viewBox="0 0 132 132" fill="none" xmlns="http://www.w3.org/2000/svg">
<g clip-path="url(#clip0_794_1213)">
<circle cx="66" cy="66" r="66" fill="#003A57"/>
<g filter="url(#filter0_d_794_1213)">
<path d="M27.5 29C27.5 23.4771 31.9772 19 37.5 19H95.5C101.023 19 105.5 23.4772 105.5 29V132H27.5V29Z" fill="url(#paint0_linear_794_1213)" shape-rendering="crispEdges"/>
</g>
<g filter="url(#filter1_d_794_1213)">
<path d="M51.5 44C51.5 35.7157 58.2157 29 66.5 29C74.7843 29 81.5 35.7157 81.5 44C81.5 52.2843 74.7843 59 66.5 59C58.2157 59 51.5 52.2843 51.5 44Z" fill="#FFFEFD"/>
</g>
<g filter="url(#filter2_d_794_1213)">
<path d="M40.5 74C40.5 71.2386 42.7386 69 45.5 69H87.5C90.2614 69 92.5 71.2386 92.5 74C92.5 76.7614 90.2614 79 87.5 79H45.5C42.7386 79 40.5 76.7614 40.5 74Z" fill="#FFFEFD"/>
</g>
<g filter="url(#filter3_d_794_1213)">
<circle cx="66" cy="105.5" r="16.5" fill="url(#paint1_linear_794_1213)" shape-rendering="crispEdges"/>
<circle cx="66" cy="105.5" r="18" stroke="url(#paint2_linear_794_1213)" stroke-width="3" shape-rendering="crispEdges"/>
</g>
<path d="M58.3335 111.25H60.2502V113.167H71.7502V97.8337H60.2502V99.7503H58.3335V96.8753C58.3335 96.3461 58.7626 95.917 59.2918 95.917H72.7085C73.2378 95.917 73.6668 96.3461 73.6668 96.8753V114.125C73.6668 114.655 73.2378 115.084 72.7085 115.084H59.2918C58.7626 115.084 58.3335 114.655 58.3335 114.125V111.25ZM60.2502 104.542H66.9585V106.459H60.2502V109.334L55.4585 105.5L60.2502 101.667V104.542Z" fill="white"/>
</g>
<defs>
<filter id="filter0_d_794_1213" x="-2.5" y="-7" width="138" height="173" filterUnits="userSpaceOnUse" color-interpolation-filters="sRGB">
<feFlood flood-opacity="0" result="BackgroundImageFix"/>
<feColorMatrix in="SourceAlpha" type="matrix" values="0 0 0 0 0 0 0 0 0 0 0 0 0 0 0 0 0 0 127 0" result="hardAlpha"/>
<feOffset dy="4"/>
<feGaussianBlur stdDeviation="15"/>
<feComposite in2="hardAlpha" operator="out"/>
<feColorMatrix type="matrix" values="0 0 0 0 0.295833 0 0 0 0 0.295833 0 0 0 0 0.295833 0 0 0 0.06 0"/>
<feBlend mode="normal" in2="BackgroundImageFix" result="effect1_dropShadow_794_1213"/>
<feBlend mode="normal" in="SourceGraphic" in2="effect1_dropShadow_794_1213" result="shape"/>
</filter>
<filter id="filter1_d_794_1213" x="21.5" y="3" width="90" height="90" filterUnits="userSpaceOnUse" color-interpolation-filters="sRGB">
<feFlood flood-opacity="0" result="BackgroundImageFix"/>
<feColorMatrix in="SourceAlpha" type="matrix" values="0 0 0 0 0 0 0 0 0 0 0 0 0 0 0 0 0 0 127 0" result="hardAlpha"/>
<feOffset dy="4"/>
<feGaussianBlur stdDeviation="15"/>
<feComposite in2="hardAlpha" operator="out"/>
<feColorMatrix type="matrix" values="0 0 0 0 0.295833 0 0 0 0 0.295833 0 0 0 0 0.295833 0 0 0 0.06 0"/>
<feBlend mode="normal" in2="BackgroundImageFix" result="effect1_dropShadow_794_1213"/>
<feBlend mode="normal" in="SourceGraphic" in2="effect1_dropShadow_794_1213" result="shape"/>
</filter>
<filter id="filter2_d_794_1213" x="10.5" y="43" width="112" height="70" filterUnits="userSpaceOnUse" color-interpolation-filters="sRGB">
<feFlood flood-opacity="0" result="BackgroundImageFix"/>
<feColorMatrix in="SourceAlpha" type="matrix" values="0 0 0 0 0 0 0 0 0 0 0 0 0 0 0 0 0 0 127 0" result="hardAlpha"/>
<feOffset dy="4"/>
<feGaussianBlur stdDeviation="15"/>
<feComposite in2="hardAlpha" operator="out"/>
<feColorMatrix type="matrix" values="0 0 0 0 0.295833 0 0 0 0 0.295833 0 0 0 0 0.295833 0 0 0 0.06 0"/>
<feBlend mode="normal" in2="BackgroundImageFix" result="effect1_dropShadow_794_1213"/>
<feBlend mode="normal" in="SourceGraphic" in2="effect1_dropShadow_794_1213" result="shape"/>
</filter>
<filter id="filter3_d_794_1213" x="16.5" y="60" width="99" height="99" filterUnits="userSpaceOnUse" color-interpolation-filters="sRGB">
<feFlood flood-opacity="0" result="BackgroundImageFix"/>
<feColorMatrix in="SourceAlpha" type="matrix" values="0 0 0 0 0 0 0 0 0 0 0 0 0 0 0 0 0 0 127 0" result="hardAlpha"/>
<feOffset dy="4"/>
<feGaussianBlur stdDeviation="15"/>
<feComposite in2="hardAlpha" operator="out"/>
<feColorMatrix type="matrix" values="0 0 0 0 0.295833 0 0 0 0 0.295833 0 0 0 0 0.295833 0 0 0 0.06 0"/>
<feBlend mode="normal" in2="BackgroundImageFix" result="effect1_dropShadow_794_1213"/>
<feBlend mode="normal" in="SourceGraphic" in2="effect1_dropShadow_794_1213" result="shape"/>
</filter>
<linearGradient id="paint0_linear_794_1213" x1="66.5" y1="19" x2="66.5" y2="132" gradientUnits="userSpaceOnUse">
<stop stop-color="#FFF8EB"/>
<stop offset="1" stop-color="#FFF8EB" stop-opacity="0"/>
</linearGradient>
<linearGradient id="paint1_linear_794_1213" x1="66" y1="89" x2="66" y2="122" gradientUnits="userSpaceOnUse">
<stop stop-color="#EA5757"/>
<stop offset="1" stop-color="#F47979"/>
</linearGradient>
<linearGradient id="paint2_linear_794_1213" x1="66" y1="89" x2="66" y2="122" gradientUnits="userSpaceOnUse">
<stop stop-color="white"/>
<stop offset="1" stop-color="white" stop-opacity="0"/>
</linearGradient>
<clipPath id="clip0_794_1213">
<rect width="132" height="132" rx="66" fill="white"/>
</clipPath>
</defs>
</svg>
