<svg width="38" height="38" viewBox="0 0 38 38" fill="none" xmlns="http://www.w3.org/2000/svg">
<rect width="38" height="38" rx="19" fill="#012F48"/>
<path d="M16.4327 10.875C15.7226 10.8749 15.2902 10.8749 14.9171 10.934C12.8668 11.2587 11.2587 12.8668 10.934 14.9171C10.8749 15.2902 10.8749 15.7226 10.875 16.4327L10.875 21.5674C10.8749 22.2774 10.8749 22.7099 10.934 23.0829C11.2587 25.1332 12.8668 26.7413 14.9171 27.066C15.2902 27.1251 15.7226 27.1251 16.4327 27.125L17.3333 27.125C18.4113 27.125 19.4078 26.7683 20.2087 26.1667C20.4847 25.9594 20.5404 25.5676 20.3331 25.2916C20.1258 25.0156 19.734 24.9599 19.458 25.1673C18.8661 25.6118 18.1314 25.875 17.3333 25.875H16.5C15.702 25.875 15.3757 25.8731 15.1126 25.8314C13.5972 25.5914 12.4086 24.4028 12.1686 22.8874C12.1269 22.6243 12.125 22.2981 12.125 21.5L12.125 16.5C12.125 15.702 12.1269 15.3757 12.1686 15.1126C12.4086 13.5972 13.5972 12.4086 15.1126 12.1686C15.3757 12.1269 15.702 12.125 16.5 12.125H17.3333C18.1314 12.125 18.8661 12.3882 19.458 12.8328C19.734 13.0401 20.1258 12.9844 20.3331 12.7084C20.5404 12.4324 20.4847 12.0406 20.2087 11.8333C19.4078 11.2317 18.4113 10.875 17.3333 10.875L16.4327 10.875Z" fill="white"/>
<path d="M23.555 15.1769C23.2845 14.9625 22.8914 15.0079 22.6769 15.2784C22.4625 15.5488 22.5079 15.942 22.7784 16.1564L24.2475 17.3213C24.8342 17.7865 25.2359 18.1061 25.5087 18.375L14.8333 18.375C14.4882 18.375 14.2083 18.6548 14.2083 19C14.2083 19.3452 14.4882 19.625 14.8333 19.625L25.5087 19.625C25.2359 19.8939 24.8342 20.2136 24.2475 20.6787L22.7784 21.8436C22.5079 22.0581 22.4625 22.4512 22.6769 22.7216C22.8914 22.9921 23.2845 23.0375 23.555 22.8231L25.054 21.6345C25.6144 21.1902 26.0768 20.8236 26.4062 20.4954C26.7443 20.1587 27.0245 19.7849 27.1006 19.3072C27.1169 19.2055 27.125 19.1028 27.125 19C27.125 18.8972 27.1169 18.7945 27.1006 18.6928C27.0245 18.2151 26.7443 17.8414 26.4062 17.5046C26.0768 17.1764 25.6144 16.8098 25.054 16.3655L23.555 15.1769Z" fill="white"/>
</svg>
