<svg width="64" height="67" viewBox="0 0 64 67" fill="none" xmlns="http://www.w3.org/2000/svg">
<path d="M49.09 44.733L38 41.1003V37.6666C40.17 35.9497 41.66 33.343 41.95 30.3594H42.5C44.43 30.3594 46 28.7158 46 26.6953C46 26.0881 45.84 25.5228 45.59 25.0203C46.41 24.7482 47 23.963 47 23.0313V20.9375C47 20.0686 46.49 19.3253 45.77 19.0008L46.33 18.1214C46.77 17.4305 47 16.6349 47 15.8078C47 14.0491 45.94 12.4788 44.36 11.882L32.34 7.39095C32.12 7.30718 31.88 7.30718 31.66 7.39095L19.64 11.882C18.06 12.4788 17 14.0491 17 15.8078C17 16.6349 17.23 17.4305 17.67 18.1109L18.23 19.0008C17.51 19.3253 17 20.0686 17 20.9375V23.0313C17 23.963 17.59 24.7482 18.41 25.0203C18.16 25.5228 18 26.0881 18 26.6953C18 28.7158 19.57 30.3594 21.5 30.3594H22.05C22.34 33.343 23.83 35.9497 26 37.6666V41.1003L14.91 44.733C11.97 45.6961 10 48.5017 10 51.7261V57.5782C10 58.7297 10.9 59.6719 12 59.6719H52C53.1 59.6719 54 58.7297 54 57.5782V51.7261C54 48.5017 52.03 45.6961 49.09 44.733ZM39.83 43.8955L37.61 47.8317L33.85 45.8531L37.21 43.037L39.83 43.8955ZM42.5 28.2657H42V25.125H42.5C43.33 25.125 44 25.8264 44 26.6953C44 27.5642 43.33 28.2657 42.5 28.2657ZM20.31 13.8606L32 9.48471L43.69 13.8606C44.47 14.1537 45 14.9285 45 15.8078C45 16.2161 44.89 16.6139 44.67 16.9594L43.46 18.8438H35.28L35.24 18.3308L36.76 16.4464C36.99 16.1638 37.06 15.7869 36.95 15.4414C36.84 15.0855 36.57 14.8238 36.23 14.7505L34.02 14.2166L32.87 12.0496C32.52 11.39 31.48 11.39 31.13 12.0496L29.98 14.2166L27.77 14.7505C27.43 14.8238 27.16 15.0855 27.05 15.4414C26.94 15.7869 27.01 16.1638 27.24 16.4464L28.76 18.3308L28.72 18.8438H20.54L19.33 16.9489C19.11 16.6139 19 16.2161 19 15.8078C19 14.9285 19.53 14.1537 20.31 13.8606ZM33.27 18.8438H30.73L30.8 18.0795C30.82 17.7969 30.74 17.5247 30.56 17.3048L29.83 16.3941L30.87 16.1428C31.14 16.08 31.38 15.8916 31.51 15.6403L32 14.7191L32.49 15.6403C32.62 15.8916 32.86 16.08 33.13 16.1428L34.17 16.3941L33.44 17.3048C33.26 17.5247 33.18 17.7969 33.2 18.0795L33.27 18.8438ZM22 28.2657H21.5C20.67 28.2657 20 27.5642 20 26.6953C20 25.8264 20.67 25.125 21.5 25.125H22V28.2657ZM19 23.0313V20.9375H45V23.0313H19ZM38.59 25.125L37.17 26.6011C36.8 26.9989 36.28 27.2188 35.76 27.2188H28.24C27.72 27.2188 27.2 26.9989 26.83 26.6011L25.41 25.125H38.59ZM24 29.3125V26.6011L25.41 28.0876C26.16 28.8624 27.19 29.3125 28.24 29.3125H35.76C36.81 29.3125 37.84 28.8624 38.59 28.0876L40 26.6011V29.3125C40 33.9292 36.41 37.6875 32 37.6875C27.59 37.6875 24 33.9292 24 29.3125ZM26.79 43.037L30.15 45.8531L26.39 47.8317L24.17 43.8955L26.79 43.037ZM15 57.5782H12V51.7261C12 49.6219 13.19 47.7689 15 46.9419V57.5782ZM27 57.5782H21V55.4844H27V57.5782ZM31 57.5782H29V54.4375C29 53.8618 28.55 53.3907 28 53.3907H20C19.45 53.3907 19 53.8618 19 54.4375V57.5782H17V46.2405L22.21 44.5341L24.66 48.8891C25.03 49.5486 25.7 49.9255 26.39 49.9255C26.69 49.9255 27 49.8522 27.28 49.7056L31 47.7585L31 57.5782ZM28 41.3725V38.9019C29.23 39.4672 30.58 39.7813 32 39.7813C33.42 39.7813 34.77 39.4672 36 38.9019V41.3725L32 44.7225L28 41.3725ZM42.5 56.2486C42.43 56.7197 42.27 57.1594 42.06 57.5782H37.94C37.73 57.1594 37.57 56.7197 37.5 56.2381L37.21 54.3642C38.18 54.3956 39.16 54.1444 40 53.6209C40.84 54.1549 41.8 54.4061 42.79 54.3642L42.5 56.2486ZM47 57.5782H44.24C44.34 57.2536 44.43 56.9186 44.48 56.5731L44.99 53.2126C45.04 52.8358 44.91 52.4694 44.63 52.2286C44.35 51.9983 43.98 51.9355 43.64 52.0716C42.64 52.4694 41.5 52.2705 40.6 51.5063C40.23 51.2131 39.69 51.255 39.33 51.5586C38.49 52.2705 37.27 52.438 36.36 52.0716C36.03 51.9355 35.65 51.9983 35.37 52.2286C35.09 52.4694 34.96 52.8358 35.01 53.2126L35.52 56.5627C35.57 56.9081 35.6599 57.2431 35.76 57.5782H33V47.7585L36.7199 49.7056C37 49.8522 37.31 49.9255 37.61 49.9255C38.3 49.9255 38.97 49.5486 39.33 48.8891L41.7899 44.5341L47 46.2405L47 57.5782ZM52 57.5782H49V46.9419C50.81 47.7689 52 49.6219 52 51.7261V57.5782Z" fill="black"/>
</svg>
