<svg width="38" height="38" viewBox="0 0 38 38" fill="none" xmlns="http://www.w3.org/2000/svg">
<rect width="38" height="38" rx="19" fill="#012F48"/>
<path fill-rule="evenodd" clip-rule="evenodd" d="M19 17.542C17.7344 17.542 16.7084 18.568 16.7084 19.8337C16.7084 20.8826 17.4132 21.767 18.375 22.0391V24.8337C18.375 25.1788 18.6549 25.4587 19 25.4587C19.3452 25.4587 19.625 25.1788 19.625 24.8337V22.0391C20.5869 21.767 21.2917 20.8826 21.2917 19.8337C21.2917 18.568 20.2657 17.542 19 17.542ZM17.9584 19.8337C17.9584 19.2584 18.4247 18.792 19 18.792C19.5753 18.792 20.0417 19.2584 20.0417 19.8337C20.0417 20.409 19.5753 20.8753 19 20.8753C18.4247 20.8753 17.9584 20.409 17.9584 19.8337Z" fill="white"/>
<path fill-rule="evenodd" clip-rule="evenodd" d="M19 10.042C16.3537 10.042 14.2084 12.1873 14.2084 14.8337V15.2693L14.186 15.2765C12.7272 15.7505 11.5835 16.8942 11.1095 18.353C10.8747 19.0759 10.8748 19.9436 10.875 21.3655V21.6352C10.8748 23.0571 10.8747 23.9248 11.1095 24.6477C11.5835 26.1065 12.7272 27.2502 14.186 27.7241C14.9089 27.959 15.7766 27.9589 17.1985 27.9587H20.8016C22.2235 27.9589 23.0911 27.959 23.8141 27.7241C25.2728 27.2502 26.4165 26.1065 26.8905 24.6477C27.1254 23.9248 27.1253 23.0571 27.125 21.6352V21.3654C27.1253 19.9436 27.1254 19.0759 26.8905 18.353C26.4165 16.8942 25.2728 15.7505 23.8141 15.2765L23.7917 15.2693V14.8337C23.7917 12.1873 21.6464 10.042 19 10.042ZM17.2634 15.042C16.5307 15.042 15.9459 15.0419 15.4584 15.0695V14.8337C15.4584 12.8777 17.044 11.292 19 11.292C20.956 11.292 22.5417 12.8777 22.5417 14.8337V15.0695C22.0541 15.0419 21.4693 15.042 20.7367 15.042H17.2634ZM14.9372 16.3781C15.4352 16.2942 16.1068 16.292 17.3334 16.292H20.6667C21.8932 16.292 22.5649 16.2942 23.0629 16.3781C23.2006 16.4013 23.3193 16.4301 23.4278 16.4653C24.506 16.8157 25.3514 17.661 25.7017 18.7392C25.8673 19.249 25.875 19.9006 25.875 21.5003C25.875 23.1 25.8673 23.7517 25.7017 24.2614C25.3514 25.3396 24.506 26.185 23.4278 26.5353C22.918 26.701 22.2664 26.7087 20.6667 26.7087H17.3334C15.7336 26.7087 15.082 26.701 14.5723 26.5353C13.494 26.185 12.6487 25.3396 12.2984 24.2614C12.1327 23.7517 12.125 23.1 12.125 21.5003C12.125 19.9006 12.1327 19.249 12.2984 18.7392C12.6487 17.661 13.494 16.8157 14.5723 16.4653C14.6807 16.4301 14.7995 16.4013 14.9372 16.3781Z" fill="white"/>
</svg>
