<svg width="29" height="30" viewBox="0 0 29 30" fill="none" xmlns="http://www.w3.org/2000/svg">
<path d="M5.4375 7.96875V8.90625H9.42671L9.28364 7.96875H5.4375Z" fill="#012F48"/>
<path d="M19.7163 7.96875L19.5732 8.90625H23.5624V7.96875H19.7163Z" fill="#012F48"/>
<path d="M25.375 24.8438H3.625C3.37475 24.8438 3.17188 25.0536 3.17188 25.3125V26.25C3.17188 26.5089 3.37475 26.7188 3.625 26.7188H25.375C25.6253 26.7188 25.8281 26.5089 25.8281 26.25V25.3125C25.8281 25.0536 25.6253 24.8438 25.375 24.8438Z" fill="#012F48"/>
<path d="M4.07813 7.03125H9.14055L9.06825 6.55747C9.04259 6.39221 9.10498 6.22536 9.23065 6.12007C9.35632 6.01455 9.52669 5.98732 9.67846 6.04683C11.1905 6.64856 12.9118 6.36337 14.1677 5.3009L14.2128 5.26268C14.3792 5.12077 14.6208 5.12077 14.7872 5.26268L14.8328 5.30136C16.0882 6.36337 17.8082 6.64925 19.3215 6.04683C19.4742 5.98732 19.6437 6.01455 19.7694 6.12007C19.895 6.22536 19.9574 6.39221 19.9317 6.55747L19.8595 7.03125H24.9219C25.1721 7.03125 25.375 6.82137 25.375 6.5625V3.75C25.375 3.4911 25.1721 3.28125 24.9219 3.28125H4.07813C3.82786 3.28125 3.625 3.4911 3.625 3.75V6.5625C3.625 6.82137 3.82786 7.03125 4.07813 7.03125Z" fill="#012F48"/>
<path d="M13.8147 11.0847L13.6974 11.8281L14.2811 11.4944C14.3492 11.4552 14.4244 11.4358 14.5001 11.4358C14.5758 11.4358 14.651 11.4552 14.7192 11.4944L15.3028 11.8281L15.1856 11.0847C15.1625 10.9377 15.2081 10.7883 15.3086 10.6818L15.8254 10.1339L15.1316 10.0243C14.9824 10.0005 14.8541 9.90135 14.79 9.7599L14.5001 9.12109L14.2103 9.7599C14.1461 9.90135 14.0178 10.0005 13.8687 10.0243L13.1748 10.1339L13.6916 10.6818C13.7921 10.7883 13.8377 10.9377 13.8147 11.0847Z" fill="#012F48"/>
<path d="M14.4999 15.4409C16.5704 14.6677 18.0607 12.8067 18.4054 10.5485L18.9236 7.15053C17.3979 7.51605 15.7765 7.18005 14.4999 6.21875C13.2228 7.18028 11.6019 7.51605 10.0762 7.15053L10.5943 10.5485C10.9391 12.8067 12.4294 14.6677 14.4999 15.4409ZM11.8046 9.65907C11.8586 9.49244 11.998 9.3709 12.1657 9.34435L13.4923 9.13492L14.0897 7.81817C14.1645 7.6536 14.3242 7.54854 14.4999 7.54854C14.6756 7.54854 14.8353 7.6536 14.9101 7.81817L15.5075 9.13492L16.8341 9.34435C17.0018 9.3709 17.1412 9.49244 17.1952 9.65907C17.2492 9.82569 17.2085 10.0095 17.0899 10.1351L16.1168 11.1669L16.3474 12.6293C16.3752 12.8064 16.3027 12.9847 16.1611 13.0879C16.0832 13.1447 15.9916 13.1735 15.9 13.1735C15.8248 13.1735 15.7491 13.1541 15.6809 13.115L14.4999 12.4398L13.3189 13.115C13.1675 13.2019 12.9808 13.1909 12.8387 13.0879C12.6971 12.9847 12.6246 12.8064 12.6524 12.6293L12.883 11.1669L11.9099 10.1351C11.7913 10.0095 11.7506 9.82569 11.8046 9.65907Z" fill="#012F48"/>
<path d="M14.0469 18.2812H11.3281V23.9062H14.0469V18.2812Z" fill="#012F48"/>
<path d="M8.60938 13.5938H6.79688V15.4688H8.60938V13.5938Z" fill="#012F48"/>
<path d="M8.60938 18.2812H6.79688V22.0312H8.60938V18.2812Z" fill="#012F48"/>
<path d="M17.6719 18.2812H14.9531V23.9062H17.6719V18.2812Z" fill="#012F48"/>
<path d="M24.9219 23.9062V10.3125C24.9219 10.0536 24.719 9.84375 24.4688 9.84375H19.4302L19.3003 10.695C18.895 13.3523 17.1103 15.5315 14.6434 16.3822C14.5969 16.3982 14.5482 16.4062 14.5 16.4062C14.4518 16.4062 14.4031 16.3982 14.3566 16.3822C11.8897 15.5315 10.105 13.3523 9.69971 10.695L9.56981 9.84375H4.53125C4.28098 9.84375 4.07812 10.0536 4.07812 10.3125V23.9062H10.4219V17.8125C10.4219 17.5536 10.6245 17.3438 10.875 17.3438H18.125C18.3755 17.3438 18.5781 17.5536 18.5781 17.8125V23.9062H24.9219ZM19.4844 13.125C19.4844 12.8661 19.687 12.6562 19.9375 12.6562H22.6562C22.9067 12.6562 23.1094 12.8661 23.1094 13.125V15.9375C23.1094 16.1964 22.9067 16.4062 22.6562 16.4062H19.9375C19.687 16.4062 19.4844 16.1964 19.4844 15.9375V13.125ZM19.4844 17.8125C19.4844 17.5536 19.687 17.3438 19.9375 17.3438H22.6562C22.9067 17.3438 23.1094 17.5536 23.1094 17.8125V22.5C23.1094 22.7589 22.9067 22.9688 22.6562 22.9688H19.9375C19.687 22.9688 19.4844 22.7589 19.4844 22.5V17.8125ZM9.51562 22.5C9.51562 22.7589 9.31296 22.9688 9.0625 22.9688H6.34375C6.09329 22.9688 5.89062 22.7589 5.89062 22.5V17.8125C5.89062 17.5536 6.09329 17.3438 6.34375 17.3438H9.0625C9.31296 17.3438 9.51562 17.5536 9.51562 17.8125V22.5ZM9.51562 15.9375C9.51562 16.1964 9.31296 16.4062 9.0625 16.4062H6.34375C6.09329 16.4062 5.89062 16.1964 5.89062 15.9375V13.125C5.89062 12.8661 6.09329 12.6562 6.34375 12.6562H9.0625C9.31296 12.6562 9.51562 12.8661 9.51562 13.125V15.9375Z" fill="#012F48"/>
<path d="M22.2031 18.2812H20.3906V22.0312H22.2031V18.2812Z" fill="#012F48"/>
<path d="M22.2031 13.5938H20.3906V15.4688H22.2031V13.5938Z" fill="#012F48"/>
</svg>
