<svg width="50" height="48" viewBox="0 0 50 48" fill="none" xmlns="http://www.w3.org/2000/svg">
<ellipse cx="24.9153" cy="23.7847" rx="24.9153" ry="23.7847" fill="#012F48"/>
<path d="M16.2656 17.5312V18.4375H20.2548L20.1118 17.5312H16.2656Z" fill="white"/>
<path d="M30.5444 17.5312L30.4014 18.4375H34.3906V17.5312H30.5444Z" fill="white"/>
<path d="M36.2031 33.8438H14.4531C14.2029 33.8438 14 34.0466 14 34.2969V35.2031C14 35.4534 14.2029 35.6562 14.4531 35.6562H36.2031C36.4534 35.6562 36.6562 35.4534 36.6562 35.2031V34.2969C36.6562 34.0466 36.4534 33.8438 36.2031 33.8438Z" fill="white"/>
<path d="M14.9063 16.625H19.9687L19.8964 16.167C19.8707 16.0073 19.9331 15.846 20.0588 15.7442C20.1844 15.6422 20.3548 15.6159 20.5066 15.6734C22.0186 16.2551 23.74 15.9794 24.9958 14.9523L25.0409 14.9154C25.2073 14.7782 25.4489 14.7782 25.6153 14.9154L25.6609 14.9528C26.9163 15.9794 28.6363 16.2557 30.1497 15.6734C30.3023 15.6159 30.4718 15.6422 30.5975 15.7442C30.7231 15.846 30.7855 16.0073 30.7599 16.167L30.6876 16.625H35.75C36.0003 16.625 36.2031 16.4221 36.2031 16.1719V13.4531C36.2031 13.2029 36.0003 13 35.75 13H14.9063C14.656 13 14.4531 13.2029 14.4531 13.4531V16.1719C14.4531 16.4221 14.656 16.625 14.9063 16.625Z" fill="white"/>
<path d="M24.6428 20.5436L24.5255 21.2623L25.1092 20.9397C25.1773 20.9018 25.2526 20.883 25.3282 20.883C25.4039 20.883 25.4791 20.9018 25.5473 20.9397L26.1309 21.2623L26.0137 20.5436C25.9907 20.4016 26.0362 20.2571 26.1367 20.1542L26.6535 19.6245L25.9597 19.5186C25.8106 19.4956 25.6822 19.3998 25.6181 19.263L25.3282 18.6455L25.0384 19.263C24.9742 19.3998 24.8459 19.4956 24.6968 19.5186L24.0029 19.6245L24.5198 20.1542C24.6202 20.2571 24.6658 20.4016 24.6428 20.5436Z" fill="white"/>
<path d="M25.328 24.7545C27.3985 24.0072 28.8889 22.2081 29.2336 20.0253L29.7517 16.7406C28.226 17.0939 26.6047 16.7691 25.328 15.8398C24.051 16.7693 22.4301 17.0939 20.9043 16.7406L21.4225 20.0253C21.7672 22.2081 23.2575 24.0072 25.328 24.7545ZM22.6327 19.1655C22.6867 19.0044 22.8261 18.8869 22.9938 18.8613L24.3204 18.6588L24.9178 17.3859C24.9926 17.2269 25.1524 17.1253 25.328 17.1253C25.5037 17.1253 25.6634 17.2269 25.7382 17.3859L26.3356 18.6588L27.6622 18.8613C27.8299 18.8869 27.9693 19.0044 28.0233 19.1655C28.0773 19.3266 28.0366 19.5042 27.918 19.6257L26.9449 20.6231L27.1755 22.0367C27.2034 22.2079 27.1308 22.3803 26.9892 22.4801C26.9113 22.5349 26.8197 22.5628 26.7281 22.5628C26.6529 22.5628 26.5772 22.544 26.5091 22.5062L25.328 21.8535L24.147 22.5062C23.9956 22.5903 23.8089 22.5796 23.6669 22.4801C23.5253 22.3803 23.4527 22.2079 23.4806 22.0367L23.7111 20.6231L22.738 19.6257C22.6195 19.5042 22.5787 19.3265 22.6327 19.1655Z" fill="white"/>
<path d="M24.875 27.5H22.1562V32.9375H24.875V27.5Z" fill="white"/>
<path d="M19.4375 22.9688H17.625V24.7812H19.4375V22.9688Z" fill="white"/>
<path d="M19.4375 27.5H17.625V31.125H19.4375V27.5Z" fill="white"/>
<path d="M28.5 27.5H25.7812V32.9375H28.5V27.5Z" fill="white"/>
<path d="M35.75 32.9375V19.7969C35.75 19.5466 35.5471 19.3438 35.2969 19.3438H30.2583L30.1284 20.1666C29.7231 22.7353 27.9385 24.8419 25.4715 25.6643C25.425 25.6798 25.3764 25.6875 25.3281 25.6875C25.2799 25.6875 25.2312 25.6798 25.1848 25.6643C22.7178 24.8419 20.9332 22.7353 20.5278 20.1666L20.3979 19.3438H15.3594C15.1091 19.3438 14.9062 19.5466 14.9062 19.7969V32.9375H21.25V27.0469C21.25 26.7966 21.4527 26.5938 21.7031 26.5938H28.9531C29.2036 26.5938 29.4062 26.7966 29.4062 27.0469V32.9375H35.75ZM30.3125 22.5156C30.3125 22.2654 30.5152 22.0625 30.7656 22.0625H33.4844C33.7348 22.0625 33.9375 22.2654 33.9375 22.5156V25.2344C33.9375 25.4846 33.7348 25.6875 33.4844 25.6875H30.7656C30.5152 25.6875 30.3125 25.4846 30.3125 25.2344V22.5156ZM30.3125 27.0469C30.3125 26.7966 30.5152 26.5938 30.7656 26.5938H33.4844C33.7348 26.5938 33.9375 26.7966 33.9375 27.0469V31.5781C33.9375 31.8284 33.7348 32.0312 33.4844 32.0312H30.7656C30.5152 32.0312 30.3125 31.8284 30.3125 31.5781V27.0469ZM20.3438 31.5781C20.3438 31.8284 20.1411 32.0312 19.8906 32.0312H17.1719C16.9214 32.0312 16.7188 31.8284 16.7188 31.5781V27.0469C16.7188 26.7966 16.9214 26.5938 17.1719 26.5938H19.8906C20.1411 26.5938 20.3438 26.7966 20.3438 27.0469V31.5781ZM20.3438 25.2344C20.3438 25.4846 20.1411 25.6875 19.8906 25.6875H17.1719C16.9214 25.6875 16.7188 25.4846 16.7188 25.2344V22.5156C16.7188 22.2654 16.9214 22.0625 17.1719 22.0625H19.8906C20.1411 22.0625 20.3438 22.2654 20.3438 22.5156V25.2344Z" fill="white"/>
<path d="M33.0312 27.5H31.2188V31.125H33.0312V27.5Z" fill="white"/>
<path d="M33.0312 22.9688H31.2188V24.7812H33.0312V22.9688Z" fill="white"/>
</svg>
