<svg width="65" height="80" viewBox="0 0 65 80" fill="none" xmlns="http://www.w3.org/2000/svg">
<g filter="url(#filter0_d_670_525)">
<path fill-rule="evenodd" clip-rule="evenodd" d="M60 27.5552C60 48.2093 32.5 71 32.5 71C32.5 71 5 48.2093 5 27.5552C5 12.8892 17.3122 1 32.5 1C47.6878 1 60 12.8892 60 27.5552Z" fill="url(#paint0_linear_670_525)" stroke="white" stroke-width="2" stroke-linecap="round" stroke-linejoin="round"/>
</g>
<path d="M25.0398 25.6621V26.4383H28.5812L28.4542 25.6621H25.0398Z" fill="white"/>
<path d="M37.7159 25.6621L37.5889 26.4383H41.1303V25.6621H37.7159Z" fill="white"/>
<path d="M42.7393 39.6338H23.4308C23.2087 39.6338 23.0286 39.8075 23.0286 40.0219V40.7981C23.0286 41.0124 23.2087 41.1862 23.4308 41.1862H42.7393C42.9615 41.1862 43.1416 41.0124 43.1416 40.7981V40.0219C43.1416 39.8075 42.9615 39.6338 42.7393 39.6338Z" fill="white"/>
<path d="M23.8332 24.8861H28.3273L28.2631 24.4938C28.2404 24.357 28.2957 24.2188 28.4073 24.1317C28.5189 24.0443 28.6701 24.0218 28.8049 24.071C30.1472 24.5692 31.6753 24.3331 32.7901 23.4534L32.8302 23.4218C32.9779 23.3043 33.1924 23.3043 33.3401 23.4218L33.3806 23.4538C34.495 24.3331 36.022 24.5698 37.3655 24.071C37.501 24.0218 37.6515 24.0443 37.763 24.1317C37.8746 24.2188 37.93 24.357 37.9072 24.4938L37.843 24.8861H42.3372C42.5593 24.8861 42.7394 24.7123 42.7394 24.498V22.1694C42.7394 21.955 42.5593 21.7812 42.3372 21.7812H23.8332C23.611 21.7812 23.4309 21.955 23.4309 22.1694V24.498C23.4309 24.7123 23.611 24.8861 23.8332 24.8861Z" fill="white"/>
<path d="M32.4765 28.242L32.3724 28.8575L32.8905 28.5812C32.951 28.5488 33.0178 28.5327 33.085 28.5327C33.1522 28.5327 33.2189 28.5488 33.2794 28.5812L33.7976 28.8575L33.6935 28.242C33.6731 28.1203 33.7135 27.9966 33.8027 27.9084L34.2615 27.4548L33.6456 27.364C33.5132 27.3443 33.3993 27.2622 33.3423 27.1451L33.085 26.6162L32.8277 27.1451C32.7707 27.2622 32.6568 27.3443 32.5244 27.364L31.9084 27.4548L32.3673 27.9084C32.4564 27.9966 32.4969 28.1203 32.4765 28.242Z" fill="white"/>
<path d="M33.0851 31.8494C34.9232 31.2092 36.2462 29.6684 36.5523 27.7987L37.0123 24.9853C35.6578 25.288 34.2184 25.0098 33.0851 24.2139C31.9514 25.01 30.5124 25.288 29.158 24.9853L29.618 27.7987C29.924 29.6684 31.247 31.2092 33.0851 31.8494ZM30.6924 27.0623C30.7403 26.9243 30.864 26.8237 31.0129 26.8017L32.1906 26.6283L32.721 25.5381C32.7873 25.4019 32.9292 25.3149 33.0851 25.3149C33.2411 25.3149 33.3829 25.4019 33.4493 25.5381L33.9796 26.6283L35.1573 26.8017C35.3062 26.8237 35.4299 26.9243 35.4779 27.0623C35.5258 27.2003 35.4896 27.3524 35.3844 27.4565L34.5205 28.3108L34.7252 29.5215C34.7499 29.6682 34.6855 29.8158 34.5598 29.9013C34.4907 29.9483 34.4094 29.9721 34.328 29.9721C34.2613 29.9721 34.1941 29.956 34.1336 29.9236L33.0851 29.3646L32.0366 29.9236C31.9023 29.9956 31.7365 29.9865 31.6104 29.9013C31.4847 29.8158 31.4203 29.6682 31.445 29.5215L31.6497 28.3108L30.7859 27.4565C30.6806 27.3524 30.6444 27.2003 30.6924 27.0623Z" fill="white"/>
<path d="M32.6829 34.2002H30.2693V38.8575H32.6829V34.2002Z" fill="white"/>
<path d="M27.8556 30.3193H26.2466V31.8718H27.8556V30.3193Z" fill="white"/>
<path d="M27.8556 34.2002H26.2466V37.305H27.8556V34.2002Z" fill="white"/>
<path d="M35.9009 34.2002H33.4873V38.8575H35.9009V34.2002Z" fill="white"/>
<path d="M42.337 38.858V27.6029C42.337 27.3886 42.1569 27.2148 41.9347 27.2148H37.4618L37.3464 27.9196C36.9866 30.1198 35.4023 31.924 33.2123 32.6284C33.171 32.6417 33.1278 32.6483 33.085 32.6483C33.0422 32.6483 32.999 32.6417 32.9577 32.6284C30.7677 31.924 29.1834 30.1198 28.8236 27.9196L28.7082 27.2148H24.2353C24.0131 27.2148 23.833 27.3886 23.833 27.6029V38.858H29.4647V33.8126C29.4647 33.5983 29.6446 33.4245 29.8669 33.4245H36.3031C36.5254 33.4245 36.7053 33.5983 36.7053 33.8126V38.858H42.337ZM37.5099 29.9316C37.5099 29.7172 37.6898 29.5435 37.9121 29.5435H40.3257C40.548 29.5435 40.728 29.7172 40.728 29.9316V32.2602C40.728 32.4745 40.548 32.6483 40.3257 32.6483H37.9121C37.6898 32.6483 37.5099 32.4745 37.5099 32.2602V29.9316ZM37.5099 33.8126C37.5099 33.5983 37.6898 33.4245 37.9121 33.4245H40.3257C40.548 33.4245 40.728 33.5983 40.728 33.8126V37.6937C40.728 37.908 40.548 38.0818 40.3257 38.0818H37.9121C37.6898 38.0818 37.5099 37.908 37.5099 37.6937V33.8126ZM28.6601 37.6937C28.6601 37.908 28.4802 38.0818 28.2579 38.0818H25.8443C25.622 38.0818 25.4421 37.908 25.4421 37.6937V33.8126C25.4421 33.5983 25.622 33.4245 25.8443 33.4245H28.2579C28.4802 33.4245 28.6601 33.5983 28.6601 33.8126V37.6937ZM28.6601 32.2602C28.6601 32.4745 28.4802 32.6483 28.2579 32.6483H25.8443C25.622 32.6483 25.4421 32.4745 25.4421 32.2602V29.9316C25.4421 29.7172 25.622 29.5435 25.8443 29.5435H28.2579C28.4802 29.5435 28.6601 29.7172 28.6601 29.9316V32.2602Z" fill="white"/>
<path d="M39.9235 34.2002H38.3145V37.305H39.9235V34.2002Z" fill="white"/>
<path d="M39.9235 30.3193H38.3145V31.8718H39.9235V30.3193Z" fill="white"/>
<g filter="url(#filter1_d_670_525)">
<path fill-rule="evenodd" clip-rule="evenodd" d="M60 27.5552C60 48.2093 32.5 71 32.5 71C32.5 71 5 48.2093 5 27.5552C5 12.8892 17.3122 1 32.5 1C47.6878 1 60 12.8892 60 27.5552Z" fill="url(#paint1_linear_670_525)" stroke="white" stroke-width="2" stroke-linecap="round" stroke-linejoin="round"/>
</g>
<path d="M23.4375 23.9688V24.9062H27.4267L27.2836 23.9688H23.4375Z" fill="white"/>
<path d="M37.7163 23.9688L37.5732 24.9062H41.5624V23.9688H37.7163Z" fill="white"/>
<path d="M43.375 40.8438H21.625C21.3747 40.8438 21.1719 41.0536 21.1719 41.3125V42.25C21.1719 42.5089 21.3747 42.7188 21.625 42.7188H43.375C43.6253 42.7188 43.8281 42.5089 43.8281 42.25V41.3125C43.8281 41.0536 43.6253 40.8438 43.375 40.8438Z" fill="white"/>
<path d="M22.0781 23.0312H27.1405L27.0683 22.5575C27.0426 22.3922 27.105 22.2254 27.2307 22.1201C27.3563 22.0146 27.5267 21.9873 27.6785 22.0468C29.1905 22.6486 30.9118 22.3634 32.1677 21.3009L32.2128 21.2627C32.3792 21.1208 32.6208 21.1208 32.7872 21.2627L32.8328 21.3014C34.0882 22.3634 35.8082 22.6492 37.3215 22.0468C37.4742 21.9873 37.6437 22.0146 37.7694 22.1201C37.895 22.2254 37.9574 22.3922 37.9317 22.5575L37.8595 23.0312H42.9219C43.1721 23.0312 43.375 22.8214 43.375 22.5625V19.75C43.375 19.4911 43.1721 19.2812 42.9219 19.2812H22.0781C21.8279 19.2812 21.625 19.4911 21.625 19.75V22.5625C21.625 22.8214 21.8279 23.0312 22.0781 23.0312Z" fill="white"/>
<path d="M31.8147 27.0847L31.6974 27.8281L32.2811 27.4944C32.3492 27.4552 32.4244 27.4358 32.5001 27.4358C32.5758 27.4358 32.651 27.4552 32.7192 27.4944L33.3028 27.8281L33.1856 27.0847C33.1625 26.9377 33.2081 26.7883 33.3086 26.6818L33.8254 26.1339L33.1316 26.0243C32.9824 26.0005 32.8541 25.9013 32.79 25.7599L32.5001 25.1211L32.2103 25.7599C32.1461 25.9014 32.0178 26.0005 31.8687 26.0243L31.1748 26.1339L31.6916 26.6818C31.7921 26.7883 31.8377 26.9377 31.8147 27.0847Z" fill="white"/>
<path d="M32.4999 31.4409C34.5704 30.6677 36.0607 28.8067 36.4054 26.5485L36.9236 23.1505C35.3979 23.5161 33.7765 23.1801 32.4999 22.2188C31.2228 23.1803 29.6019 23.5161 28.0762 23.1505L28.5943 26.5485C28.9391 28.8067 30.4294 30.6677 32.4999 31.4409ZM29.8046 25.6591C29.8586 25.4924 29.998 25.3709 30.1657 25.3444L31.4923 25.1349L32.0897 23.8182C32.1645 23.6536 32.3242 23.5485 32.4999 23.5485C32.6756 23.5485 32.8353 23.6536 32.9101 23.8182L33.5075 25.1349L34.8341 25.3444C35.0018 25.3709 35.1412 25.4924 35.1952 25.6591C35.2492 25.8257 35.2085 26.0095 35.0899 26.1351L34.1168 27.1669L34.3474 28.6293C34.3752 28.8064 34.3027 28.9847 34.1611 29.0879C34.0832 29.1447 33.9916 29.1735 33.9 29.1735C33.8248 29.1735 33.7491 29.1541 33.6809 29.115L32.4999 28.4398L31.3189 29.115C31.1675 29.2019 30.9808 29.1909 30.8387 29.0879C30.6971 28.9847 30.6246 28.8064 30.6524 28.6293L30.883 27.1669L29.9099 26.1351C29.7913 26.0095 29.7506 25.8257 29.8046 25.6591Z" fill="white"/>
<path d="M32.0469 34.2812H29.3281V39.9062H32.0469V34.2812Z" fill="white"/>
<path d="M26.6094 29.5938H24.7969V31.4688H26.6094V29.5938Z" fill="white"/>
<path d="M26.6094 34.2812H24.7969V38.0312H26.6094V34.2812Z" fill="white"/>
<path d="M35.6719 34.2812H32.9531V39.9062H35.6719V34.2812Z" fill="white"/>
<path d="M42.9219 39.9062V26.3125C42.9219 26.0536 42.719 25.8438 42.4688 25.8438H37.4302L37.3003 26.695C36.895 29.3523 35.1103 31.5315 32.6434 32.3822C32.5969 32.3982 32.5482 32.4062 32.5 32.4062C32.4518 32.4062 32.4031 32.3982 32.3566 32.3822C29.8897 31.5315 28.105 29.3523 27.6997 26.695L27.5698 25.8438H22.5312C22.281 25.8438 22.0781 26.0536 22.0781 26.3125V39.9062H28.4219V33.8125C28.4219 33.5536 28.6245 33.3438 28.875 33.3438H36.125C36.3755 33.3438 36.5781 33.5536 36.5781 33.8125V39.9062H42.9219ZM37.4844 29.125C37.4844 28.8661 37.687 28.6562 37.9375 28.6562H40.6562C40.9067 28.6562 41.1094 28.8661 41.1094 29.125V31.9375C41.1094 32.1964 40.9067 32.4062 40.6562 32.4062H37.9375C37.687 32.4062 37.4844 32.1964 37.4844 31.9375V29.125ZM37.4844 33.8125C37.4844 33.5536 37.687 33.3438 37.9375 33.3438H40.6562C40.9067 33.3438 41.1094 33.5536 41.1094 33.8125V38.5C41.1094 38.7589 40.9067 38.9688 40.6562 38.9688H37.9375C37.687 38.9688 37.4844 38.7589 37.4844 38.5V33.8125ZM27.5156 38.5C27.5156 38.7589 27.313 38.9688 27.0625 38.9688H24.3438C24.0933 38.9688 23.8906 38.7589 23.8906 38.5V33.8125C23.8906 33.5536 24.0933 33.3438 24.3438 33.3438H27.0625C27.313 33.3438 27.5156 33.5536 27.5156 33.8125V38.5ZM27.5156 31.9375C27.5156 32.1964 27.313 32.4062 27.0625 32.4062H24.3438C24.0933 32.4062 23.8906 32.1964 23.8906 31.9375V29.125C23.8906 28.8661 24.0933 28.6562 24.3438 28.6562H27.0625C27.313 28.6562 27.5156 28.8661 27.5156 29.125V31.9375Z" fill="white"/>
<path d="M40.2031 34.2812H38.3906V38.0312H40.2031V34.2812Z" fill="white"/>
<path d="M40.2031 29.5938H38.3906V31.4688H40.2031V29.5938Z" fill="white"/>
<defs>
<filter id="filter0_d_670_525" x="0" y="0" width="65" height="80" filterUnits="userSpaceOnUse" color-interpolation-filters="sRGB">
<feFlood flood-opacity="0" result="BackgroundImageFix"/>
<feColorMatrix in="SourceAlpha" type="matrix" values="0 0 0 0 0 0 0 0 0 0 0 0 0 0 0 0 0 0 127 0" result="hardAlpha"/>
<feOffset dy="4"/>
<feGaussianBlur stdDeviation="2"/>
<feComposite in2="hardAlpha" operator="out"/>
<feColorMatrix type="matrix" values="0 0 0 0 0 0 0 0 0 0 0 0 0 0 0 0 0 0 0.25 0"/>
<feBlend mode="normal" in2="BackgroundImageFix" result="effect1_dropShadow_670_525"/>
<feBlend mode="normal" in="SourceGraphic" in2="effect1_dropShadow_670_525" result="shape"/>
</filter>
<filter id="filter1_d_670_525" x="0" y="0" width="65" height="80" filterUnits="userSpaceOnUse" color-interpolation-filters="sRGB">
<feFlood flood-opacity="0" result="BackgroundImageFix"/>
<feColorMatrix in="SourceAlpha" type="matrix" values="0 0 0 0 0 0 0 0 0 0 0 0 0 0 0 0 0 0 127 0" result="hardAlpha"/>
<feOffset dy="4"/>
<feGaussianBlur stdDeviation="2"/>
<feComposite in2="hardAlpha" operator="out"/>
<feColorMatrix type="matrix" values="0 0 0 0 0 0 0 0 0 0 0 0 0 0 0 0 0 0 0.25 0"/>
<feBlend mode="normal" in2="BackgroundImageFix" result="effect1_dropShadow_670_525"/>
<feBlend mode="normal" in="SourceGraphic" in2="effect1_dropShadow_670_525" result="shape"/>
</filter>
<linearGradient id="paint0_linear_670_525" x1="32.5" y1="1" x2="32.5" y2="71" gradientUnits="userSpaceOnUse">
<stop offset="0.528846" stop-color="#012F48"/>
<stop offset="1" stop-color="#0272AE"/>
</linearGradient>
<linearGradient id="paint1_linear_670_525" x1="32.5" y1="1" x2="32.5" y2="71" gradientUnits="userSpaceOnUse">
<stop offset="0.528846" stop-color="#012F48"/>
<stop offset="1" stop-color="#0272AE"/>
</linearGradient>
</defs>
</svg>
