<svg width="38" height="38" viewBox="0 0 38 38" fill="none" xmlns="http://www.w3.org/2000/svg">
<rect width="38" height="38" rx="19" fill="#012F48"/>
<path d="M21.9865 17.7258C22.203 17.457 22.1607 17.0636 21.8919 16.847C21.6232 16.6304 21.2297 16.6727 21.0131 16.9415L19.3285 19.0322C18.9826 19.4614 18.7644 19.7299 18.5828 19.8995C18.4974 19.9793 18.4429 20.0147 18.4115 20.0304C18.3882 20.0421 18.3799 20.042 18.3754 20.042H18.3742C18.3697 20.042 18.3614 20.0421 18.3381 20.0304C18.3067 20.0147 18.2522 19.9793 18.1668 19.8995C17.9852 19.7299 17.767 19.4614 17.4211 19.0322L16.9865 18.4928C16.7699 18.224 16.3764 18.1817 16.1077 18.3983C15.8389 18.6149 15.7966 19.0083 16.0131 19.2771L16.4749 19.8501C16.7853 20.2355 17.0592 20.5754 17.3137 20.8131C17.5869 21.0683 17.9267 21.292 18.3748 21.292C18.8229 21.292 19.1627 21.0683 19.4359 20.8131C19.6904 20.5754 19.9643 20.2355 20.2748 19.8501L21.9865 17.7258Z" fill="white"/>
<path fill-rule="evenodd" clip-rule="evenodd" d="M16.9689 10.042C15.684 10.042 14.6425 11.0836 14.6425 12.3684C14.6425 12.9629 14.1606 13.4448 13.5661 13.4448H13.3087C11.9953 13.4448 10.8254 14.4609 10.8966 15.8724C10.9813 17.5482 11.3535 20.1602 12.7111 22.6343C13.0913 23.3273 13.5992 24.008 14.1481 24.6422L14.1895 24.69C14.9792 25.6025 15.6376 26.3633 16.3455 26.8819C17.1069 27.4397 17.9196 27.7176 18.9998 27.7176C20.0801 27.7176 20.8927 27.4397 21.6541 26.8819C22.362 26.3633 23.0205 25.6025 23.8102 24.69L23.8516 24.6422C24.4005 24.008 24.9084 23.3273 25.2886 22.6343C26.6914 20.0779 27.0412 17.1892 27.1101 15.3883C27.164 13.9836 26.0024 12.9587 24.6817 12.9587H24.1905C23.7303 12.9587 23.3572 12.5856 23.3572 12.1253C23.3572 10.9747 22.4245 10.042 21.2739 10.042H16.9689ZM15.8925 12.3684C15.8925 11.7739 16.3744 11.292 16.9689 11.292H21.2739C21.7341 11.292 22.1072 11.6651 22.1072 12.1253C22.1072 13.2759 23.0399 14.2087 24.1905 14.2087H24.6817C25.3797 14.2087 25.8845 14.7279 25.8611 15.3405C25.7951 17.0611 25.4596 19.7242 24.1927 22.033C23.8686 22.6237 23.4198 23.231 22.9064 23.8242C22.0647 24.7967 21.4962 25.4481 20.9154 25.8736C20.3758 26.2689 19.8238 26.4676 18.9998 26.4676C18.1758 26.4676 17.6239 26.2689 17.0843 25.8736C16.5034 25.4481 15.935 24.7967 15.0933 23.8242C14.5799 23.231 14.1311 22.6237 13.8069 22.033C12.5749 19.7877 12.2246 17.385 12.1451 15.8094C12.1148 15.2099 12.6086 14.6948 13.3087 14.6948H13.5661C14.8509 14.6948 15.8925 13.6532 15.8925 12.3684Z" fill="white"/>
</svg>
