<svg width="38" height="38" viewBox="0 0 38 38" fill="none" xmlns="http://www.w3.org/2000/svg">
<rect width="38" height="38" rx="19" fill="#012F48"/>
<path fill-rule="evenodd" clip-rule="evenodd" d="M18.9998 12.542C16.8137 12.542 15.0415 14.3142 15.0415 16.5003C15.0415 18.6865 16.8137 20.4587 18.9998 20.4587C21.186 20.4587 22.9582 18.6865 22.9582 16.5003C22.9582 14.3142 21.186 12.542 18.9998 12.542ZM16.2915 16.5003C16.2915 15.0046 17.5041 13.792 18.9998 13.792C20.4956 13.792 21.7082 15.0046 21.7082 16.5003C21.7082 17.9961 20.4956 19.2087 18.9998 19.2087C17.5041 19.2087 16.2915 17.9961 16.2915 16.5003Z" fill="white"/>
<path fill-rule="evenodd" clip-rule="evenodd" d="M18.9998 10.042C14.0523 10.042 10.0415 14.0528 10.0415 19.0003C10.0415 21.5407 11.0997 23.835 12.7978 25.4645C14.4068 27.0087 16.593 27.9587 18.9998 27.9587C21.4067 27.9587 23.5929 27.0087 25.2019 25.4645C26.8999 23.835 27.9582 21.5407 27.9582 19.0003C27.9582 14.0528 23.9474 10.042 18.9998 10.042ZM11.2915 19.0003C11.2915 14.7431 14.7426 11.292 18.9998 11.292C23.257 11.292 26.7082 14.7431 26.7082 19.0003C26.7082 20.8293 26.0717 22.5089 25.0073 23.8309C24.3456 22.5693 23.0236 21.7087 21.4998 21.7087H16.4998C14.976 21.7087 13.6541 22.5693 12.9924 23.8309C11.9279 22.5089 11.2915 20.8293 11.2915 19.0003ZM21.4998 22.9587C22.6947 22.9587 23.7099 23.733 24.0691 24.8074C22.7136 25.9919 20.941 26.7087 18.9998 26.7087C17.0587 26.7087 15.2861 25.9919 13.9306 24.8074C14.2898 23.733 15.3049 22.9587 16.4998 22.9587H21.4998Z" fill="white"/>
</svg>
