<svg width="38" height="38" viewBox="0 0 38 38" fill="none" xmlns="http://www.w3.org/2000/svg">
<rect width="38" height="38" rx="19" fill="#012F48"/>
<path d="M15.6667 16.7087C15.3215 16.7087 15.0417 16.9885 15.0417 17.3337C15.0417 17.6788 15.3215 17.9587 15.6667 17.9587H18.1667C18.5118 17.9587 18.7917 17.6788 18.7917 17.3337C18.7917 16.9885 18.5118 16.7087 18.1667 16.7087H15.6667Z" fill="white"/>
<path d="M15.6667 20.042C15.3215 20.042 15.0417 20.3218 15.0417 20.667C15.0417 21.0122 15.3215 21.292 15.6667 21.292H22.3333C22.6785 21.292 22.9583 21.0122 22.9583 20.667C22.9583 20.3218 22.6785 20.042 22.3333 20.042H15.6667Z" fill="white"/>
<path fill-rule="evenodd" clip-rule="evenodd" d="M21.5214 10.0665C20.8071 10.042 19.9759 10.042 19.0092 10.042H18.9623C17.4318 10.042 16.2322 10.042 15.2804 10.1451C14.3091 10.2503 13.5221 10.4689 12.8502 10.9571C12.4434 11.2527 12.0857 11.6104 11.7901 12.0172C11.3019 12.6891 11.0833 13.4761 10.9781 14.4474C10.875 15.3992 10.875 16.5988 10.875 18.1293V19.8714C10.875 21.4018 10.875 22.6015 10.9781 23.5533C11.0833 24.5245 11.3019 25.3115 11.7901 25.9835C12.0857 26.3903 12.4434 26.748 12.8502 27.0435C13.5221 27.5317 14.3091 27.7503 15.2804 27.8556C16.2322 27.9587 17.4318 27.9587 18.9622 27.9587H19.0377C20.5681 27.9587 21.7678 27.9587 22.7196 27.8556C23.6909 27.7503 24.4779 27.5317 25.1498 27.0435C25.5566 26.748 25.9143 26.3903 26.2099 25.9835C26.6981 25.3115 26.9167 24.5245 27.0219 23.5533C27.125 22.6015 27.125 21.4019 27.125 19.8714V18.1578C27.125 17.1911 27.125 16.3599 27.1005 15.6456C27.047 14.0844 26.8781 12.9369 26.2099 12.0172C25.9143 11.6104 25.5566 11.2527 25.1498 10.9571C24.2301 10.2889 23.0826 10.12 21.5214 10.0665ZM13.5849 11.9684C14.0083 11.6608 14.5501 11.4815 15.415 11.3878C16.2917 11.2929 17.4237 11.292 19 11.292C19.707 11.292 20.3265 11.292 20.8765 11.301C20.8802 11.6965 20.8925 11.9877 20.934 12.2499C21.2587 14.3002 22.8668 15.9083 24.9171 16.233C25.1793 16.2745 25.4704 16.2868 25.866 16.2905C25.875 16.8405 25.875 17.46 25.875 18.167V19.8337C25.875 21.41 25.8741 22.542 25.7792 23.4186C25.6855 24.2835 25.5062 24.8254 25.1986 25.2487C24.9802 25.5494 24.7157 25.8138 24.4151 26.0323C23.9917 26.3398 23.4499 26.5191 22.585 26.6128C21.7083 26.7078 20.5763 26.7087 19 26.7087C17.4237 26.7087 16.2917 26.7078 15.415 26.6128C14.5501 26.5191 14.0083 26.3398 13.5849 26.0323C13.2843 25.8138 13.0198 25.5494 12.8014 25.2487C12.4938 24.8254 12.3145 24.2835 12.2208 23.4186C12.1259 22.542 12.125 21.41 12.125 19.8337V18.167C12.125 16.5907 12.1259 15.4587 12.2208 14.582C12.3145 13.7171 12.4938 13.1753 12.8014 12.7519C13.0198 12.4513 13.2843 12.1868 13.5849 11.9684ZM22.1686 12.0544C22.1415 11.8835 22.1312 11.6856 22.1273 11.3482C23.2609 11.4263 23.9155 11.6055 24.4151 11.9684C24.7157 12.1868 24.9802 12.4513 25.1986 12.7519C25.5615 13.2515 25.7407 13.9061 25.8188 15.0397C25.4813 15.0358 25.2835 15.0255 25.1126 14.9984C23.5972 14.7584 22.4086 13.5698 22.1686 12.0544Z" fill="white"/>
</svg>
