<svg width="34" height="34" viewBox="0 0 34 34" fill="none" xmlns="http://www.w3.org/2000/svg">
<path d="M13.1611 0.829102C17.1459 0.441731 20.694 1.47923 23.793 4.01758C26.8814 6.5475 28.6123 9.83193 29.1885 13.791L30.6758 13.7656C31.0737 10.2035 30.3832 7.00712 28.7549 4.14551C29.2246 4.59384 29.6663 5.07656 30.0791 5.59375C31.688 7.60915 32.687 9.89584 33.0645 12.4482C33.4755 15.2277 33.2282 17.8959 32.0703 20.4277C31.4961 21.683 30.7044 22.8121 29.7441 23.8291C28.4002 25.2524 26.9464 26.5143 25.2979 27.5186C23.899 28.3707 22.3306 28.8066 20.6445 29.1045H20.6436C20.3981 29.148 20.1608 29.1837 19.8633 29.2324L17.2578 29.6592L19.6982 30.666C19.9678 30.7772 20.3536 30.8178 20.6855 30.8389C21.0558 30.8624 21.4969 30.867 21.9531 30.8574C22.8607 30.8384 23.8848 30.7609 24.6074 30.6387C26.1661 30.3751 27.6537 29.8969 29.0693 29.2061C29.2123 29.1363 29.3527 29.0619 29.4932 28.9883C29.0298 29.4963 28.5356 29.9737 28.0029 30.4131C26.564 31.5998 24.8944 32.3648 23.0488 32.8301C21.7701 33.1523 20.4668 33.2755 19.1436 33.2451L18.5752 33.2236L18.2393 33.2002C16.6762 33.0746 15.1735 32.6781 13.7285 32.0371L13.4199 31.8955C11.7058 31.0895 10.1956 30.0087 8.88379 28.6416C6.82556 26.4965 5.51881 23.9923 5.01855 21.0703L4.82715 20.0059L4.3877 17.5781L3.40137 19.8389C3.14002 20.4378 3.08848 21.0371 3.06152 21.5342C2.94447 23.6856 3.50535 25.6632 4.32617 27.5127L4.49316 27.8818C4.83282 28.6112 5.19384 29.3379 5.58887 30.0518C4.3058 28.8537 3.2353 27.4866 2.39844 25.9473C1.49846 24.2918 0.958451 22.5315 0.802734 20.6465C0.655096 18.8561 0.813272 17.1109 1.29883 15.3955C2.04095 12.7725 3.4096 10.5377 5.41602 8.69824C7.29205 6.97822 9.46245 5.81603 11.9414 5.2373C12.6853 5.06375 13.3516 4.98439 14.1846 4.82324L14.166 3.34766C11.6211 2.92346 9.15818 3.27451 6.79395 4.04785C5.85009 4.35662 4.96627 4.7601 4.13281 5.23828C4.42118 4.93713 4.72501 4.64709 5.04395 4.36816C7.37554 2.32868 10.0808 1.12852 13.1611 0.829102ZM17 12.4111C14.4656 12.4112 12.4111 14.4657 12.4111 17C12.4111 19.5343 14.4656 21.5888 17 21.5889C19.5344 21.5889 21.5898 19.5343 21.5898 17C21.5898 14.4657 19.5344 12.4111 17 12.4111Z" fill="#001D30" stroke="white" stroke-width="1.5"/>
<path d="M17 12.8633C19.2813 12.8633 21.1375 14.7192 21.1377 17C21.1377 19.2809 19.2814 21.1377 17 21.1377C14.7186 21.1376 12.8623 19.2809 12.8623 17C12.8625 14.7193 14.7188 12.8634 17 12.8633ZM17 13.46C15.0476 13.4601 13.4592 15.0478 13.459 17C13.459 18.9524 15.0474 20.5409 17 20.541C18.9527 20.541 20.541 18.9524 20.541 17C20.5408 15.0478 18.9525 13.46 17 13.46Z" fill="white" stroke="white" stroke-width="0.5"/>
</svg>
