<svg width="27" height="26" viewBox="0 0 27 26" fill="none" xmlns="http://www.w3.org/2000/svg">
<g clip-path="url(#clip0_1398_956)">
<path d="M15.7556 5.1084L11.3609 5.55385L10.0059 7.79077L13.7966 11.7833L15.4774 10.8006L17.1582 9.81785L17.9537 7.22511L15.7556 5.1084ZM13.9417 8.5V10.8073L10.9824 7.69042L11.3609 8.08899L13.9417 10.8073L15.4049 5.71131L14.5 7.22511L13.9417 8.5Z" fill="white"/>
<path d="M7.82043 3.41895L5.45898 4.22154V6.48832L7.14791 7.05402L9.11073 5.4898L7.82043 3.41895ZM6.98686 6.19363L7.14791 6.48832L8.08262 5.32035L6.98686 6.19363Z" fill="white"/>
<path d="M11.6344 0.328307L11.041 0.832031L11.61 1.45352L12.2033 0.9498L11.6344 0.328307Z" fill="white"/>
<path d="M13.773 2.66522L13.1797 3.16895L14.5745 4.69251L15.1679 4.18879L13.773 2.66522Z" fill="white"/>
<path d="M12.7276 1.52264L12.1343 2.02637L12.6574 2.59773L13.2507 2.09401L12.7276 1.52264Z" fill="white"/>
<path d="M10.0372 1.52264L9.44385 2.02637L9.96695 2.59773L10.5603 2.09401L10.0372 1.52264Z" fill="white"/>
<path d="M8.9449 0.328307L8.35156 0.832031L8.92055 1.45352L9.5139 0.9498L8.9449 0.328307Z" fill="white"/>
<path d="M11.0836 2.66229L10.4902 3.16602L11.8851 4.68958L12.4784 4.18586L11.0836 2.66229Z" fill="white"/>
<path d="M4.49716 0.00529292L3.94092 0.546875L4.49212 1.07184L5.04836 0.530256L4.49716 0.00529292Z" fill="white"/>
<path d="M5.61044 1.06486L5.0542 1.60645L6.36649 2.85627L6.92274 2.31469L5.61044 1.06486Z" fill="white"/>
<path d="M4.18189 2.26705L3.62256 2.80566L4.57177 3.71972L5.1311 3.18111L4.18189 2.26705Z" fill="white"/>
<path d="M22.5039 9.28809L20.8032 10.3799V11.931L22.4706 13.2575L24.3735 10.95L22.5039 9.28809ZM22.3527 12.1756L21.5942 11.5723V10.7876V11.931L22.3527 12.5V12.1756Z" fill="white"/>
<path d="M20.9576 7.15959L20.4014 7.70117L21.7137 8.951L22.2699 8.40942L20.9576 7.15959Z" fill="white"/>
<path d="M19.8429 6.09709L19.2866 6.63867L19.8378 7.16364L20.3941 6.62205L19.8429 6.09709Z" fill="white"/>
<path d="M19.5271 8.3608L18.9678 8.89941L19.917 9.81347L20.4763 9.27486L19.5271 8.3608Z" fill="white"/>
<path d="M1.8457 25.2344H0V25.9961H1.8457V25.2344Z" fill="white"/>
<path d="M3.42773 25.2344H2.63672V25.9961H3.42773V25.2344Z" fill="white"/>
<path d="M5.37891 25.2344H4.21875V25.9961H5.37891V25.2344Z" fill="white"/>
<path d="M24.4954 25.2339V18.6599L18.8265 14.5766L13.1575 18.6599V25.2339H11.4495L7.89399 11.4885L3.30188 7.77808L2.01169 3.27414L0.276461 2.75195L0.0405273 3.47899L1.3639 3.87721L0.0405273 10L5 11L6.53935 15L8.5 21.0952L10.6343 25.2339H6.53935V25.9956H27.0003V25.2339H24.4954ZM18.4837 25.2339H17.429V22.7456L17 25.2339H18.4837ZM19.2747 19.7519V25.2339H17.429V21.9839V21.0952C17.429 20.4572 17.8758 19.9182 18.4837 19.7519L18.8792 19.703L19.2747 19.7519ZM20.3294 25.2339H19.2747V22.841L20.3294 22.7456V25.2339ZM20.3294 22.7456L19.2747 22.841V19.7519C19.8826 19.9182 20.3294 20.4572 20.3294 21.0952V22.7456ZM20.6322 25.2339H21.1204V21.0952C21.1204 19.9052 20.115 18.937 18.8792 18.937C17.6434 18.937 16.638 19.9052 16.638 21.0952V25.2339L17.429 19.4509L18 19.11L20.6322 19.7519V25.2339Z" fill="white"/>
<path d="M18.8262 12.4443L16.4268 14.1726V12.3359H13.5264V16.2617L10.6792 18.3126L11.153 18.9226L18.8262 13.3955L26.4995 18.9226L26.9733 18.3126L18.8262 12.4443ZM15.6358 14.7424L14.3174 15.692V13.0977H15.6358V14.7424Z" fill="white"/>
</g>
<defs>
<clipPath id="clip0_1398_956">
<rect width="27" height="26" fill="white"/>
</clipPath>
</defs>
</svg>
