<svg width="21" height="19" viewBox="0 0 21 19" fill="none" xmlns="http://www.w3.org/2000/svg">
<path d="M5.52626 17C5.83147 17 6.0789 16.7761 6.0789 16.5C6.0789 16.2239 5.83147 16 5.52626 16C5.22105 16 4.97363 16.2239 4.97363 16.5C4.97363 16.7761 5.22105 17 5.52626 17Z" fill="white"/>
<path d="M16.0263 17C16.3315 17 16.5789 16.7761 16.5789 16.5C16.5789 16.2239 16.3315 16 16.0263 16C15.7211 16 15.4736 16.2239 15.4736 16.5C15.4736 16.7761 15.7211 17 16.0263 17Z" fill="white"/>
<path d="M20.4474 2H12.1579V1.5C12.1579 0.67499 11.4119 0 10.5 0C9.58815 0 8.84211 0.67499 8.84211 1.5V2H7.18422C6.88028 2 6.63159 2.225 6.63159 2.5V4.5C6.63159 4.77499 6.88028 5 7.18422 5H8.84211V6.5H7.18422C6.27236 6.5 5.52632 7.17499 5.52632 8V8.5H4.97369C4.80791 8.5 4.64762 8.57 4.54262 8.69L2.40947 11.1L0.303942 12.055C0.116064 12.135 0 12.31 0 12.5V16.5C0 16.775 0.24869 17 0.552632 17H2.81841C3.07816 18.14 4.19449 19 5.52632 19C6.85814 19 7.97447 18.14 8.23422 17H13.3184C13.5782 18.14 14.6945 19 16.0263 19C17.3581 19 18.4745 18.14 18.7342 17H20.4474C20.7513 17 21 16.775 21 16.5V2.5C21 2.225 20.7513 2 20.4474 2ZM9.94738 1.5C9.94738 1.225 10.1961 1 10.5 1C10.8039 1 11.0526 1.225 11.0526 1.5V2H9.94738V1.5ZM6.63159 8C6.63159 7.725 6.88028 7.5 7.18422 7.5H8.84211V8.5H6.63159V8ZM2.81842 16H1.10527V15H3.33239C3.0837 15.29 2.90132 15.63 2.81842 16ZM5.52632 18C4.61447 18 3.86843 17.325 3.86843 16.5C3.86843 15.675 4.61447 15 5.52632 15C6.43818 15 7.18422 15.675 7.18422 16.5C7.18422 17.325 6.43818 18 5.52632 18ZM1.10527 14V12.81L3.01185 11.945C3.0837 11.915 3.14448 11.87 3.19423 11.81L5.23894 9.5H8.84211V14H1.10527ZM13.3184 16H8.23423C8.15133 15.63 7.96895 15.29 7.72026 15H13.8324C13.5837 15.29 13.4013 15.63 13.3184 16ZM16.0263 18C15.1145 18 14.3684 17.325 14.3684 16.5C14.3684 15.675 15.1145 15 16.0263 15C16.9382 15 17.6842 15.675 17.6842 16.5C17.6842 17.325 16.9382 18 16.0263 18ZM19.8947 16H18.7342C18.6513 15.63 18.4689 15.29 18.2203 15H19.8947V16ZM19.8947 14H9.94738V5H19.8947V14ZM19.8947 4H7.73685V3H19.8947V4Z" fill="white"/>
<path d="M12.1581 11H13.2634V12C13.2634 12.2761 13.5108 12.5 13.816 12.5H16.0265C16.3317 12.5 16.5792 12.2761 16.5792 12V11H17.6844C17.9896 11 18.237 10.7761 18.237 10.5V8.5C18.237 8.22387 17.9896 8 17.6844 8H16.5792V7C16.5792 6.72387 16.3317 6.5 16.0265 6.5H13.816C13.5108 6.5 13.2634 6.72387 13.2634 7V8H12.1581C11.8529 8 11.6055 8.22387 11.6055 8.5V10.5C11.6055 10.7761 11.8529 11 12.1581 11ZM12.7107 9H13.816C14.1212 9 14.3686 8.77612 14.3686 8.5V7.5H15.4739V8.5C15.4739 8.77612 15.7213 9 16.0265 9H17.1318V10H16.0265C15.7213 10 15.4739 10.2239 15.4739 10.5V11.5H14.3686V10.5C14.3686 10.2239 14.1212 10 13.816 10H12.7107V9Z" fill="white"/>
<path d="M0.552632 8H3.86842C4.17361 8 4.42105 7.77612 4.42105 7.5C4.42105 7.22387 4.17361 7 3.86842 7H0.552632C0.247441 7 0 7.22387 0 7.5C0 7.77612 0.247441 8 0.552632 8Z" fill="white"/>
<path d="M1.10547 5.5C1.10547 5.77612 1.35291 6 1.6581 6H4.97389C5.27908 6 5.52652 5.77612 5.52652 5.5C5.52652 5.22387 5.27908 5 4.97389 5H1.6581C1.35291 5 1.10547 5.22387 1.10547 5.5Z" fill="white"/>
<path d="M0.552632 4H3.86842C4.17361 4 4.42105 3.77612 4.42105 3.5C4.42105 3.22387 4.17361 3 3.86842 3H0.552632C0.247441 3 0 3.22387 0 3.5C0 3.77612 0.247441 4 0.552632 4Z" fill="white"/>
</svg>
