<svg width="28" height="29" viewBox="0 0 28 29" fill="none" xmlns="http://www.w3.org/2000/svg">
<path d="M23.479 17.5205L24.9665 15.4663C25.1007 15.2851 25.1182 15.0374 25.019 14.832C24.9198 14.6265 24.7215 14.4997 24.4999 14.4997H23.3332V6.04135C23.3332 5.76947 23.1582 5.52778 22.9015 5.45529L14.1515 3.03862C14.0524 3.01447 13.9473 3.01447 13.8482 3.03862L5.09819 5.45529C4.84153 5.52779 4.66653 5.76947 4.66653 6.04135V14.4997H3.49987C3.2782 14.4997 3.07988 14.6265 2.98069 14.832C2.88154 15.0374 2.89902 15.2851 3.03321 15.4663L4.52071 17.5205L3.03321 19.5747C2.89902 19.7559 2.88154 20.0036 2.98069 20.2091C3.07988 20.4145 3.2782 20.5414 3.49987 20.5414H6.41069C7.30905 21.9068 8.51072 23.0305 9.91653 23.8038L13.7257 25.9064C13.8132 25.9547 13.9066 25.9789 13.9999 25.9789C14.0932 25.9789 14.1865 25.9547 14.274 25.9064L18.0832 23.8038C19.489 23.0305 20.6907 21.9068 21.589 20.5414H24.4999C24.7215 20.5414 24.9198 20.4145 25.019 20.2091C25.1182 20.0036 25.1007 19.7559 24.9665 19.5747L23.479 17.5205ZM5.83319 6.50653L13.9999 4.253L22.1665 6.50653V14.4997H20.9999V7.89615C20.9999 7.62427 20.8249 7.38258 20.5682 7.31009L14.1515 5.53989C14.0524 5.51573 13.9473 5.51573 13.8482 5.53989L7.43152 7.31009C7.17486 7.38259 6.99986 7.62427 6.99986 7.89615V14.4997H5.83319V6.50653ZM19.8332 8.36133V14.4997H8.16653V8.36133L13.9999 6.74822L19.8332 8.36133ZM17.5349 22.7405L13.9999 24.692L10.4649 22.7405C9.46735 22.1907 8.58651 21.4416 7.86318 20.5414H9.48487C9.94569 20.9763 10.4473 21.363 11.0132 21.6711L13.7257 23.1695C13.8132 23.2178 13.9065 23.242 13.9999 23.242C14.0932 23.242 14.1865 23.2178 14.274 23.1695L16.9865 21.6711C17.5524 21.363 18.054 20.9763 18.5149 20.5414H20.1365C19.4132 21.4416 18.5324 22.1907 17.5349 22.7405ZM11.4624 20.5414H16.5373C16.5023 20.5595 16.4732 20.5897 16.4382 20.6078L13.9999 21.9551L11.5615 20.6078C11.5265 20.5897 11.4974 20.5595 11.4624 20.5414ZM22.2832 17.883L23.3332 19.333H4.66653L5.71652 17.883C5.87403 17.6655 5.87403 17.3755 5.71652 17.158L4.66653 15.708H23.3332L22.2832 17.158C22.1257 17.3755 22.1257 17.6655 22.2832 17.883Z" fill="white"/>
<path d="M13.5139 8.12332L12.8297 9.19005L11.5411 9.48328C11.3366 9.52989 11.172 9.68625 11.1093 9.89334C11.0472 10.1004 11.0968 10.3264 11.2392 10.4851L12.0789 11.4191L11.9769 12.6351C11.9593 12.8422 12.0464 13.044 12.2071 13.1696C12.3671 13.2953 12.5779 13.326 12.7665 13.2511L13.9998 12.7625L15.2331 13.2511C15.4189 13.3254 15.6336 13.294 15.7925 13.1696C15.9532 13.044 16.0403 12.8422 16.0227 12.6351L15.9207 11.4191L16.7604 10.4851C16.9028 10.3264 16.9523 10.1004 16.8903 9.89334C16.8276 9.68625 16.663 9.52989 16.4585 9.48328L15.1699 9.19005L14.4857 8.12332C14.2692 7.78702 13.7303 7.78702 13.5139 8.12332ZM14.6891 10.3176L15.2103 10.4361L14.8902 10.7919C14.7779 10.917 14.7221 11.0857 14.7364 11.2557L14.7802 11.7778L14.2083 11.5519C14.1411 11.5253 14.0704 11.5117 13.9998 11.5117C13.9291 11.5117 13.8585 11.5253 13.7913 11.5519L13.2193 11.7778L13.2632 11.2557C13.2775 11.0857 13.2216 10.917 13.1094 10.7919L12.7893 10.4361L13.3105 10.3176C13.458 10.2839 13.5873 10.1925 13.6711 10.0621L13.9998 9.54937L14.3285 10.0621C14.4122 10.1925 14.5415 10.2839 14.6891 10.3176Z" fill="white"/>
<path d="M13.9998 18.1243C14.322 18.1243 14.5832 17.8539 14.5832 17.5202C14.5832 17.1865 14.322 16.916 13.9998 16.916C13.6777 16.916 13.4165 17.1865 13.4165 17.5202C13.4165 17.8539 13.6777 18.1243 13.9998 18.1243Z" fill="white"/>
<path d="M11.6663 18.1243C11.9885 18.1243 12.2497 17.8539 12.2497 17.5202C12.2497 17.1865 11.9885 16.916 11.6663 16.916C11.3442 16.916 11.083 17.1865 11.083 17.5202C11.083 17.8539 11.3442 18.1243 11.6663 18.1243Z" fill="white"/>
<path d="M16.3333 18.1243C16.6555 18.1243 16.9167 17.8539 16.9167 17.5202C16.9167 17.1865 16.6555 16.916 16.3333 16.916C16.0112 16.916 15.75 17.1865 15.75 17.5202C15.75 17.8539 16.0112 18.1243 16.3333 18.1243Z" fill="white"/>
</svg>
