<svg width="27" height="26" viewBox="0 0 27 26" fill="none" xmlns="http://www.w3.org/2000/svg">
<g clip-path="url(#clip0_1399_1242)">
<g clip-path="url(#clip1_1399_1242)">
<path d="M13.4585 20.3244C12.3789 20.3783 11.3066 20.4125 10.3048 20.4125C8.9572 20.413 7.73495 20.3506 6.80613 20.1993C6.04002 20.0764 5.01244 19.8091 4.09023 19.2574C3.16464 18.7037 2.36156 17.888 1.94859 16.6618C1.66474 15.8183 1.5434 15.024 1.54318 14.2912C1.54382 12.9538 1.94732 11.8057 2.56325 10.9403C3.17855 10.0761 4.0083 9.50884 4.82598 9.35495H4.8273C4.95436 9.33037 5.0828 9.3186 5.21054 9.3186C5.7813 9.31703 6.33038 9.56018 6.71732 9.94446C7.10616 10.3331 7.32743 10.8291 7.32854 11.393C7.32812 11.7431 7.27628 11.9966 7.20746 12.189C7.10378 12.476 6.95668 12.6401 6.83152 12.7427C6.80867 12.7608 6.78804 12.7748 6.76762 12.7887C6.75001 12.7791 6.73409 12.7695 6.71451 12.7593C6.55667 12.6797 6.34006 12.5931 6.07816 12.5915C5.88308 12.591 5.65747 12.646 5.44821 12.8048C5.23853 12.9619 5.05936 13.2153 4.93426 13.5413C4.83492 13.7968 4.78023 14.0609 4.78023 14.3222C4.77917 14.628 4.85899 14.9198 4.98843 15.1513C5.18373 15.5009 5.46736 15.7254 5.77384 15.8724C6.08202 16.0183 6.42231 16.0883 6.76768 16.0888C7.88671 16.0878 9.03559 15.5405 9.91172 14.4736C10.7888 13.4077 11.3768 11.8144 11.3744 9.80346C11.3705 8.09568 10.7464 6.17782 9.61063 4.6491C8.4762 3.1236 6.801 1.9979 4.72907 2C4.60022 2 4.47014 2.00428 4.33875 2.01282H4.33896C2.33214 2.14436 0.613148 2.8675 -0.858979 4.16273C-2.33216 5.4573 -3.55398 7.30621 -4.62631 9.66502C-5.55519 11.7123 -6.62752 14.4014 -7.9618 16.5592C-8.62767 17.6379 -9.35669 18.5797 -10.1484 19.2452C-10.942 19.9112 -11.7884 20.3047 -12.7328 20.3238L-13.1665 20.3319V25.6316H-12.726C-12.2167 25.6322 -11.8567 25.7102 -11.5577 25.8219C-11.1117 25.9876 -10.7803 26.2532 -10.305 26.5194C-9.83213 26.7845 -9.23313 27.0032 -8.36127 27C-7.77909 27.0005 -7.32058 26.9075 -6.93755 26.7627C-6.36028 26.5435 -5.97556 26.2319 -5.58132 26.017C-5.18454 25.801 -4.76041 25.6348 -3.9952 25.6316C-3.48569 25.6321 -3.12525 25.7101 -2.82607 25.8218C-2.37956 25.9875 -2.04816 26.2532 -1.57246 26.5194C-1.09934 26.7844 -0.500126 27.0031 0.372148 26.9999C0.954333 27.0004 1.41285 26.9074 1.79593 26.7626C2.37314 26.5434 2.75791 26.2319 3.15216 26.0169C3.54889 25.801 3.97301 25.6347 4.73822 25.6315C5.24794 25.632 5.60859 25.7101 5.90778 25.8217C6.3545 25.9875 6.68632 26.2531 7.16208 26.5193C7.63545 26.7844 8.23483 27.0031 9.10737 26.9998C9.68977 27.0004 10.1485 26.9073 10.5319 26.7625C11.1092 26.5434 11.4941 26.2318 11.889 26.0168C12.2861 25.8009 12.7106 25.6347 13.4765 25.6314H13.9168V25.0841V20.3007L13.4585 20.3244ZM10.6947 25.5194C10.2977 25.7358 9.87311 25.9021 9.10732 25.9053C8.5976 25.9048 8.23716 25.8267 7.93776 25.715C7.49125 25.5493 7.15943 25.2831 6.68368 25.0169C6.2103 24.7523 5.61071 24.5337 4.73817 24.5369C4.15598 24.5364 3.69769 24.6293 3.31445 24.7742C2.73739 24.9934 2.35267 25.3049 1.95822 25.5193C1.56165 25.7358 1.13731 25.902 0.372095 25.9052C-0.13741 25.9047 -0.49764 25.8266 -0.796826 25.7149C-1.24328 25.5492 -1.57494 25.2836 -2.05044 25.0168C-2.52355 24.7522 -3.12292 24.5336 -3.99525 24.5368C-4.57744 24.5363 -5.03574 24.6293 -5.41898 24.7741C-5.99603 24.9933 -6.38075 25.3049 -6.77521 25.5192C-7.17178 25.7357 -7.59612 25.9019 -8.36133 25.9052C-8.87041 25.9046 -9.23059 25.8265 -9.52935 25.7149C-9.97538 25.5491 -10.3068 25.2835 -10.7823 25.0173C-11.1705 24.7998 -11.6465 24.6153 -12.2857 24.5576V21.3868C-11.3185 21.2671 -10.4389 20.8128 -9.65472 20.151C-8.30282 19.0109 -7.20812 17.2732 -6.26676 15.4499C-5.32736 13.6262 -4.54321 11.7078 -3.85952 10.2031C-2.83024 7.9389 -1.68629 6.22948 -0.350744 5.05626C0.985913 3.88454 2.51871 3.23193 4.38566 3.10631H4.38588C4.50204 3.09829 4.61624 3.09455 4.72891 3.09455C6.53979 3.09612 7.96717 4.05992 8.96444 5.39295C9.96044 6.72282 10.497 8.43329 10.4934 9.80326C10.4911 11.5533 9.99921 12.8291 9.29462 13.6919C8.5894 14.5536 7.65519 14.9945 6.76757 14.994C6.43876 14.9961 6.11704 14.8956 5.91894 14.7502C5.81913 14.6786 5.75205 14.6 5.71439 14.5311C5.67699 14.4611 5.66239 14.406 5.66107 14.3221C5.66128 14.2505 5.67551 14.1516 5.72772 14.0158C5.79548 13.8442 5.85679 13.7779 5.90577 13.74C5.95523 13.7025 6.00686 13.6866 6.07806 13.686C6.17116 13.6849 6.28991 13.7244 6.37893 13.7709C6.42347 13.7939 6.46045 13.8169 6.48431 13.8329L6.50949 13.8506L6.51076 13.8516L6.51335 13.8537L6.67188 13.9805L6.85765 13.9217C6.9005 13.9067 7.22159 13.803 7.55643 13.4246C7.72284 13.2353 7.88978 12.9756 8.01171 12.6356C8.13406 12.2962 8.20976 11.8803 8.20933 11.3928C8.21039 10.4483 7.82154 9.63321 7.26565 9.08801C6.70801 8.53794 5.97782 8.22472 5.21049 8.22367C5.03953 8.22367 4.86597 8.23918 4.69136 8.27284H4.69263C3.65066 8.4728 2.65207 9.16709 1.9041 10.2142C1.15672 11.2609 0.661866 12.6741 0.66229 14.291C0.66229 15.1757 0.810295 16.117 1.13609 17.0845C1.65718 18.6313 2.66238 19.6213 3.7089 20.244C4.75886 20.8694 5.86753 21.1506 6.69209 21.2847C7.68592 21.4455 8.93461 21.5065 10.3047 21.507C11.1786 21.507 12.1036 21.4776 13.0359 21.4359V24.5564C12.6552 24.5906 12.3326 24.6676 12.0517 24.774C11.4744 24.9934 11.0894 25.3044 10.6947 25.5194Z" fill="white" stroke="white" stroke-width="0.046875"/>
</g>
<path d="M24.4956 25.2344V18.6605L18.8267 14.5771L13.1577 18.6605V25.2344H11.4496H6.53955L7.5002 25.5005L8.5002 25.5L8.28117 25.5006L9.0002 25.5005L9.5002 25.5001L8 25.5L7.5002 25.5005L8.5002 25.5L10.6345 25.2344H6.53955V25.9961H27.0005V25.2344H24.4956ZM18.4839 25.2344H17.4292V22.7461L17.0002 25.2344H18.4839ZM19.2749 19.7525V25.2344H17.4292V21.9844V21.0957C17.4292 20.4578 17.876 19.9187 18.4839 19.7525L18.8794 19.7035L19.2749 19.7525ZM20.3296 25.2344H19.2749V22.8415L20.3296 22.7461V25.2344ZM20.3296 22.7461L19.2749 22.8415V19.7525C19.8828 19.9187 20.3296 20.4578 20.3296 21.0957V22.7461ZM20.6324 25.2344H21.1206V21.0957C21.1206 19.9057 20.1152 18.9375 18.8794 18.9375C17.6436 18.9375 16.6382 19.9057 16.6382 21.0957V25.2344L17.4292 19.4515L18.0002 19.1105L20.6324 19.7525V25.2344Z" fill="white"/>
<path d="M18.8262 12.4443L16.4268 14.1726V12.3359H13.5264V16.2617L10.6792 18.3126L11.153 18.9226L18.8262 13.3955L26.4995 18.9226L26.9733 18.3126L18.8262 12.4443ZM15.6358 14.7424L14.3174 15.692V13.0977H15.6358V14.7424Z" fill="white"/>
</g>
<defs>
<clipPath id="clip0_1399_1242">
<rect width="27" height="26" fill="white"/>
</clipPath>
<clipPath id="clip1_1399_1242">
<rect width="26" height="24" fill="white" transform="translate(-11 2)"/>
</clipPath>
</defs>
</svg>
