<svg width="28" height="27" viewBox="0 0 28 27" fill="none" xmlns="http://www.w3.org/2000/svg">
<path d="M26.8751 24.7495C24.6568 22.2601 22.2926 18.3385 19.6476 12.7607C19.4077 12.2549 18.9442 11.8959 18.3759 11.7758C17.8088 11.6559 17.2311 11.7943 16.7908 12.1552C16.4253 12.4547 16.1266 12.7086 15.903 12.9098C15.5752 13.2048 15.13 13.3525 14.6804 13.3154C14.2313 13.2782 13.8192 13.0591 13.5496 12.7145L13.0508 12.0767C12.5719 11.4643 11.8287 11.1303 11.0096 11.1589C9.98327 11.1954 9.06997 11.8243 8.68288 12.7611C5.96806 19.3309 2.9383 23.0706 1.374 24.7151C0.988038 25.1208 0.892853 25.6841 1.12562 26.1852C1.35885 26.6873 1.86135 26.9991 2.43702 26.9991H11.7772C12.0599 26.9991 12.2892 26.7805 12.2892 26.5109C12.2892 26.2412 12.0599 26.0226 11.7772 26.0226H2.43702C2.18936 26.0226 2.08731 25.8443 2.06191 25.7897C2.0296 25.7201 1.97174 25.54 2.13242 25.3711C4.61411 22.7624 6.57307 19.508 7.96005 16.7689C8.26629 17.136 8.68805 17.4093 9.18666 17.547C10.0446 17.784 10.9393 17.565 11.5799 16.9611L11.8513 16.7052C12.1511 16.4226 12.5698 16.2876 12.9996 16.3346C13.4487 16.3838 13.8432 16.6191 14.0839 16.9831C14.0844 16.9839 14.0852 16.9851 14.086 16.9863C14.0862 16.9866 14.0864 16.9869 14.0865 16.9871C14.0867 16.9874 14.0869 16.9876 14.0871 16.9878C14.5359 17.661 15.3289 18.072 16.1698 18.0874C16.9751 18.0874 17.7452 17.7165 18.1968 17.0886L18.6328 16.4823C18.9557 16.0333 19.5155 15.8172 20.0649 15.9142C22.2188 20.1452 24.2026 23.2585 26.0948 25.3818C26.246 25.5514 26.186 25.727 26.1533 25.7946C26.1273 25.8481 26.0238 26.0225 25.7802 26.0225H21.2538C20.0238 24.4138 18.9506 22.3009 18.2563 20.7836C18.1432 20.5365 17.8415 20.4235 17.5822 20.5314C17.323 20.6392 17.2046 20.927 17.3177 21.1742C17.9535 22.5635 18.9007 24.4413 20.0063 26.0225H16.3855C16.1028 26.0225 15.8735 26.2411 15.8735 26.5108C15.8735 26.7804 16.1028 26.999 16.3855 26.999H25.7802C26.3459 26.999 26.8451 26.6946 27.0827 26.2046C27.3195 25.7165 27.2399 25.1589 26.8751 24.7495ZM17.7882 15.9301L17.3522 16.5364C17.0832 16.9105 16.6502 17.1208 16.1654 17.1109C15.6686 17.1018 15.215 16.8599 14.9508 16.4635C14.9502 16.4627 14.9497 16.4618 14.9491 16.4609C14.9487 16.4604 14.9484 16.4599 14.948 16.4593C14.947 16.4577 14.9458 16.456 14.9447 16.4544C14.5394 15.8446 13.8733 15.4474 13.1164 15.3645C12.3766 15.2835 11.653 15.5191 11.1313 16.0108L10.8599 16.2667C10.487 16.6182 9.96786 16.7462 9.4714 16.6091C8.98948 16.476 8.63085 16.1248 8.50254 15.6652C8.96219 14.7015 9.34078 13.8324 9.63555 13.1192C9.87354 12.5432 10.4279 12.1569 11.0477 12.1348C11.5317 12.1172 11.9513 12.3044 12.2298 12.6606L12.7288 13.2984C13.1727 13.8661 13.8517 14.2269 14.5916 14.2883C15.3312 14.3495 16.0656 14.1062 16.6058 13.6201C16.818 13.4292 17.1047 13.1855 17.4582 12.8958C17.6515 12.7374 17.9052 12.6767 18.1544 12.7293C18.4046 12.7822 18.6087 12.9403 18.7144 13.1632C19.0021 13.7697 19.2863 14.3559 19.5679 14.9244C18.8641 14.9894 18.2089 15.3452 17.7882 15.9301Z" fill="white"/>
<path d="M10.5393 19.3552C9.86051 20.9356 9.22769 22.2638 8.60446 23.4155C8.47481 23.6551 8.57343 23.9496 8.82468 24.0733C8.89979 24.1102 8.98003 24.1277 9.05908 24.1277C9.24454 24.1277 9.42354 24.0313 9.51453 23.8632C10.1516 22.6859 10.7968 21.3324 11.4869 19.7252C11.5941 19.4756 11.4688 19.1905 11.2071 19.0883C10.9452 18.9861 10.6464 19.1056 10.5393 19.3552Z" fill="white"/>
<path d="M7.21381 10.2461C7.45426 10.334 7.67346 10.3682 7.87443 10.3682C8.27232 10.3682 8.59935 10.2344 8.88061 10.1193C9.26519 9.96197 9.51916 9.85801 9.9488 10.0151C10.138 10.0844 10.3523 10.0406 10.4952 9.90347C10.6382 9.76637 10.6828 9.56178 10.6091 9.38171C10.5816 9.31437 9.91721 7.72667 8.44354 7.18776C7.55932 6.86438 6.56425 7.28737 6.22514 8.13051C6.06088 8.53895 6.07327 8.98396 6.26001 9.38356C6.44674 9.78311 6.78545 10.0895 7.21381 10.2461ZM7.18129 8.48021C7.2476 8.31532 7.3773 8.18491 7.54647 8.11299C7.71559 8.04116 7.90392 8.03633 8.07693 8.09956C8.56832 8.27924 8.94518 8.64876 9.20718 8.99129C8.92275 9.03938 8.68179 9.13801 8.47682 9.22185C8.09306 9.37887 7.89475 9.44914 7.58037 9.33425C7.40746 9.27101 7.27069 9.14734 7.19532 8.98601C7.12001 8.82474 7.11499 8.6451 7.18129 8.48021Z" fill="white"/>
<path d="M18.0088 9.59586C17.8944 9.75542 17.8894 9.96435 17.9962 10.1287C18.103 10.293 18.3015 10.3818 18.5022 10.355C18.9982 10.289 19.2519 10.4664 19.6029 10.7119C19.9426 10.9495 20.3546 11.2378 20.9808 11.2378C21.0729 11.2378 21.1696 11.2315 21.2713 11.218C22.2493 11.0878 22.9341 10.2232 22.7977 9.29054C22.7316 8.83875 22.4849 8.43851 22.1032 8.16362C21.7214 7.88872 21.2504 7.77202 20.7764 7.83506C19.1314 8.05395 18.0538 9.53302 18.0088 9.59586ZM20.9179 8.80227C21.1208 8.77532 21.3226 8.82527 21.486 8.94294C21.6495 9.06066 21.7551 9.23205 21.7834 9.4255C21.8419 9.82486 21.5486 10.1951 21.1298 10.2508C20.7652 10.2996 20.563 10.1724 20.2087 9.92456C20.0096 9.78535 19.7738 9.62037 19.4734 9.50567C19.8384 9.19777 20.3413 8.87898 20.9179 8.80227Z" fill="white"/>
<path d="M16.0394 6.80691C16.0515 6.80774 16.0635 6.80808 16.0754 6.80808C16.2642 6.80808 16.4389 6.70872 16.528 6.54798C16.8013 6.05498 17.1457 5.94863 17.6226 5.80147C18.1262 5.646 18.7531 5.45255 19.1605 4.71751C19.403 4.28012 19.4523 3.77886 19.2995 3.30612C19.1466 2.83337 18.8098 2.44564 18.3511 2.21444C17.4043 1.73721 16.2268 2.08339 15.7262 2.9863C14.8705 4.52996 15.5637 6.40638 15.5936 6.48553C15.6624 6.66737 15.8372 6.79339 16.0394 6.80691ZM16.6316 3.44268C16.7961 3.14596 17.1152 2.97639 17.4449 2.97639C17.5895 2.97639 17.7361 3.009 17.8726 3.0778C18.0894 3.18712 18.2487 3.37042 18.3209 3.5939C18.3932 3.81743 18.3699 4.05439 18.2553 4.26117C18.0516 4.6285 17.7902 4.72337 17.3073 4.87244C17.0112 4.96384 16.6756 5.0674 16.3558 5.27999C16.2873 4.74265 16.2981 4.04428 16.6316 3.44268Z" fill="white"/>
<path d="M11.6556 6.82529C12.0923 6.96005 12.4078 7.05746 12.656 7.50511C12.7451 7.66585 12.9198 7.76521 13.1085 7.76521C13.1204 7.76521 13.1325 7.76482 13.1445 7.76404C13.3467 7.75051 13.5215 7.62449 13.5903 7.44261C13.6184 7.36829 14.2695 5.60584 13.4648 4.15401C13.2344 3.73845 12.8481 3.43333 12.3771 3.29485C11.9061 3.15623 11.4067 3.20106 10.971 3.42068C10.0714 3.87419 9.72642 4.94096 10.2019 5.79875C10.5884 6.49585 11.1802 6.67852 11.6556 6.82529ZM11.4496 4.28404C11.8499 4.08214 12.3478 4.22862 12.5595 4.6104C12.8534 5.14061 12.8728 5.75886 12.8175 6.24801C12.5313 6.06915 12.2345 5.97756 11.971 5.89621C11.5297 5.75998 11.2909 5.67351 11.1074 5.34241C10.8957 4.96064 11.0492 4.48584 11.4496 4.28404Z" fill="white"/>
<path d="M16.1136 8.42969C15.8308 8.42969 15.6016 8.64829 15.6016 8.91796V10.8426C15.6016 11.1123 15.8308 11.3309 16.1136 11.3309C16.3963 11.3309 16.6256 11.1123 16.6256 10.8426V8.91796C16.6256 8.64829 16.3963 8.42969 16.1136 8.42969Z" fill="white"/>
<path d="M13.0391 9.35839V10.3256C13.0391 10.5953 13.2683 10.8139 13.5511 10.8139C13.8338 10.8139 14.0631 10.5953 14.0631 10.3256V9.35839C14.0631 9.08872 13.8338 8.87012 13.5511 8.87012C13.2683 8.87012 13.0391 9.08872 13.0391 9.35839Z" fill="white"/>
<path d="M14.0814 26.999C14.3641 26.999 14.5934 26.7804 14.5934 26.5107C14.5934 26.2411 14.3641 26.0225 14.0814 26.0225C13.7986 26.0225 13.5693 26.2411 13.5693 26.5107C13.5693 26.7804 13.7986 26.999 14.0814 26.999Z" fill="white"/>
</svg>
